<svg width="78" height="78" viewBox="0 0 78 78" fill="none" xmlns="http://www.w3.org/2000/svg">
<g clip-path="url(#clip0_92_1840)">
<path d="M45.7826 74.8057L32.2432 61.6036L61.3204 31.9103L75.3382 45.6486L45.7826 74.8057Z" fill="#8AB4F8"/>
<path d="M45.8402 16.4343L32.3505 2.66028L2.85187 31.8792C-0.950625 35.6817 -0.950625 41.8464 2.85187 45.6532L31.9069 74.8989L45.6452 62.0466L23.5085 38.7664L45.8405 16.4343H45.8402Z" fill="#4285F4"/>
<path d="M75.1434 32.1049L45.8934 2.85489C42.0866 -0.951875 35.913 -0.951875 32.1063 2.85489C28.2992 6.66196 28.2992 12.8355 32.1063 16.6426L61.3563 45.8926C65.163 49.6994 71.3366 49.6994 75.1434 45.8926C78.9505 42.0855 78.9505 35.912 75.1434 32.1052V32.1049Z" fill="#8AB4F8"/>
<path d="M38.7756 78.0011C44.038 78.0011 48.3041 73.7351 48.3041 68.4726C48.3041 63.2102 44.038 58.9442 38.7756 58.9442C33.5131 58.9442 29.2471 63.2102 29.2471 68.4726C29.2471 73.7351 33.5131 78.0011 38.7756 78.0011Z" fill="#246FDB"/>
</g>
<defs>
<clipPath id="clip0_92_1840">
<rect width="78" height="78" fill="white"/>
</clipPath>
</defs>
</svg>
