<svg width="30" height="30" viewBox="0 0 30 30" fill="none" xmlns="http://www.w3.org/2000/svg">
<path d="M15 2.4375C8.1 2.4375 2.5 8.0375 2.5 14.9375C2.5 21.8375 8.1 27.4375 15 27.4375H21.25V24.9375H15C9.575 24.9375 5 20.3625 5 14.9375C5 9.5125 9.575 4.9375 15 4.9375C20.425 4.9375 25 9.5125 25 14.9375V16.725C25 17.7125 24.1125 18.6875 23.125 18.6875C22.1375 18.6875 21.25 17.7125 21.25 16.725V14.9375C21.25 11.4875 18.45 8.6875 15 8.6875C11.55 8.6875 8.75 11.4875 8.75 14.9375C8.75 18.3875 11.55 21.1875 15 21.1875C16.725 21.1875 18.3 20.4875 19.425 19.35C20.2375 20.4625 21.6375 21.1875 23.125 21.1875C25.5875 21.1875 27.5 19.1875 27.5 16.725V14.9375C27.5 8.0375 21.9 2.4375 15 2.4375ZM15 18.6875C12.925 18.6875 11.25 17.0125 11.25 14.9375C11.25 12.8625 12.925 11.1875 15 11.1875C17.075 11.1875 18.75 12.8625 18.75 14.9375C18.75 17.0125 17.075 18.6875 15 18.6875Z" fill="#7000FF"/>
</svg>
