<svg width="60" height="67" viewBox="0 0 60 67" fill="none" xmlns="http://www.w3.org/2000/svg">
<g clip-path="url(#clip0_10_103)">
<path d="M59.4575 19.7092C59.457 18.5855 59.2167 17.5926 58.7307 16.7405C58.2533 15.9025 57.5384 15.2002 56.5795 14.6448C48.664 10.0807 40.7408 5.53052 32.8278 0.961725C30.6945 -0.269865 28.6261 -0.224966 26.5086 1.02431C23.358 2.88239 7.5839 11.9197 2.88343 14.6423C0.947642 15.7629 0.00568685 17.4779 0.00522157 19.7071C0.00219727 28.8858 0.00522157 38.0644 0.00219727 47.2434C0.00266254 48.3424 0.232742 49.316 0.697322 50.1553C1.17493 51.0186 1.89983 51.7403 2.88087 52.3082C7.58157 55.0307 23.3577 64.0674 26.5077 65.9259C28.6261 67.1759 30.6945 67.2205 32.8285 65.9885C40.7417 61.4195 48.6654 56.8695 56.5821 52.3054C57.5631 51.7377 58.288 51.0156 58.7656 50.153C59.2295 49.3136 59.46 48.34 59.4605 47.2408C59.4605 47.2408 59.4605 28.8882 59.4575 19.7092Z" fill="#5C8DBC"/>
<path d="M29.8223 33.3858L0.697266 50.1553C1.17487 51.0187 1.89978 51.7403 2.88081 52.3082C7.58152 55.0308 23.3577 64.0674 26.5076 65.9259C28.626 67.1759 30.6944 67.2206 32.8284 65.9885C40.7416 61.4195 48.6653 56.8695 56.582 52.3054C57.563 51.7378 58.288 51.0156 58.7656 50.153L29.8223 33.3858Z" fill="#1A4674"/>
<path d="M21.1958 38.3531C22.8906 41.3118 26.0766 43.3074 29.7313 43.3074C33.4086 43.3074 36.6128 41.2865 38.2989 38.2961L29.8223 33.3858L21.1958 38.3531Z" fill="#1A4674"/>
<path d="M59.4574 19.7092C59.457 18.5855 59.2167 17.5926 58.7307 16.7405L29.8223 33.3858L58.7656 50.153C59.2294 49.3136 59.46 48.3401 59.4605 47.2408C59.4605 47.2408 59.4605 28.8882 59.4574 19.7092Z" fill="#1B598E"/>
<path d="M57.8659 34.5844H55.6042V36.8465H53.342V34.5844H51.0806V32.3229H53.342V30.0612H55.6042V32.3229H57.8659V34.5844Z" fill="white"/>
<path d="M49.6133 34.5844H47.3518V36.8465H45.0901V34.5844H42.8284V32.3229H45.0901V30.0612H47.3518V32.3229H49.6133V34.5844Z" fill="white"/>
<path d="M38.2989 38.2961C36.6128 41.2864 33.4086 43.3073 29.7313 43.3073C26.0766 43.3073 22.8906 41.3118 21.1958 38.3531C20.3444 36.8685 19.8973 35.1865 19.8991 33.4751C19.8991 28.0451 24.3013 23.6431 29.7313 23.6431C33.3626 23.6431 36.5318 25.6138 38.235 28.5422L46.8289 23.5935C43.413 17.6971 37.0357 13.7301 29.7313 13.7301C18.8261 13.7301 9.98608 22.5704 9.98608 33.4751C9.98608 37.0526 10.9378 40.4075 12.6012 43.3013C16.0084 49.2289 22.4039 53.2203 29.7313 53.2203C37.0722 53.2203 43.4777 49.2129 46.8801 43.2678L38.2989 38.2961Z" fill="white"/>
</g>
<defs>
<clipPath id="clip0_10_103">
<rect width="59.56" height="67" fill="white"/>
</clipPath>
</defs>
</svg>
