<svg width="75" height="87" viewBox="0 0 75 87" fill="none" xmlns="http://www.w3.org/2000/svg">
<path d="M37.4541 87L6.82559 78.503L0 2H75L68.1674 78.4912L37.4541 87Z" fill="#264DE4"/>
<path d="M62.0959 74.8618L68 7H37V82L62.0959 74.8618Z" fill="#4371DE"/>
<path d="M16 37L16.8471 46H38V37H16Z" fill="#EBEBEB"/>
<path d="M14 17L14.87 27H38V17H14Z" fill="#EBEBEB"/>
<path d="M38 61.7721L37.958 61.7835L27.294 58.8308L26.6122 51H17L18.3414 66.4169L37.9559 72L38 71.9877V61.7721Z" fill="#EBEBEB"/>
<path d="M59.2706 36.6599L61 17H37.0003V26.7133H50.5004L49.6286 36.6599H37.0003V46.3732H48.798L47.6856 58.9707L37 61.8947V72L56.6412 66.4814L56.7852 64.8402L59.0369 39.2682L59.2706 36.6599Z" fill="white"/>
</svg>
