<svg width="21" height="21" viewBox="0 0 21 21" fill="none" xmlns="http://www.w3.org/2000/svg">
<path d="M10.5 10.5C13.8141 10.5 16.5 8.1498 16.5 5.25C16.5 2.3502 13.8141 0 10.5 0C7.18594 0 4.5 2.3502 4.5 5.25C4.5 8.1498 7.18594 10.5 10.5 10.5ZM14.7 11.8125H13.9172C12.8766 12.2309 11.7188 12.4688 10.5 12.4688C9.28125 12.4688 8.12813 12.2309 7.08281 11.8125H6.3C2.82187 11.8125 0 14.2816 0 17.325V19.0312C0 20.1182 1.00781 21 2.25 21H18.75C19.9922 21 21 20.1182 21 19.0312V17.325C21 14.2816 18.1781 11.8125 14.7 11.8125Z" fill="#545454"/>
</svg>
