<svg width="30" height="30" viewBox="0 0 30 30" fill="none" xmlns="http://www.w3.org/2000/svg">
<path d="M12.5 3.125C14.2475 3.12493 15.9602 3.61327 17.4448 4.5349C18.9295 5.45654 20.127 6.77479 20.9023 8.34088C21.6775 9.90697 21.9996 11.6586 21.8323 13.398C21.6649 15.1374 21.0147 16.7955 19.955 18.185L25.8837 24.1162C26.1079 24.3412 26.2381 24.643 26.2478 24.9605C26.2575 25.2779 26.146 25.5871 25.9359 25.8253C25.7259 26.0636 25.4331 26.2129 25.1169 26.243C24.8007 26.2731 24.485 26.1818 24.2337 25.9875L24.1162 25.8838L18.185 19.955C17.0012 20.8576 15.6196 21.4654 14.1543 21.728C12.689 21.9906 11.1823 21.9005 9.75874 21.4651C8.33521 21.0298 7.03581 20.2617 5.96806 19.2244C4.90032 18.1872 4.09492 16.9106 3.61853 15.5002C3.14213 14.0899 3.00843 12.5864 3.22849 11.1141C3.44854 9.64187 4.01603 8.24318 4.88399 7.03378C5.75195 5.82439 6.89542 4.83907 8.2198 4.15936C9.54418 3.47964 11.0114 3.12508 12.5 3.125V3.125ZM12.5 5.625C10.6766 5.625 8.92795 6.34933 7.63864 7.63864C6.34932 8.92795 5.62499 10.6766 5.62499 12.5C5.62499 14.3234 6.34932 16.072 7.63864 17.3614C8.92795 18.6507 10.6766 19.375 12.5 19.375C14.3234 19.375 16.072 18.6507 17.3614 17.3614C18.6507 16.072 19.375 14.3234 19.375 12.5C19.375 10.6766 18.6507 8.92795 17.3614 7.63864C16.072 6.34933 14.3234 5.625 12.5 5.625Z" fill="#545454"/>
</svg>
