<svg width="80" height="80" viewBox="0 0 80 80" fill="none" xmlns="http://www.w3.org/2000/svg">
<path d="M70.0657 35.5001C70.0667 41.3729 68.3261 47.1141 65.064 51.9977C61.802 56.8813 57.165 60.6878 51.7395 62.9359C46.314 65.184 40.3436 65.7728 34.5835 64.6276C28.8234 63.4825 23.5322 60.655 19.3792 56.5026C15.2261 52.3502 12.3977 47.0595 11.2516 41.2996C10.1055 35.5397 10.6932 29.5693 12.9404 24.1434C15.1876 18.7175 18.9934 14.0799 23.8764 10.817C28.7594 7.55412 34.5003 5.81256 40.3732 5.81256C48.247 5.81322 55.7983 8.94106 61.3664 14.5083C66.9346 20.0755 70.0637 27.6262 70.0657 35.5001Z" fill="url(#paint0_radial_91_1794)"/>
<path d="M40.372 65.9651C34.3485 65.9646 28.4604 64.178 23.4522 60.8314C18.444 57.4847 14.5405 52.7281 12.2354 47.1631C9.93035 41.5982 9.32711 35.4746 10.502 29.5668C11.6769 23.659 14.5771 18.2322 18.836 13.9726C23.0949 9.71302 28.5212 6.81188 34.4289 5.63603C40.3365 4.46017 46.4601 5.06241 52.0255 7.36659C57.5908 9.67077 62.348 13.5734 65.6955 18.5811C69.043 23.5888 70.8305 29.4766 70.832 35.5001C70.8227 43.5762 67.6108 51.3189 61.9005 57.0301C56.1903 62.7412 48.4481 65.9545 40.372 65.9651ZM40.372 6.58006C34.6504 6.58006 29.0572 8.27682 24.3 11.4557C19.5427 14.6347 15.835 19.153 13.6458 24.4392C11.4565 29.7255 10.8841 35.5422 12.0009 41.1538C13.1177 46.7654 15.8735 51.9198 19.9198 55.965C23.9662 60.0103 29.1212 62.7648 34.7331 63.8801C40.345 64.9955 46.1616 64.4215 51.4473 62.2309C56.733 60.0403 61.2503 56.3315 64.428 51.5734C67.6057 46.8153 69.301 41.2217 69.2995 35.5001C69.2889 27.832 66.2376 20.4811 60.8147 15.0596C55.3918 9.6381 48.0401 6.58866 40.372 6.58006Z" fill="#39396C"/>
<path d="M69.2321 31.06L68.4121 31.9875C67.9013 31.4155 67.3534 30.8777 66.7721 30.3775L65.5221 30.5625L64.3721 29.265V30.8725L65.3571 31.6225L66.0121 32.3725L66.8871 31.3725C67.1071 31.785 67.3246 32.1975 67.5446 32.6225V33.86L66.5596 34.9725L64.7546 36.2225L63.3896 37.585L62.5146 36.585L62.9521 35.4725L62.0771 34.4725L60.5996 31.3175L59.3496 29.895L58.9996 30.25L59.4996 32.045L60.4271 33.0975C60.9265 34.615 61.5108 36.1031 62.1771 37.555C63.238 37.5392 64.2968 37.4557 65.3471 37.305V38.1725L64.0346 41.39L62.8321 42.75L61.8471 44.8575V48.325L62.1771 49.6875L61.6296 50.305L60.4246 51.055L59.1746 52.1075L60.2146 53.2825L58.7921 54.5325L59.0646 55.335L56.9321 57.75H55.4996L54.2971 58.5H53.5296V57.5L53.2046 55.5175C52.7821 54.2675 52.3396 53.04 51.8921 51.8075C51.8921 50.8975 51.9471 49.995 52.0021 49.085L52.5496 47.8475L51.7821 46.36L51.8371 44.3175L50.7971 43.1425L51.3171 41.4425L50.4721 40.4825H48.9996L48.4996 39.925L47.0221 40.855L46.4221 40.1725L45.0546 41.3475L42.2771 38.175L41.1846 35.575L42.1696 34.0925L41.6221 33.475L42.8246 30.6275C43.8121 29.4 44.8421 28.22 45.8871 27.0375L47.7471 26.5375L49.8246 26.2875L51.2471 26.66L53.2696 28.7L53.9796 27.8975L54.9621 27.775L56.8221 28.3925H58.2496L59.2346 27.525L59.6721 26.9075L58.6871 26.29L57.0471 26.1675C56.6183 25.5156 56.1437 24.8948 55.6271 24.31L55.0796 24.56L54.8596 26.17L53.8746 25.0575L53.6571 23.8075L52.5646 22.9425H52.1246L53.2196 24.18L52.7821 25.2925L51.9071 25.5425L52.4546 24.43L51.4696 23.93L50.5971 22.93L48.9546 23.3L48.7371 23.8L47.7521 24.42L47.2046 25.7825L45.8396 26.4625L45.2371 25.7825H44.5746V23.57L45.9971 22.82H47.0896L46.8696 21.955L45.9996 21.095L47.4746 20.785L48.2946 19.8575L48.9496 18.7425H50.1546L49.8246 17.8775L50.5921 17.3775V18.3775L52.2321 18.7475L53.8721 17.3875L53.9821 16.7675L55.4021 15.7675C54.8868 15.8144 54.3755 15.8979 53.8721 16.0175V14.9075L54.4196 13.6575H53.8721L52.6721 14.77L52.3421 15.39L52.6721 16.2575L52.1246 17.74L51.2496 17.24L50.4846 16.375L49.2796 17.24L48.8421 15.26L50.9196 13.9V13.15L52.2321 12.285L54.3096 11.785L55.7321 12.285L58.3546 12.785L57.6996 13.535H56.2746L57.6971 15.02L58.7896 13.7825L59.1221 13.2375C61.6563 15.557 63.8715 18.2026 65.7096 21.105C67.4908 24.1763 68.6853 27.552 69.2321 31.06Z" fill="#204A87" fill-opacity="0.713"/>
<path d="M42.153 13.7925L42.043 14.5425L42.8105 15.0425L44.1205 14.1775L43.4655 13.4275L42.5905 13.9275L42.1555 13.8025" fill="#204A87" fill-opacity="0.713"/>
<path d="M43.3574 8.71998L40.5124 7.60498L37.2324 7.97498L33.1849 9.08748L32.4199 9.83748L34.9349 11.57V12.57L33.9499 13.57L35.2624 16.17L36.1349 15.67L37.2299 13.9375C38.8738 13.429 40.4809 12.8084 42.0399 12.08L43.3524 8.73748" fill="#204A87" fill-opacity="0.713"/>
<path d="M46.3105 19.1176L45.873 18.0001L45.1055 18.2501L45.3255 19.6101L46.3105 19.1101" fill="#204A87" fill-opacity="0.713"/>
<path d="M46.75 18.8675L46.53 20.355L47.7325 20.105L48.6075 19.24L47.8425 18.49C47.5865 17.8148 47.2944 17.1539 46.9675 16.51H46.3125V17.26L46.7475 17.76V18.8725" fill="#204A87" fill-opacity="0.713"/>
<path d="M30.5625 42.3825L29.6875 40.65L28.0475 40.28L27.1725 37.93L24.985 38.18L23.1275 36.82L21.1575 38.5525V38.825C20.5184 38.7315 19.8941 38.5559 19.3 38.3025L18.8625 37.065V35.7L17.55 35.8225L17.8775 33.225H17.1125L16.3475 34.225L15.5825 34.595L14.5 33.9675L14.39 32.605L14.61 31.12L16.25 29.8825H17.55L17.7675 29.1325L19.4075 29.5025L20.61 30.99L20.83 28.5125L22.9075 26.78L23.6725 24.9225L25.2025 24.305L26.0775 23.0675L28.045 22.695L29.03 21.2125H26.08L27.94 20.345H29.25L31.11 19.725L31.33 18.975L30.6725 18.355L29.9075 18.105L30.1275 17.355L29.58 16.2425L28.2675 16.7425L28.4875 15.7425L26.9575 14.875L25.75 17L25.86 17.75L24.6575 18.25L23.8925 19.8575L23.565 18.3725L21.485 17.5L21.1575 16.3875L23.8925 14.7775L25.095 13.665L25.205 12.305L24.55 11.9325L23.675 11.8075L23.1275 13.17C23.1275 13.17 22.2125 13.35 21.9775 13.4075C16.1102 18.5404 12.3731 25.6809 11.5 33.4275C11.8047 34.0401 12.1462 34.6336 12.5225 35.205L14.8175 36.565L17.1125 37.185L18.0975 38.435L19.6275 39.5475L20.5025 39.425L21.1575 39.72V39.92L20.2825 42.27L19.625 43.27L19.845 43.77L19.2975 45.625L21.265 49.215L23.2325 50.9475L24.1075 52.185L24 54.75L24.6575 56.2325L24 59.0925C24 59.0925 23.9475 59.075 24.0325 59.36C25.1555 60.23 26.4117 60.913 27.7525 61.3825L28.155 61.075L27.9375 60.4575L28.8125 59.59L29.14 58.7225L30.5625 58.2225L31.655 55.5L31.3275 54.75L32.0925 53.6375L33.7325 53.265L34.6075 51.285L34.3875 48.81L35.7 46.9525L35.92 45.095C34.125 44.205 32.345 43.2875 30.5625 42.3725" fill="#204A87" fill-opacity="0.713"/>
<path d="M28.1572 14.2875L29.2497 15.0375H30.1247V14.165L29.0322 13.665L28.1572 14.2825" fill="#204A87" fill-opacity="0.713"/>
<path d="M25.3151 13.2975L24.7676 14.6575H25.8626L26.4101 13.4075C26.8826 13.075 27.3501 12.7375 27.8301 12.4075L28.9251 12.78L31.1126 14.265L32.2076 13.265L31.0026 12.765L30.4551 11.65L28.3776 11.4L28.2676 10.78L27.2826 11.03L26.8451 11.895L26.2976 10.78L26.0801 11.28L26.1901 12.53L25.3151 13.28" fill="#204A87" fill-opacity="0.713"/>
<path d="M29.2501 10.2026L29.7976 9.70258L30.8926 9.45258C31.636 9.10931 32.403 8.81941 33.1876 8.58508L32.7526 7.83508L31.3401 8.03758L30.6726 8.70258L29.5726 8.86258L28.5951 9.32258L28.1201 9.55258L27.8301 9.94008L29.2501 10.1901" fill="#204A87" fill-opacity="0.713"/>
<path d="M31.1107 21.9624L31.7682 20.9624L30.7832 20.2124L31.1107 21.9449" fill="#204A87" fill-opacity="0.713"/>
<path opacity="0.396" d="M40.3729 64.4575C34.6474 64.4575 29.0505 62.7598 24.2899 59.579C19.5292 56.3983 15.8186 51.8773 13.6273 46.5879C11.4359 41.2984 10.8621 35.4779 11.9786 29.8623C13.095 24.2468 15.8515 19.0884 19.8995 15.0394C23.9475 10.9903 29.1051 8.23252 34.7204 7.11463C40.3357 5.99674 46.1563 6.56898 51.4464 8.75898C56.7364 10.949 61.2583 14.6584 64.4403 19.4182C67.6222 24.1781 69.3214 29.7745 69.3229 35.5C69.3162 43.1766 66.2643 50.5371 60.8367 55.966C55.4092 61.395 48.0495 64.4488 40.3729 64.4575ZM40.3729 8.08745C34.9494 8.08745 29.6477 9.69579 25.1383 12.7091C20.629 15.7224 17.1145 20.0052 15.0394 25.016C12.9642 30.0268 12.4217 35.5404 13.4803 40.8596C14.5389 46.1788 17.1511 51.0645 20.9866 54.899C24.8222 58.7334 29.7086 61.3443 35.0281 62.4015C40.3475 63.4587 45.861 62.9146 50.8712 60.8381C55.8815 58.7616 60.1634 55.2459 63.1754 50.7357C66.1875 46.2255 67.7943 40.9234 67.7929 35.5C67.7829 28.2315 64.8906 21.2636 59.7503 16.1247C54.61 10.9858 47.6414 8.09538 40.3729 8.08745Z" fill="url(#paint1_radial_91_1794)"/>
<path d="M13.8518 25.6025C14.6409 26.7166 15.6438 27.6626 16.8021 28.3852C17.9605 29.1078 19.251 29.5926 20.5987 29.8114C21.9463 30.0302 23.324 29.9786 24.6514 29.6595C25.9789 29.3404 27.2295 28.7603 28.3305 27.953C29.4315 27.1457 30.3608 26.1273 31.0642 24.9572C31.7676 23.7871 32.2311 22.4886 32.4276 21.1376C32.6241 19.7865 32.5497 18.4099 32.2088 17.0879C31.8679 15.7659 31.2672 14.525 30.4418 13.4375C28.8123 11.2822 26.4002 9.8545 23.7267 9.4629C21.0533 9.07131 18.3331 9.74723 16.1539 11.3446C13.9746 12.942 12.5113 15.3326 12.0801 18C11.6489 20.6674 12.2844 23.3973 13.8493 25.6L13.8518 25.6025Z" fill="url(#paint2_radial_91_1794)"/>
<path d="M19.5903 21.3951C19.8365 21.7309 20.1465 22.015 20.5025 22.2311C20.8585 22.4471 21.2536 22.591 21.6652 22.6543C22.0768 22.7177 22.4968 22.6994 22.9013 22.6004C23.3058 22.5015 23.6869 22.3238 24.0228 22.0776C24.3586 21.8314 24.6427 21.5214 24.8588 21.1654C25.0748 20.8094 25.2186 20.4143 25.282 20.0027C25.3454 19.5911 25.3271 19.171 25.2281 18.7665C25.1292 18.362 24.9515 17.9809 24.7053 17.6451C24.208 16.9668 23.4616 16.5138 22.6304 16.3858C21.7991 16.2578 20.9511 16.4653 20.2728 16.9626C19.5945 17.4599 19.1415 18.2062 19.0135 19.0375C18.8855 19.8687 19.093 20.7168 19.5903 21.3951Z" fill="white"/>
<path d="M44.8796 62C45.9078 63.4333 47.21 64.6484 48.7108 65.5752C50.2116 66.5019 51.8813 67.1219 53.6233 67.3992C55.3653 67.6765 57.145 67.6057 58.8594 67.1908C60.5738 66.7758 62.1889 66.0251 63.6114 64.982C65.0338 63.9388 66.2352 62.624 67.1462 61.1136C68.0572 59.6031 68.6597 57.927 68.9187 56.1822C69.1778 54.4374 69.0883 52.6586 68.6555 50.9486C68.2227 49.2386 67.4551 47.6314 66.3971 46.22C64.3045 43.366 61.1639 41.4601 57.6661 40.9216C54.1683 40.3831 50.5999 41.2562 47.7458 43.3488C44.8918 45.4413 42.9859 48.5819 42.4474 52.0797C41.9089 55.5775 42.782 59.1459 44.8746 62H44.8796Z" fill="url(#paint3_radial_91_1794)"/>
<path d="M52.3199 56.54C52.6394 56.9755 53.0415 57.3438 53.5033 57.6239C53.965 57.904 54.4775 58.0904 55.0113 58.1725C55.5451 58.2545 56.0899 58.2307 56.6145 58.1022C57.139 57.9737 57.6332 57.7432 58.0687 57.4237C58.5042 57.1043 58.8725 56.7022 59.1526 56.2404C59.4327 55.7787 59.6191 55.2662 59.7012 54.7324C59.7832 54.1986 59.7593 53.6538 59.6309 53.1292C59.5024 52.6046 59.2719 52.1105 58.9524 51.675C58.3073 50.7955 57.3392 50.2083 56.2611 50.0425C55.183 49.8768 54.0832 50.1461 53.2037 50.7913C52.3242 51.4364 51.7369 52.4045 51.5712 53.4826C51.4055 54.5607 51.6748 55.6605 52.3199 56.54Z" fill="white"/>
<path d="M12.1482 46.2326C12.9471 47.3227 13.953 48.2448 15.1082 48.9462C16.2635 49.6476 17.5457 50.1146 18.8814 50.3206C20.2172 50.5265 21.5805 50.4673 22.8934 50.1463C24.2062 49.8254 25.4431 49.249 26.5332 48.4501C27.6233 47.6511 28.5454 46.6453 29.2469 45.49C29.9483 44.3347 30.4153 43.0526 30.6212 41.7168C30.8271 40.3811 30.7679 39.0178 30.447 37.7049C30.126 36.392 29.5496 35.1552 28.7507 34.0651C27.119 31.9152 24.7077 30.4926 22.0368 30.1041C19.3659 29.7156 16.6493 30.3923 14.4728 31.9884C12.2962 33.5844 10.834 35.9718 10.4015 38.636C9.96903 41.3001 10.6008 44.0275 12.1607 46.2301L12.1482 46.2326Z" fill="url(#paint4_radial_91_1794)"/>
<path d="M17.8842 42.0225C18.1304 42.3584 18.4404 42.6424 18.7964 42.8585C19.1524 43.0746 19.5475 43.2184 19.9591 43.2818C20.3707 43.3451 20.7908 43.3268 21.1953 43.2279C21.5998 43.1289 21.9809 42.9513 22.3167 42.705C22.6526 42.4588 22.9366 42.1488 23.1527 41.7928C23.3688 41.4368 23.5126 41.0417 23.576 40.6301C23.6393 40.2185 23.621 39.7985 23.5221 39.394C23.4231 38.9894 23.2454 38.6084 22.9992 38.2725C22.5019 37.5942 21.7556 37.1413 20.9243 37.0133C20.0931 36.8853 19.245 37.0927 18.5667 37.59C17.8884 38.0873 17.4355 38.8337 17.3075 39.6649C17.1795 40.4962 17.3869 41.3442 17.8842 42.0225Z" fill="white"/>
<path d="M31.0201 25.6726C31.8795 26.8557 32.9641 27.8574 34.2118 28.6201C35.4594 29.3829 36.8454 29.8916 38.2902 30.1172C39.735 30.3427 41.2101 30.2807 42.6309 29.9345C44.0516 29.5884 45.39 28.965 46.5691 28.1001C47.7482 27.2353 48.7449 26.146 49.5019 24.8949C50.2589 23.6438 50.7613 22.2555 50.9802 20.8096C51.1991 19.3638 51.1302 17.889 50.7775 16.4699C50.4249 15.0507 49.7953 13.7152 48.9251 12.5401C48.0657 11.357 46.981 10.3553 45.7334 9.59258C44.4858 8.82985 43.0997 8.32109 41.6549 8.09553C40.2101 7.86996 38.735 7.93203 37.3143 8.27817C35.8935 8.62432 34.5552 9.24771 33.376 10.1126C32.1969 10.9774 31.2002 12.0667 30.4432 13.3178C29.6862 14.5689 29.1839 15.9572 28.965 17.4031C28.746 18.8489 28.8149 20.3237 29.1676 21.7428C29.5203 23.162 30.1498 24.4975 31.0201 25.6726Z" fill="url(#paint5_radial_91_1794)"/>
<path d="M37.2125 21.1299C37.4772 21.4951 37.8115 21.8043 38.1961 22.0398C38.5807 22.2754 39.0081 22.4325 39.4537 22.5024C39.8993 22.5722 40.3542 22.5532 40.7925 22.4466C41.2307 22.34 41.6435 22.1478 42.0072 21.8811C42.3709 21.6145 42.6783 21.2785 42.9118 20.8926C43.1452 20.5067 43.3001 20.0785 43.3675 19.6326C43.4349 19.1866 43.4135 18.7318 43.3045 18.2941C43.1956 17.8565 43.0012 17.4447 42.7325 17.0824C42.4678 16.7173 42.1335 16.4081 41.7489 16.1725C41.3643 15.937 40.9369 15.7798 40.4913 15.71C40.0457 15.6402 39.5908 15.6591 39.1525 15.7658C38.7143 15.8724 38.3015 16.0645 37.9378 16.3312C37.5741 16.5979 37.2667 16.9339 37.0332 17.3197C36.7998 17.7056 36.6449 18.1339 36.5775 18.5798C36.5101 19.0257 36.5315 19.4806 36.6405 19.9182C36.7495 20.3559 36.9439 20.7677 37.2125 21.1299Z" fill="white"/>
<path d="M31.6999 65.595C30.3652 65.6749 29.0285 65.4744 27.7759 65.0064C26.5233 64.5383 25.3827 63.8131 24.4274 62.8775C21.5949 59.8525 21.4274 54.74 23.9274 48.485C27.0038 41.5097 31.526 35.2671 37.1949 30.17C50.1599 18.0375 64.8624 13.39 70.6749 19.5975C73.5074 22.625 73.6749 27.735 71.1749 33.99C68.0971 40.965 63.5742 47.2075 57.9049 52.305C52.4429 57.6243 45.914 61.7238 38.7499 64.3325C36.48 65.1177 34.1013 65.5437 31.6999 65.595ZM63.3549 18.2C56.6049 18.2 46.8549 22.97 38.1049 31.1575C32.5822 36.1236 28.176 42.205 25.1774 49C22.8749 54.75 22.9599 59.345 25.4124 61.9675C27.8649 64.59 32.4549 64.9675 38.3349 63.06C45.3113 60.5131 51.6679 56.5151 56.9849 51.33C62.5099 46.3685 66.9194 40.2914 69.9224 33.5C72.2249 27.75 72.1424 23.155 69.6849 20.5325C68.8501 19.7248 67.8559 19.1001 66.766 18.6985C65.676 18.2969 64.5143 18.1271 63.3549 18.2Z" fill="url(#paint6_linear_91_1794)"/>
<path d="M54.2026 55.235C45.9812 54.8316 37.9758 52.4666 30.8551 48.3375C15.2501 39.875 6.18259 27.3925 10.2351 19.92C12.2101 16.275 16.9851 14.4825 23.7351 14.89C31.3233 15.6035 38.6736 17.9196 45.3001 21.685C52.0736 25.1833 58.0273 30.0795 62.7676 36.05C66.7676 41.4675 67.8951 46.4575 65.9201 50.1025C64.0551 53.54 59.7876 55.235 54.2026 55.235ZM21.8976 16.185C16.6476 16.185 12.9676 17.715 11.4226 20.5625C7.79259 27.25 16.8001 39.185 31.5001 47.15C46.2001 55.115 61.1076 56.15 64.7351 49.46C66.4476 46.3025 65.3626 41.825 61.6851 36.855C57.0629 31.0425 51.2601 26.2768 44.6601 22.8725C38.2032 19.2037 31.0413 16.9465 23.6476 16.25C23.0493 16.2067 22.4659 16.185 21.8976 16.185Z" fill="url(#paint7_linear_91_1794)"/>
<path d="M25.0003 60.195C23.6923 60.273 22.3824 60.0763 21.1549 59.6178C19.9274 59.1593 18.8094 58.449 17.8728 57.5325C15.0978 54.565 14.9203 49.56 17.3728 43.435C20.3808 36.6149 24.8024 30.5112 30.3453 25.5275C43.0278 13.66 57.4203 9.12003 63.0953 15.1975C68.7828 21.275 63.3028 35.33 50.6203 47.1975C45.2798 52.3955 38.8966 56.4005 31.8928 58.9475C29.6743 59.7197 27.3488 60.1406 25.0003 60.195ZM55.9328 13.8825C49.3578 13.8825 39.8353 18.5425 31.2928 26.5375C25.8967 31.3824 21.5901 37.3173 18.6578 43.95C16.4078 49.5475 16.4928 54.035 18.8828 56.5875C21.2728 59.14 25.7453 59.5175 31.4778 57.6475C38.2895 55.1597 44.496 51.2554 49.6878 46.1925C61.6028 35.0425 67.1728 21.56 62.1003 16.1425C61.2857 15.358 60.3166 14.7519 59.2547 14.3628C58.1928 13.9737 57.0615 13.8101 55.9328 13.8825Z" fill="url(#paint8_linear_91_1794)"/>
<path d="M43.7798 48.5324C41.6298 48.5324 39.4098 48.4249 37.1323 48.1999C19.4598 46.46 6.26732 38.47 7.09982 30C7.93232 21.5425 22.4323 16.275 40.0998 18.0225C57.7673 19.77 70.9623 27.7525 70.1298 36.21C69.4073 43.59 58.3098 48.5324 43.7798 48.5324ZM8.44482 30.1425C7.69482 37.72 20.6273 45.2174 37.2648 46.8574C53.9023 48.4974 68.0448 43.665 68.7923 36.0875C69.5398 28.51 56.6098 21.015 39.9698 19.375C23.3298 17.735 9.19232 22.5675 8.44482 30.1425Z" fill="url(#paint9_linear_91_1794)"/>
<path d="M15.6273 74.915H32.3123V52.0225H39.7648L23.8698 28.585L8.2373 51.955L15.6323 52.0325L15.6273 74.915Z" fill="url(#paint10_radial_91_1794)"/>
<path d="M32.3103 75.1124H15.6278C15.6081 75.1114 15.589 75.1056 15.572 75.0956C15.5551 75.0856 15.5408 75.0717 15.5303 75.0549C15.5053 75.0174 15.4903 67.2174 15.4903 67.1649V52.2275L8.24032 52.1525C8.20918 52.1483 8.18012 52.1345 8.15725 52.113C8.13437 52.0915 8.11883 52.0633 8.11282 52.0324C8.10137 51.9972 8.0979 51.9599 8.10265 51.9231C8.10741 51.8864 8.12028 51.8511 8.14032 51.82L23.7703 28.45C23.7817 28.4326 23.7968 28.418 23.8145 28.4072C23.8323 28.3963 23.8522 28.3896 23.8728 28.3875C23.8931 28.3886 23.9128 28.3946 23.9302 28.4051C23.9477 28.4155 23.9623 28.4301 23.9728 28.4475L39.8653 51.8849C39.8858 51.9164 39.8988 51.9521 39.9036 51.9893C39.9083 52.0265 39.9047 52.0643 39.8928 52.1C39.8872 52.1309 39.8718 52.1593 39.8488 52.1809C39.8259 52.2025 39.7966 52.2162 39.7653 52.22H32.4503V74.9149C32.4503 75.0249 32.3878 75.1124 32.3103 75.1124ZM15.7653 74.7174H32.1703V52.0224C32.1703 51.9125 32.2328 51.8249 32.3103 51.8249H39.4353L23.8728 28.8725L8.56032 51.75L15.6353 51.8249C15.7128 51.8249 15.7728 51.9149 15.7728 52.0224L15.7653 74.7174Z" fill="#183868"/>
<path d="M47.6323 51.4675L40.2373 51.545L55.8723 74.915L71.7648 51.4775H64.3098V28.585H47.6273L47.6323 51.4675Z" fill="url(#paint11_radial_91_1794)"/>
<path d="M64.45 28.585V51.2799H71.7625C71.7938 51.2837 71.823 51.2974 71.846 51.319C71.8689 51.3406 71.8844 51.369 71.89 51.3999C71.9019 51.4356 71.9055 51.4734 71.9008 51.5106C71.896 51.5478 71.8829 51.5835 71.8625 51.615L55.97 75.0524C55.9595 75.0698 55.9449 75.0844 55.9274 75.0948C55.91 75.1053 55.8903 75.1113 55.87 75.1124C55.8494 75.1103 55.8294 75.1035 55.8117 75.0927C55.794 75.0819 55.7789 75.0673 55.7675 75.0499L40.1325 51.68C40.1125 51.6488 40.0996 51.6135 40.0948 51.5768C40.0901 51.54 40.0936 51.5027 40.105 51.4674C40.111 51.4366 40.1266 51.4084 40.1494 51.3869C40.1723 51.3654 40.2014 51.3516 40.2325 51.3474L47.4825 51.2725V36.335C47.4825 36.2825 47.4975 28.4825 47.5225 28.445C47.5329 28.4282 47.5472 28.4143 47.5642 28.4043C47.5812 28.3943 47.6003 28.3885 47.62 28.3875H64.305C64.3875 28.3875 64.45 28.475 64.45 28.585ZM47.77 51.4674C47.77 51.5749 47.7075 51.665 47.6325 51.665L40.5575 51.7399L55.87 74.6299L71.435 51.6774H64.31C64.2325 51.6774 64.17 51.5899 64.17 51.4799V28.7825H47.7675L47.77 51.4674Z" fill="#183868"/>
<defs>
<radialGradient id="paint0_radial_91_1794" cx="0" cy="0" r="1" gradientUnits="userSpaceOnUse" gradientTransform="translate(30.6932 23.6101) scale(45.9275)">
<stop stop-color="#D3E9FF"/>
<stop offset="0.155" stop-color="#D3E9FF"/>
<stop offset="0.75" stop-color="#4074AE"/>
<stop offset="1" stop-color="#36486C"/>
</radialGradient>
<radialGradient id="paint1_radial_91_1794" cx="0" cy="0" r="1" gradientUnits="userSpaceOnUse" gradientTransform="translate(26.6404 18.1374) scale(66.65)">
<stop stop-color="white"/>
<stop offset="1" stop-color="white" stop-opacity="0.165"/>
</radialGradient>
<radialGradient id="paint2_radial_91_1794" cx="0" cy="0" r="1" gradientUnits="userSpaceOnUse" gradientTransform="translate(22.1486 19.5155) rotate(143.734) scale(10.2875)">
<stop stop-color="white"/>
<stop offset="1" stop-color="white" stop-opacity="0"/>
</radialGradient>
<radialGradient id="paint3_radial_91_1794" cx="0" cy="0" r="1" gradientUnits="userSpaceOnUse" gradientTransform="translate(432.917 -1545.1) rotate(143.734) scale(142.883 143.03)">
<stop stop-color="white"/>
<stop offset="1" stop-color="white" stop-opacity="0"/>
</radialGradient>
<radialGradient id="paint4_radial_91_1794" cx="0" cy="0" r="1" gradientUnits="userSpaceOnUse" gradientTransform="translate(556.496 -684.971) rotate(143.734) scale(84.2455 84.1261)">
<stop stop-color="white"/>
<stop offset="1" stop-color="white" stop-opacity="0"/>
</radialGradient>
<radialGradient id="paint5_radial_91_1794" cx="0" cy="0" r="1" gradientUnits="userSpaceOnUse" gradientTransform="translate(510.372 -761.84) rotate(143.703) scale(98.9021 98.9453)">
<stop stop-color="white"/>
<stop offset="1" stop-color="white" stop-opacity="0"/>
</radialGradient>
<linearGradient id="paint6_linear_91_1794" x1="-3022.45" y1="2772.49" x2="-3130.52" y2="2550.2" gradientUnits="userSpaceOnUse">
<stop stop-color="white"/>
<stop offset="1" stop-color="white" stop-opacity="0"/>
</linearGradient>
<linearGradient id="paint7_linear_91_1794" x1="-918.977" y1="-2171.3" x2="-767.778" y2="-2361.45" gradientUnits="userSpaceOnUse">
<stop stop-color="white"/>
<stop offset="1" stop-color="white" stop-opacity="0"/>
</linearGradient>
<linearGradient id="paint8_linear_91_1794" x1="-2950.85" y1="2313.4" x2="-2844.4" y2="2436.65" gradientUnits="userSpaceOnUse">
<stop stop-color="white"/>
<stop offset="1" stop-color="white" stop-opacity="0"/>
</linearGradient>
<linearGradient id="paint9_linear_91_1794" x1="7482" y1="3321.54" x2="7466.23" y2="3429.19" gradientUnits="userSpaceOnUse">
<stop stop-color="white"/>
<stop offset="1" stop-color="white" stop-opacity="0"/>
</linearGradient>
<radialGradient id="paint10_radial_91_1794" cx="0" cy="0" r="1" gradientUnits="userSpaceOnUse" gradientTransform="translate(-37.2797 -10.5894) rotate(-90) scale(5.97687 5.11189)">
<stop stop-color="#729FCF"/>
<stop offset="1" stop-color="#3B61A6"/>
</radialGradient>
<radialGradient id="paint11_radial_91_1794" cx="0" cy="0" r="1" gradientUnits="userSpaceOnUse" gradientTransform="translate(-5.28174 114.089) rotate(90) scale(5.97687 5.11189)">
<stop stop-color="#729FCF"/>
<stop offset="1" stop-color="#509E2F"/>
</radialGradient>
</defs>
</svg>
