<svg width="44" height="63" viewBox="0 0 44 63" fill="none" xmlns="http://www.w3.org/2000/svg">
<path d="M43.9234 12.1629L39.9289 56.9123L21.9731 61.8901L4.06684 56.9192L0.076416 12.1629H43.9234Z" fill="#E44D26"/>
<path d="M22 58.0852L36.5092 54.0628L39.9226 15.8223H22V58.0852Z" fill="#F16529"/>
<path d="M14.2348 26.8008H22.0001V21.3116H8.23584L8.36715 22.7843L9.71637 37.911H22.0001V32.4218H14.7365L14.2348 26.8008Z" fill="#EBEBEB"/>
<path d="M15.4717 40.6556H9.96143L10.7304 49.2745L21.9746 52.3957L21.9999 52.3889V46.6778L21.9758 46.6842L15.8626 45.0335L15.4717 40.6556Z" fill="#EBEBEB"/>
<path d="M4.15601 0H6.94554V2.75601H9.49736V0H12.2871V8.3459H9.49754V5.55122H6.94571V8.3459H4.15618V0H4.15601Z" fill="black"/>
<path d="M15.9552 2.7677H13.4998V0H21.2022V2.7677H18.7452V8.3459H15.9557V2.7677H15.9555H15.9552Z" fill="black"/>
<path d="M22.4246 0H25.3332L27.1224 2.93253L28.9099 0H31.8198V8.3459H29.0416V4.20922L27.1224 7.17664H27.0743L25.1539 4.20922V8.3459H22.4246V0Z" fill="black"/>
<path d="M33.2079 0H35.9983V5.58731H39.9212V8.3459H33.2078V0H33.2079Z" fill="black"/>
<path d="M21.9811 37.911H28.7405L28.1031 45.03L21.981 46.6825V52.3932L33.2341 49.2745L33.3166 48.3471L34.6067 33.8958L34.7406 32.4218H21.9811V37.911Z" fill="white"/>
<path d="M21.9812 26.7874V26.8008H35.2402L35.3502 25.5671L35.6004 22.7843L35.7315 21.3116H21.9812V26.7876V26.7874Z" fill="white"/>
</svg>
