<svg width="75" height="87" viewBox="0 0 75 87" fill="none" xmlns="http://www.w3.org/2000/svg">
    <path d="M75 5.8L68.1674 78.8716L37.4541 87L6.82559 78.8829L0 5.8H75Z" fill="#E44D26" />
    <path d="M36.8418 81.2L62.4064 74.5758L68.4207 11.6H36.8418V81.2Z" fill="#F27A46" />
    <path d="M24.7961 29.4104H38.1578V20.3H14.4736L14.6996 22.7441L17.0212 47.85H38.1578V38.7396H25.6593L24.7961 29.4104Z" fill="#EBEBEB" />
    <path d="M26.7418 52.2H17.1055L18.4502 66.0385L38.1139 71.05L38.1581 71.039V61.8692L38.116 61.8794L27.4253 59.2291L26.7418 52.2Z" fill="#EBEBEB" />
    <path d="M36.8421 47.9178H48.6916L47.5743 59.289L36.8418 61.9283V71.05L56.5693 66.0686L56.7139 64.5872L58.9755 41.5044L59.2102 39.15H36.8421V47.9178Z" fill="white" />
    <path d="M36.8418 28.9788V29H59.6796L59.8691 27.0446L60.3001 22.634L60.526 20.3H36.8418V28.979V28.9788Z" fill="white" />
</svg>
