<svg width="57" height="57" viewBox="0 0 57 57" fill="none" xmlns="http://www.w3.org/2000/svg">
<path d="M3.5625 3.5625H53.4375V53.4375H3.5625V3.5625Z" fill="#F5DE19"/>
<path d="M37.066 42.5273C37.491 43.3905 38.1512 44.1161 38.9706 44.6203C39.79 45.1245 40.7352 45.387 41.6973 45.3773C43.6388 45.3773 44.8803 44.4066 44.8803 43.0617C44.8803 41.4586 43.605 40.885 41.4675 39.9499L40.2954 39.4476C36.911 38.0065 34.6667 36.2021 34.6667 32.3867C34.6667 28.8723 37.3385 26.1951 41.5298 26.1951C42.8866 26.0971 44.2422 26.4007 45.4275 27.0682C46.6129 27.7356 47.5755 28.7372 48.1953 29.9482L44.5312 32.2905C44.2926 31.6901 43.877 31.1764 43.3397 30.8175C42.8024 30.4587 42.1687 30.2717 41.5227 30.2812C41.2408 30.253 40.9562 30.2838 40.6869 30.3717C40.4176 30.4596 40.1695 30.6026 39.9586 30.7916C39.7476 30.9806 39.5783 31.2115 39.4615 31.4696C39.3447 31.7277 39.2829 32.0072 39.2801 32.2905C39.2801 33.6959 40.1511 34.2659 42.1622 35.1405L43.3342 35.6428C47.3171 37.351 49.5686 39.0913 49.5686 43.0047C49.5686 47.2245 46.2537 49.5366 41.8024 49.5366C40.068 49.6471 38.3386 49.2533 36.8231 48.4027C35.3075 47.5522 34.0705 46.2812 33.2613 44.7432L37.066 42.5273ZM20.5093 42.9335C21.2449 44.2391 21.9147 45.3435 23.5249 45.3435C25.0639 45.3435 26.0365 44.7414 26.0365 42.3991V26.4622H30.723V42.4614C30.723 47.3136 27.873 49.5223 23.7244 49.5223C22.258 49.6025 20.8017 49.237 19.5469 48.474C18.292 47.711 17.2974 46.5861 16.6938 45.2473L20.5093 42.9335Z" fill="black"/>
</svg>
