<svg width="51" height="53" viewBox="0 0 51 53" fill="none" xmlns="http://www.w3.org/2000/svg">
<g clip-path="url(#clip0_20_1092)">
<path d="M50.9634 11.9692C50.9823 12.0397 50.9921 12.1123 50.9921 12.1854V23.5419C50.9921 23.8386 50.8347 24.1126 50.5792 24.2602L41.1239 29.7483V40.6253C41.1239 40.7709 41.086 40.9139 41.0139 41.04C40.9418 41.1661 40.8381 41.2709 40.7132 41.3438L20.9752 52.7977C20.93 52.8234 20.8808 52.8398 20.8314 52.8577C20.8129 52.8637 20.7956 52.8751 20.776 52.8804C20.6381 52.917 20.493 52.917 20.355 52.8804C20.3323 52.8743 20.3118 52.8617 20.2903 52.8535C20.2451 52.8368 20.1979 52.8223 20.1549 52.7977L0.420847 41.3436C0.295447 41.2711 0.191248 41.1665 0.118763 41.0403C0.0462775 40.9142 0.00807036 40.7711 0.00799561 40.6253L0.00799561 6.55596C0.00799561 6.48128 0.0183517 6.4088 0.0366741 6.33854C0.042848 6.31465 0.0571873 6.29297 0.0655518 6.26908C0.0808869 6.22571 0.0954253 6.18115 0.11793 6.14079C0.133265 6.11389 0.15577 6.09221 0.174291 6.06732C0.197991 6.03419 0.2195 6.00006 0.247183 5.97095C0.270882 5.94726 0.301751 5.9296 0.328438 5.90892C0.358312 5.88402 0.3848 5.85712 0.418656 5.83745H0.419652L10.2871 0.110638C10.412 0.0381509 10.5537 0 10.6978 0C10.842 0 10.9836 0.0381509 11.1086 0.110638L20.976 5.83745H20.978C21.0108 5.85833 21.0387 5.88402 21.0684 5.90791C21.0951 5.92859 21.125 5.94726 21.1485 5.97015C21.1773 6.00006 21.1979 6.03439 21.2223 6.06732C21.2399 6.09221 21.2636 6.11389 21.2779 6.14079C21.3014 6.18215 21.3148 6.22571 21.3313 6.26928C21.3395 6.29297 21.3538 6.31465 21.36 6.33954C21.3789 6.41001 21.3886 6.48288 21.3888 6.55596V27.8351L29.6112 23.0624V12.1844C29.6112 12.1121 29.6216 12.0384 29.6401 11.9692C29.6473 11.9443 29.6606 11.9226 29.6688 11.8989C29.6853 11.8554 29.6996 11.8106 29.7221 11.7704C29.7375 11.7435 29.76 11.7219 29.7777 11.697C29.8022 11.6638 29.8227 11.6297 29.8514 11.6006C29.8753 11.5769 29.905 11.5592 29.9317 11.5386C29.9625 11.5137 29.9892 11.4868 30.0221 11.4671H30.0231L39.8915 5.74028C40.0164 5.6677 40.158 5.62949 40.3022 5.62949C40.4464 5.62949 40.5881 5.6677 40.713 5.74028L50.5804 11.4671C50.6153 11.4878 50.6419 11.5137 50.6728 11.5374C50.6983 11.5582 50.7282 11.5769 50.7519 11.5996C50.7806 11.6297 50.8011 11.6638 50.8256 11.697C50.8443 11.7219 50.8668 11.7435 50.8813 11.7704C50.9048 11.8106 50.9182 11.8554 50.9345 11.8989C50.9439 11.9226 50.9572 11.9443 50.9634 11.9692ZM49.3472 23.0626V13.619L45.8941 15.6228L41.1237 18.3916V27.8353L49.3482 23.0626H49.3472ZM39.4798 40.1461V30.6959L34.7873 33.3974L21.3878 41.1065V50.6453L39.4798 40.1457V40.1461ZM1.65283 7.98937V40.1461L19.7428 50.6445V41.1075L10.2924 35.716L10.2895 35.714L10.2855 35.712C10.2536 35.6933 10.2267 35.6664 10.197 35.6437C10.1712 35.6228 10.1415 35.6064 10.119 35.5835L10.117 35.5805C10.0903 35.5546 10.0718 35.5225 10.0493 35.4936C10.0286 35.4655 10.0041 35.4418 9.98753 35.4129L9.98653 35.4096C9.96801 35.3787 9.95666 35.3414 9.94332 35.3063C9.92997 35.2751 9.91265 35.246 9.90428 35.2131V35.2121C9.89412 35.1727 9.89213 35.1312 9.88795 35.0908C9.88397 35.0599 9.8756 35.0288 9.8756 34.9977V12.7622L5.106 9.99213L1.65283 7.99057V7.98937ZM10.6989 1.78536L2.47734 6.55596L10.6969 11.3264L18.9173 6.55476L10.6969 1.78536H10.6989ZM14.9744 31.5573L19.7438 28.7897V7.98937L16.291 9.99333L11.5202 12.762V33.5621L14.9744 31.5573ZM40.3021 7.415L32.0818 12.1854L40.3021 16.956L48.5215 12.1844L40.3023 7.415H40.3021ZM39.4796 18.3916L34.7092 15.6228L31.2562 13.619V23.0626L36.0257 25.8305L39.4798 27.8353V18.3916H39.4796ZM20.5643 39.6731L32.6219 32.7341L38.6491 29.2667L30.4347 24.4993L20.977 29.988L12.3571 34.9905L20.5643 39.6731Z" fill="#FF2D20"/>
</g>
<defs>
<clipPath id="clip0_20_1092">
<rect width="51" height="53" fill="white"/>
</clipPath>
</defs>
</svg>
