<svg width="24" height="24" viewBox="0 0 24 24" fill="none" xmlns="http://www.w3.org/2000/svg">
<path d="M15.15 8.39994C14.3836 8.39731 13.6242 8.54583 12.9152 8.83701C12.2062 9.12819 11.5616 9.55632 11.0182 10.0969C10.4749 10.6375 10.0434 11.2799 9.74861 11.9873C9.45379 12.6948 9.30136 13.4535 9.30005 14.2199V20.0999C9.30005 20.3386 9.39487 20.5676 9.56365 20.7363C9.73244 20.9051 9.96135 20.9999 10.2 20.9999H12.3C12.5387 20.9999 12.7677 20.9051 12.9364 20.7363C13.1052 20.5676 13.2 20.3386 13.2 20.0999V14.2199C13.1999 13.9473 13.2571 13.6778 13.3681 13.4288C13.4791 13.1798 13.6413 12.957 13.8441 12.7749C14.047 12.5928 14.2859 12.4555 14.5454 12.3719C14.8049 12.2884 15.0791 12.2604 15.35 12.2899C15.8361 12.3512 16.2827 12.5886 16.6053 12.9572C16.9278 13.3259 17.1039 13.8001 17.1 14.2899V20.0999C17.1 20.3386 17.1949 20.5676 17.3637 20.7363C17.5324 20.9051 17.7614 20.9999 18 20.9999H20.1C20.3387 20.9999 20.5677 20.9051 20.7364 20.7363C20.9052 20.5676 21 20.3386 21 20.0999V14.2199C20.9987 13.4535 20.8463 12.6948 20.5515 11.9873C20.2567 11.2799 19.8252 10.6375 19.2819 10.0969C18.7385 9.55632 18.0939 9.12819 17.3849 8.83701C16.6759 8.54583 15.9165 8.39731 15.15 8.39994Z" fill="#27A8E0"/>
<path d="M6.6 9.30005H3.9C3.40294 9.30005 3 9.70299 3 10.2V20.1C3 20.5971 3.40294 21 3.9 21H6.6C7.09706 21 7.5 20.5971 7.5 20.1V10.2C7.5 9.70299 7.09706 9.30005 6.6 9.30005Z" fill="#27A8E0"/>
<path d="M5.25 7.5C6.49264 7.5 7.5 6.49264 7.5 5.25C7.5 4.00736 6.49264 3 5.25 3C4.00736 3 3 4.00736 3 5.25C3 6.49264 4.00736 7.5 5.25 7.5Z" fill="#27A8E0"/>
</svg>
