<svg width="85" height="52" viewBox="0 0 85 52" fill="none" xmlns="http://www.w3.org/2000/svg">
<g clip-path="url(#clip0_10_157)">
<path d="M42.0204 51.8499C41.7327 51.8499 41.4641 51.7734 41.2145 51.6395L38.6627 50.1275C38.2789 49.9168 38.4708 49.8403 38.586 49.8021C39.104 49.6298 39.2 49.5914 39.7372 49.2854C39.7948 49.247 39.8717 49.2662 39.9291 49.3044L41.8862 50.4719C41.9629 50.5102 42.0589 50.5102 42.1163 50.4719L49.772 46.0506C49.8487 46.0124 49.8872 45.9357 49.8872 45.8401V37.0167C49.8872 36.9208 49.8487 36.8445 49.772 36.806L42.1163 32.4039C42.0396 32.3655 41.9437 32.3655 41.8862 32.4039L34.2305 36.806C34.1538 36.8443 34.1153 36.94 34.1153 37.0165V45.84C34.1153 45.9166 34.1538 46.0122 34.2305 46.0506L36.322 47.2564C37.454 47.8305 38.1639 47.1607 38.1639 46.4908V37.7821C38.1639 37.6673 38.2598 37.5524 38.3941 37.5524H39.3726C39.4878 37.5524 39.6029 37.6481 39.6029 37.7821V46.4908C39.6029 48.0028 38.7778 48.8833 37.3388 48.8833C36.8975 48.8833 36.5522 48.8833 35.5736 48.4047L33.559 47.2564C33.0601 46.9694 32.7532 46.4333 32.7532 45.8592V37.0357C32.7532 36.4616 33.0601 35.9255 33.559 35.6385L41.2145 31.2172C41.6943 30.9492 42.3467 30.9492 42.8264 31.2172L50.4819 35.6385C50.9808 35.9255 51.2879 36.4616 51.2879 37.0357V45.8592C51.2879 46.4333 50.9808 46.9694 50.4819 47.2564L42.8264 51.6777C42.5768 51.7926 42.2891 51.8499 42.0205 51.8499H42.0204ZM44.3804 45.7827C41.0228 45.7827 40.332 44.2515 40.332 42.95C40.332 42.8351 40.428 42.7203 40.5623 42.7203H41.56C41.6751 42.7203 41.771 42.7968 41.771 42.9117C41.9246 43.9261 42.3658 44.4237 44.3997 44.4237C46.0113 44.4237 46.7023 44.06 46.7023 43.1987C46.7023 42.7011 46.5102 42.3376 43.9968 42.0887C41.9053 41.878 40.6006 41.4188 40.6006 39.7536C40.6006 38.2032 41.9055 37.2845 44.0927 37.2845C46.5485 37.2845 47.7574 38.1267 47.911 39.964C47.911 40.0216 47.8918 40.0789 47.8534 40.1364C47.8149 40.1746 47.7575 40.2129 47.6998 40.2129H46.7021C46.6061 40.2129 46.5102 40.1364 46.4911 40.0406C46.2608 38.9881 45.666 38.6434 44.0927 38.6434C42.3275 38.6434 42.1163 39.256 42.1163 39.7152C42.1163 40.2703 42.3658 40.4426 44.745 40.7488C47.105 41.0551 48.218 41.4953 48.218 43.1413C48.1987 44.8256 46.8173 45.7827 44.3804 45.7827Z" fill="#539E43"/>
<path d="M18.2668 17.3408C18.2668 16.9963 18.0749 16.6708 17.7679 16.4985L9.63263 11.8285C9.49816 11.7518 9.34477 11.7135 9.19137 11.6943H9.11451C8.96111 11.6943 8.80755 11.7518 8.67324 11.8285L0.537932 16.4985C0.230808 16.6708 0.0390625 16.9962 0.0390625 17.3408L0.05832 29.8965C0.05832 30.0687 0.154276 30.2409 0.307672 30.3176C0.461234 30.4133 0.652979 30.4133 0.78745 30.3176L5.62258 27.5615C5.92954 27.3892 6.12145 27.0638 6.12145 26.7194V20.8434C6.12145 20.4989 6.3132 20.1735 6.62032 20.0013L8.67324 18.8145C8.82681 18.7188 8.99946 18.6804 9.17211 18.6804C9.34477 18.6804 9.51742 18.7188 9.65189 18.8145L11.7048 20.0013C12.0119 20.1735 12.2037 20.4987 12.2037 20.8434V26.7194C12.2037 27.0638 12.3956 27.3892 12.7025 27.5615L17.5377 30.3176C17.6912 30.4133 17.883 30.4133 18.0366 30.3176C18.1901 30.2409 18.2861 30.0687 18.2861 29.8965L18.2668 17.3408Z" fill="#333333"/>
<path d="M57.3701 0.0574453C57.2167 -0.0192298 57.0248 -0.0192298 56.8903 0.0574453C56.7369 0.153165 56.6409 0.306184 56.6409 0.478413V12.9195C56.6409 13.0343 56.5835 13.149 56.4683 13.2257C56.3532 13.283 56.238 13.283 56.123 13.2257L54.0892 12.0582C53.94 11.9735 53.7714 11.929 53.5998 11.929C53.4282 11.929 53.2596 11.9735 53.1105 12.0582L44.9752 16.7475C44.6682 16.9197 44.4763 17.2451 44.4763 17.5896V26.9489C44.4763 27.2934 44.6682 27.6189 44.9752 27.7912L53.1105 32.4804C53.2596 32.5651 53.4282 32.6097 53.5998 32.6097C53.7714 32.6097 53.94 32.5651 54.0892 32.4804L62.2245 27.7912C62.5314 27.6189 62.7233 27.2935 62.7233 26.9489V3.61746C62.7233 3.25379 62.5314 2.92854 62.2245 2.75615L57.3702 0.0574453H57.3701ZM56.6218 23.8675C56.6218 23.9632 56.5835 24.0397 56.5066 24.078L53.7246 25.6857C53.6857 25.7046 53.6431 25.7144 53.5998 25.7144C53.5566 25.7144 53.5139 25.7046 53.4751 25.6857L50.693 24.078C50.6162 24.0397 50.5778 23.944 50.5778 23.8675V20.6519C50.5778 20.5562 50.6162 20.4797 50.693 20.4414L53.4751 18.8336C53.5139 18.8147 53.5566 18.8048 53.5998 18.8048C53.6431 18.8048 53.6857 18.8147 53.7246 18.8336L56.5066 20.4414C56.5835 20.4795 56.6218 20.5754 56.6218 20.6519V23.8675Z" fill="#333333"/>
<path d="M84.4431 20.5754C84.7502 20.4032 84.9228 20.0778 84.9228 19.7332V17.4556C84.9228 17.1112 84.7309 16.7857 84.4431 16.6135L76.3653 11.9434C76.2163 11.8588 76.0477 11.8143 75.8761 11.8143C75.7046 11.8143 75.5359 11.8588 75.3869 11.9434L67.2516 16.6326C66.9444 16.8048 66.7527 17.1302 66.7527 17.4748V26.8342C66.7527 27.1786 66.9444 27.504 67.2516 27.6763L75.3293 32.2698C75.6364 32.442 76.0008 32.442 76.2886 32.2698L81.1812 29.5522C81.3348 29.4756 81.4307 29.3033 81.4307 29.1311C81.4307 28.9589 81.3348 28.7866 81.1812 28.71L73.0076 24.0207C72.8542 23.9251 72.7582 23.772 72.7582 23.5997V20.6713C72.7582 20.4991 72.8542 20.3269 73.0076 20.2502L75.5595 18.7955C75.6342 18.7486 75.7207 18.7237 75.809 18.7237C75.8972 18.7237 75.9837 18.7486 76.0584 18.7955L78.6102 20.2502C78.7637 20.3459 78.8597 20.4989 78.8597 20.6713V22.9681C78.8597 23.1403 78.9557 23.3126 79.109 23.3891C79.2626 23.4848 79.4544 23.4848 79.6079 23.3891L84.4431 20.5754Z" fill="#333333"/>
<path d="M75.7515 20.1352C75.7799 20.1165 75.8133 20.1066 75.8474 20.1066C75.8814 20.1066 75.9148 20.1165 75.9432 20.1352L77.4974 21.0348C77.555 21.0729 77.5934 21.1304 77.5934 21.207V23.0062C77.5934 23.0827 77.555 23.1401 77.4974 23.1784L75.9432 24.078C75.9148 24.0967 75.8814 24.1066 75.8474 24.1066C75.8133 24.1066 75.7799 24.0967 75.7515 24.078L74.1973 23.1784C74.1397 23.1401 74.1013 23.0827 74.1013 23.0062V21.207C74.1013 21.1304 74.1397 21.0729 74.1973 21.0348L75.7515 20.1352Z" fill="#539E43"/>
<mask id="mask0_10_157" style="mask-type:alpha" maskUnits="userSpaceOnUse" x="22" y="11" width="19" height="22">
<path d="M31.8704 11.9817C31.7213 11.897 31.5527 11.8525 31.3812 11.8525C31.2096 11.8525 31.041 11.897 30.892 11.9817L22.8143 16.6323C22.5071 16.8046 22.3345 17.13 22.3345 17.4744V26.7957C22.3345 27.1401 22.5264 27.4656 22.8143 27.6378L30.892 32.2888C31.041 32.3735 31.2096 32.418 31.3812 32.418C31.5527 32.418 31.7213 32.3735 31.8704 32.2888L39.9483 27.6378C40.2553 27.4656 40.4281 27.1401 40.4281 26.7957V17.4746C40.4281 17.1302 40.236 16.8047 39.9483 16.6325L31.8704 11.9817Z" fill="white"/>
</mask>
<g mask="url(#mask0_10_157)">
<path d="M31.8704 11.9817C31.7213 11.897 31.5527 11.8525 31.3812 11.8525C31.2096 11.8525 31.041 11.897 30.892 11.9817L22.8143 16.6323C22.5071 16.8046 22.3345 17.13 22.3345 17.4744V26.7957C22.3345 27.1401 22.5264 27.4656 22.8143 27.6378L30.892 32.2888C31.041 32.3735 31.2096 32.418 31.3812 32.418C31.5527 32.418 31.7213 32.3735 31.8704 32.2888L39.9483 27.6378C40.2553 27.4656 40.4281 27.1401 40.4281 26.7957V17.4746C40.4281 17.1302 40.236 16.8047 39.9483 16.6325L31.8704 11.9817Z" fill="url(#paint0_linear_10_157)"/>
<path d="M39.9674 16.6325L31.8513 11.9816C31.7716 11.9415 31.688 11.9094 31.6018 11.8859L22.5071 27.4276C22.5824 27.5194 22.6734 27.5971 22.7759 27.6573L30.8919 32.3083C31.1222 32.4423 31.3908 32.4806 31.6401 32.4039L40.1785 16.8241C40.1209 16.7476 40.0441 16.69 39.9674 16.6327V16.6325Z" fill="url(#paint1_linear_10_157)"/>
<path fill-rule="evenodd" clip-rule="evenodd" d="M39.9868 27.638C40.217 27.504 40.3897 27.2743 40.4666 27.0256L31.5634 11.8667C31.3332 11.8285 31.0837 11.8475 30.8728 11.9815L22.8142 16.6135L31.5058 32.423C31.6322 32.4023 31.755 32.3637 31.8704 32.3082L39.9866 27.6381L39.9868 27.638Z" fill="url(#paint2_linear_10_157)"/>
<path fill-rule="evenodd" clip-rule="evenodd" d="M39.9867 27.638L31.8897 32.289C31.7754 32.3471 31.6522 32.3859 31.5251 32.4038L31.6787 32.6909L40.6582 27.5042V27.3892L40.4279 27.0063C40.3896 27.2743 40.2169 27.504 39.9867 27.638Z" fill="url(#paint3_linear_10_157)"/>
<path fill-rule="evenodd" clip-rule="evenodd" d="M39.9867 27.638L31.8897 32.289C31.7754 32.3471 31.6522 32.3859 31.5251 32.4038L31.6787 32.6909L40.6582 27.5042V27.3892L40.4279 27.0063C40.3896 27.2743 40.2169 27.504 39.9867 27.638Z" fill="url(#paint4_linear_10_157)"/>
</g>
</g>
<defs>
<linearGradient id="paint0_linear_10_157" x1="34.6721" y1="15.4488" x2="25.8492" y2="29.3464" gradientUnits="userSpaceOnUse">
<stop stop-color="#41873F"/>
<stop offset="0.3288" stop-color="#418B3D"/>
<stop offset="0.6352" stop-color="#419637"/>
<stop offset="0.9319" stop-color="#3FA92D"/>
<stop offset="1" stop-color="#3FAE2A"/>
</linearGradient>
<linearGradient id="paint1_linear_10_157" x1="30.1548" y1="23.2271" x2="52.3041" y2="11.1636" gradientUnits="userSpaceOnUse">
<stop offset="0.1376" stop-color="#41873F"/>
<stop offset="0.4032" stop-color="#54A044"/>
<stop offset="0.7136" stop-color="#66B848"/>
<stop offset="0.9081" stop-color="#6CC04A"/>
</linearGradient>
<linearGradient id="paint2_linear_10_157" x1="22.0394" y1="22.1355" x2="40.7312" y2="22.1355" gradientUnits="userSpaceOnUse">
<stop offset="0.09192" stop-color="#6CC04A"/>
<stop offset="0.2864" stop-color="#66B848"/>
<stop offset="0.5968" stop-color="#54A044"/>
<stop offset="0.8624" stop-color="#41873F"/>
</linearGradient>
<linearGradient id="paint3_linear_10_157" x1="22.0395" y1="29.8643" x2="40.731" y2="29.8643" gradientUnits="userSpaceOnUse">
<stop offset="0.09192" stop-color="#6CC04A"/>
<stop offset="0.2864" stop-color="#66B848"/>
<stop offset="0.5968" stop-color="#54A044"/>
<stop offset="0.8624" stop-color="#41873F"/>
</linearGradient>
<linearGradient id="paint4_linear_10_157" x1="43.4541" y1="15.008" x2="38.7412" y2="39.7641" gradientUnits="userSpaceOnUse">
<stop stop-color="#41873F"/>
<stop offset="0.3288" stop-color="#418B3D"/>
<stop offset="0.6352" stop-color="#419637"/>
<stop offset="0.9319" stop-color="#3FA92D"/>
<stop offset="1" stop-color="#3FAE2A"/>
</linearGradient>
<clipPath id="clip0_10_157">
<rect width="85" height="52" fill="white"/>
</clipPath>
</defs>
</svg>
