<svg width="63" height="63" viewBox="0 0 63 63" fill="none" xmlns="http://www.w3.org/2000/svg">
<path d="M28.5192 40.1251C28.6752 42.1797 28.6449 44.2441 28.4287 46.2932C28.4196 46.5812 28.3349 46.8617 28.1833 47.1067C28.0316 47.3517 27.8181 47.5525 27.5644 47.689C25.9284 48.9038 20.4454 49.1951 19.7622 46.6141C19.5102 46.6043 19.711 45.7695 19.4709 45.801C18.9913 45.7616 18.5276 45.6101 18.1173 45.3588C17.707 45.1075 17.3614 44.7633 17.1084 44.354C17.1182 41.5308 17.4293 31.3464 12.3834 34.0889C11.2869 34.7 10.4645 35.7061 10.0839 36.9023C9.74387 37.9458 9.58408 39.0397 9.61136 40.1369C9.57199 41.5426 9.92242 43.0802 9.97361 44.7674C9.9933 45.5214 10.1134 45.7124 9.5523 46.3542C8.64864 47.3878 7.07167 46.5157 6.2192 45.3797C5.85869 44.8075 5.66065 44.1481 5.6463 43.472C4.96831 36.0972 5.63538 28.6607 7.61505 21.5244C8.33758 19.1028 8.58958 18.7523 10.8891 18.209C13.5056 17.6335 16.1964 17.474 18.8625 17.7365C20.9317 17.0632 25.8417 13.417 27.9601 16.3111C31.1744 15.5975 34.499 15.5346 37.7379 16.1264C40.9768 16.7181 44.0645 17.9524 46.8188 19.7564C49.6085 19.9676 52.4081 20.0182 55.2037 19.908C55.5974 19.656 56.0581 19.3863 56.4597 19.154C56.7545 18.9543 57.0856 18.8145 57.4343 18.7425C57.8871 18.6716 58.4777 18.6519 58.6155 19.215C58.7354 19.7928 58.7758 20.3843 58.7356 20.9731C58.7219 21.328 58.5899 21.6682 58.3605 21.9393C58.131 22.2105 57.8175 22.3971 57.4697 22.4694C56.6838 22.3403 55.9218 22.0934 55.2096 21.737C52.6502 21.8079 51.0752 21.6661 48.5158 21.737C48.9273 22.178 48.9096 22.4693 49.2088 23.0521C49.9444 24.9879 50.19 27.0756 49.9238 29.1292C49.6576 31.1829 48.8879 33.139 47.683 34.8233C47.5019 37.7567 47.7224 40.7197 47.7441 43.6629C47.7539 44.6768 47.8248 45.6415 46.8699 46.3148C46.0278 46.8197 45.0811 47.1249 44.1026 47.2068C43.1242 47.2887 42.1399 47.1452 41.2255 46.7873C40.7272 46.5013 40.2822 46.1309 39.9104 45.6927C39.5835 45.7286 39.2541 45.7352 38.926 45.7124C38.3683 45.5565 37.8862 45.2031 37.5696 44.7182C37.3881 44.3865 37.2334 44.0409 37.1069 43.6846C37.1069 42.3065 37.0557 41.767 37.0557 40.3909C34.2174 40.8989 31.3049 40.8171 28.4995 40.1507L28.5192 40.1251Z" fill="#CCCCCC"/>
<path d="M23.8121 48.9018C22.9989 48.9139 22.1894 48.7915 21.4161 48.5395C20.9869 48.4243 20.5904 48.2105 20.2582 47.9152C19.926 47.62 19.6673 47.2513 19.5025 46.8385C19.359 46.6597 19.2886 46.4332 19.3056 46.2046V46.116C18.8052 46.041 18.3267 45.8597 17.9022 45.5843C17.4777 45.3089 17.1171 44.9457 16.8447 44.5193L16.7974 44.4426V43.9307C16.8152 41.6036 16.8604 35.4198 14.7618 34.1617C14.4085 33.9901 14.0153 33.9178 13.6241 33.9525C13.2329 33.9871 12.8585 34.1275 12.541 34.3586C11.5066 34.935 10.7318 35.8852 10.3754 37.0145C10.0508 38.0239 9.89904 39.0809 9.9265 40.1408C9.92658 40.9313 9.9825 41.7208 10.0938 42.5033C10.1785 43.2239 10.2651 43.972 10.2907 44.7576C10.2907 44.8737 10.2907 44.9741 10.3045 45.0647C10.3493 45.337 10.326 45.6161 10.2367 45.8772C10.1474 46.1383 9.99482 46.3732 9.79263 46.5609C9.63272 46.7498 9.4314 46.8992 9.20432 46.9975C8.97725 47.0959 8.73054 47.1405 8.48341 47.1279C7.9789 47.0582 7.49463 46.8834 7.06191 46.6148C6.62918 46.3463 6.25764 45.9899 5.97128 45.5687C5.56751 44.9518 5.34764 44.2328 5.33734 43.4956C4.65062 36.0822 5.32315 28.6056 7.32184 21.4338C8.06013 18.963 8.38497 18.4807 10.8243 17.9038C13.4522 17.3254 16.1545 17.1614 18.8331 17.4175C19.422 17.1882 19.9971 16.9253 20.5558 16.63C22.9813 15.4173 26.2848 13.7694 28.0981 15.9725C31.3118 15.279 34.6311 15.2295 37.8641 15.827C41.0971 16.4244 44.1795 17.6569 46.9331 19.4532C49.6587 19.6582 52.394 19.7055 55.1251 19.595C55.5188 19.3528 55.9362 19.1008 56.3181 18.8803L56.4284 18.8173C56.7236 18.6235 57.054 18.4897 57.4009 18.4236C58.2751 18.2877 58.7791 18.5279 58.9307 19.1343C59.0569 19.7418 59.1 20.3638 59.0586 20.9829C59.0388 21.4131 58.8743 21.824 58.5916 22.1489C58.3089 22.4737 57.9247 22.6935 57.5013 22.7725H57.4502L57.4009 22.7587C57.231 22.7153 57.0603 22.6746 56.8891 22.6367C56.2748 22.5315 55.68 22.3337 55.1251 22.05C53.8788 22.0815 52.8512 22.0638 51.8589 22.05C51.0064 22.0362 50.1303 22.0205 49.1145 22.0362C49.1775 22.1602 49.2227 22.2803 49.272 22.4024C49.3359 22.5744 49.4095 22.7427 49.4925 22.9064C50.2562 24.8844 50.5191 27.0206 50.2577 29.1248C49.9963 31.229 49.2188 33.2359 47.9942 34.967C47.884 36.8688 47.9411 38.8198 47.9942 40.7078C48.0238 41.6745 48.0533 42.6766 48.0592 43.661V43.8303C48.154 44.336 48.1102 44.8579 47.9324 45.3408C47.7546 45.8236 47.4494 46.2493 47.0492 46.5727C46.1649 47.1112 45.1676 47.4371 44.1359 47.5249C43.1043 47.6127 42.0663 47.46 41.1036 47.0787C40.6798 46.8689 40.3023 46.5764 39.9932 46.2184C39.9243 46.1475 39.8554 46.0766 39.7846 46.0097C39.6881 46.0097 39.5877 46.0215 39.4991 46.0313C39.2835 46.0653 39.0636 46.0613 38.8494 46.0195C38.2162 45.8443 37.6683 45.4447 37.3079 44.8954C37.1693 44.6719 37.0564 44.4334 36.9712 44.1847C36.9251 44.0598 36.8752 43.9364 36.8216 43.8145L36.794 43.7535V43.6866C36.794 43.0034 36.7822 42.5171 36.7684 42.0486C36.7586 41.6548 36.7487 41.2611 36.7448 40.7512C34.1314 41.1811 31.4607 41.1197 28.8698 40.57C28.9882 42.4937 28.9454 44.4239 28.7418 46.3404C28.727 46.6688 28.6289 46.9881 28.4567 47.2681C28.2845 47.5481 28.0439 47.7797 27.7575 47.941C26.5581 48.624 25.1912 48.9568 23.8121 48.9018ZM19.9356 46.307H20.0065L20.0656 46.5314C20.1846 46.8794 20.3899 47.1915 20.6622 47.4387C20.9345 47.6858 21.265 47.86 21.6228 47.945C23.534 48.5276 25.5967 48.3448 27.3755 47.4351C27.5942 47.3237 27.7784 47.1549 27.9084 46.9468C28.0385 46.7387 28.1095 46.4992 28.1138 46.2538C28.3196 44.3076 28.3558 42.3473 28.2221 40.3948L28.0547 40.3476L28.7438 38.9812L28.8245 39.8928C31.5225 40.4894 34.3115 40.5482 37.0322 40.066L37.3886 40.0188V40.3771C37.3886 41.0602 37.4004 41.5465 37.4142 42.0151C37.428 42.4837 37.4378 42.9463 37.4398 43.6039C37.489 43.72 37.5323 43.8322 37.5756 43.9405C37.6452 44.1467 37.7369 44.3448 37.8493 44.5312C38.125 44.9535 38.5448 45.2614 39.0305 45.3974C39.1715 45.4185 39.3148 45.4185 39.4558 45.3974C39.6152 45.3785 39.7756 45.37 39.9362 45.3718H40.0543L40.1409 45.4525C40.2472 45.551 40.3535 45.6592 40.4598 45.7675C40.7125 46.0637 41.02 46.3084 41.3655 46.4881C42.2304 46.8255 43.1608 46.9612 44.0861 46.8848C45.0113 46.8083 45.9069 46.5218 46.7047 46.0471C47.4686 45.5077 47.4587 44.7674 47.4469 43.8283V43.657C47.4469 42.6726 47.4115 41.6883 47.382 40.7197C47.3249 38.7765 47.2658 36.7664 47.382 34.7957V34.6657L47.4804 34.5791C48.641 32.9468 49.381 31.0535 49.6348 29.0668C49.8886 27.0801 49.6483 25.0615 48.9353 23.1899C48.842 23.0064 48.7591 22.8178 48.6872 22.6249C48.608 22.3715 48.4735 22.1388 48.2935 21.9437L47.819 21.4338L48.514 21.4141C49.8016 21.3787 50.8529 21.3964 51.8727 21.4141C52.8925 21.4318 53.93 21.4495 55.2018 21.4141H55.2944L55.3731 21.4633C55.8864 21.7414 56.4417 21.9336 57.017 22.0323C57.1785 22.0697 57.3379 22.1051 57.4935 22.1445C57.7524 22.064 57.9803 21.9057 58.1462 21.6912C58.3121 21.4767 58.4079 21.2164 58.4207 20.9455C58.4583 20.3871 58.4199 19.8261 58.3066 19.278C58.279 19.1579 58.2258 18.9315 57.4876 19.0477C57.2176 19.1007 56.9607 19.2064 56.7316 19.3587L56.6213 19.4217C56.2276 19.6462 55.7767 19.9198 55.379 20.1679L55.3062 20.2132H55.2215C52.4136 20.3281 49.6012 20.2775 46.7992 20.0616H46.7165L46.6476 20.0143C43.928 18.231 40.8781 17.0116 37.6787 16.4282C34.4793 15.8449 31.1953 15.9095 28.0213 16.6182L27.8244 16.6537L27.7083 16.4962C26.2376 14.488 23.1132 16.0492 20.8314 17.1892C20.2273 17.5123 19.6025 17.7951 18.9611 18.0357L18.8981 18.0554H18.8331C16.2 17.7956 13.5424 17.9524 10.9581 18.52C8.75116 19.0398 8.59563 19.3075 7.91247 21.6188C5.93301 28.7162 5.26582 36.1153 5.94372 43.4523C5.94794 44.0683 6.12384 44.671 6.45166 45.1927C6.68342 45.5382 6.98337 45.8328 7.33309 46.0583C7.68282 46.2838 8.07494 46.4354 8.48538 46.5038C8.63902 46.5127 8.79261 46.4855 8.93382 46.4243C9.07503 46.3631 9.19992 46.2696 9.29847 46.1514C9.44656 46.025 9.55794 45.861 9.62098 45.6768C9.68401 45.4925 9.69638 45.2947 9.65678 45.1041C9.65678 45.0076 9.64497 44.9072 9.643 44.7812C9.6129 44.0448 9.54719 43.3102 9.44613 42.5801C9.33098 41.7695 9.27374 40.9517 9.27484 40.133C9.24605 38.9972 9.41322 37.865 9.769 36.7861C10.1784 35.523 11.0505 34.4617 12.2103 33.8152C12.6212 33.5265 13.1032 33.3556 13.6043 33.3209C14.1053 33.2862 14.6063 33.3891 15.0531 33.6184C17.4609 35.0615 17.4156 41.2768 17.3959 43.9307V44.2595C17.6212 44.601 17.9198 44.8881 18.2698 45.0999C18.6199 45.3117 19.0127 45.4429 19.4198 45.484C19.4725 45.4782 19.5258 45.483 19.5765 45.4982C19.6272 45.5134 19.6744 45.5387 19.7151 45.5726C19.7864 45.6525 19.8406 45.7461 19.8744 45.8477C19.9083 45.9492 19.921 46.0566 19.912 46.1632C19.9297 46.2085 19.9317 46.2656 19.9356 46.307Z" fill="#CCCCCC"/>
<path d="M27.348 39.3376C27.5039 41.3922 27.4736 43.4566 27.2574 45.5057C27.2483 45.7937 27.1637 46.0743 27.012 46.3193C26.8603 46.5642 26.6469 46.7651 26.3931 46.9016C24.7571 48.1163 19.2741 48.4077 18.591 45.8266C18.339 45.8168 18.5398 44.982 18.2996 45.0135C17.82 44.9741 17.3564 44.8227 16.946 44.5713C16.5357 44.32 16.1901 43.9758 15.9371 43.5665C15.9469 40.7433 16.258 30.559 11.2121 33.3014C10.1156 33.9125 9.29328 34.9186 8.9126 36.1148C8.5726 37.1584 8.41282 38.2522 8.4401 39.3494C8.40072 40.7551 8.75116 42.2927 8.80235 43.9799C8.82203 44.734 8.94213 44.9249 8.38103 45.5667C7.47738 46.6003 5.90041 45.7282 5.04794 44.5922C4.68742 44.0201 4.48938 43.3606 4.47503 42.6845C3.79704 35.3098 4.46412 27.8732 6.44378 20.7369C7.16632 18.3153 7.41831 17.9649 9.71781 17.4215C12.3343 16.846 15.0251 16.6865 17.6913 16.949C19.7604 16.2757 24.6705 12.6296 26.7888 15.5236C30.0031 14.81 33.3277 14.7472 36.5666 15.3389C39.8056 15.9306 42.8932 17.1649 45.6475 18.9689C48.4373 19.1801 51.2368 19.2307 54.0324 19.1205C54.4262 18.8685 54.8868 18.5988 55.2885 18.3665C55.5832 18.1669 55.9143 18.0271 56.263 17.955C56.7158 17.8842 57.3064 17.8645 57.4442 18.4275C57.5641 19.0054 57.6045 19.5969 57.5643 20.1856C57.5507 20.5406 57.4186 20.8807 57.1892 21.1519C56.9598 21.423 56.6462 21.6096 56.2984 21.6819C55.5125 21.5529 54.7505 21.306 54.0383 20.9495C51.4789 21.0204 49.9039 20.8786 47.3446 20.9495C47.756 21.3905 47.7383 21.6819 48.0376 22.2646C48.7731 24.2004 49.0188 26.2881 48.7526 28.3418C48.4864 30.3954 47.7166 32.3515 46.5118 34.0358C46.3307 36.9692 46.5512 39.9322 46.5728 42.8755C46.5827 43.8894 46.6535 44.8541 45.6987 45.5274C44.8565 46.0323 43.9099 46.3374 42.9314 46.4193C41.9529 46.5012 40.9687 46.3577 40.0543 45.9999C39.5559 45.7138 39.1109 45.3435 38.7392 44.9052C38.4123 44.9411 38.0828 44.9477 37.7548 44.9249C37.197 44.769 36.715 44.4156 36.3983 43.9307C36.2168 43.5991 36.0621 43.2534 35.9357 42.8971C35.9357 41.519 35.8845 40.9796 35.8845 39.6034C33.0461 40.1114 30.1336 40.0297 27.3283 39.3632L27.348 39.3376Z" fill="#373435"/>
<path d="M22.6407 48.1143C21.8275 48.1264 21.0179 48.004 20.2447 47.752C19.8154 47.6368 19.419 47.423 19.0868 47.1277C18.7546 46.8324 18.4958 46.4638 18.3311 46.051C18.1876 45.8722 18.1172 45.6457 18.1342 45.4171V45.3285C17.6338 45.2535 17.1552 45.0722 16.7308 44.7967C16.3063 44.5213 15.9457 44.1582 15.6733 43.7318L15.626 43.655V43.1432C15.6437 40.8161 15.689 34.6323 13.5903 33.3742C13.2371 33.2026 12.8438 33.1303 12.4527 33.1649C12.0615 33.1996 11.6871 33.34 11.3696 33.5711C10.3351 34.1475 9.56034 35.0977 9.20394 36.2269C8.87937 37.2364 8.72761 38.2934 8.75507 39.3533C8.75513 40.1438 8.81105 40.9332 8.92241 41.7158C9.00707 42.4383 9.09369 43.1845 9.11929 43.972C9.11929 44.0882 9.11929 44.1886 9.13307 44.2791C9.17788 44.5514 9.15459 44.8305 9.06527 45.0916C8.97596 45.3527 8.82339 45.5876 8.62119 45.7754C8.46139 45.9643 8.26008 46.1138 8.03298 46.2122C7.80588 46.3105 7.55913 46.3551 7.31197 46.3424C6.80747 46.2727 6.3232 46.0979 5.89047 45.8293C5.45775 45.5607 5.0862 45.2043 4.79985 44.7831C4.39618 44.1662 4.17631 43.4472 4.16591 42.71C3.47895 35.296 4.15148 27.8188 6.15041 20.6463C6.88869 18.1755 7.21354 17.6931 9.65282 17.1163C12.2808 16.5379 14.983 16.3738 17.6617 16.63C18.2505 16.4007 18.8257 16.1378 19.3843 15.8425C21.8098 14.6298 25.1134 12.9799 26.9266 15.1849C30.1405 14.4918 33.4599 14.4428 36.6928 15.0406C39.9258 15.6383 43.0081 16.8711 45.7617 18.6677C48.484 18.8736 51.2159 18.9223 53.9438 18.8134C54.3277 18.5751 54.7569 18.3172 55.1369 18.0987L55.2471 18.0357C55.5423 17.8419 55.8728 17.7081 56.2197 17.6419C57.0938 17.5061 57.5978 17.7463 57.7494 18.3527C57.8757 18.9602 57.9187 19.5821 57.8773 20.2013C57.8576 20.6315 57.693 21.0424 57.4103 21.3673C57.1276 21.6921 56.7434 21.9119 56.3201 21.9909H56.2689L56.2197 21.9771C56.0497 21.9337 55.8791 21.893 55.7078 21.8551C55.098 21.7473 54.5079 21.5482 53.9576 21.2644C52.7113 21.2959 51.6837 21.2782 50.6914 21.2644C49.8389 21.2507 48.9628 21.2349 47.947 21.2507C48.01 21.3747 48.0553 21.4948 48.1045 21.6169C48.1684 21.7889 48.242 21.9572 48.325 22.1209C49.0886 24.0989 49.3513 26.2351 49.09 28.3392C48.8286 30.4434 48.0511 32.4503 46.8268 34.1814C46.7165 36.0832 46.7736 38.0343 46.8268 39.9203C46.8543 40.8889 46.8839 41.8891 46.8917 42.8734V43.0428C46.9868 43.5483 46.9433 44.0701 46.7658 44.553C46.5883 45.0358 46.2835 45.4616 45.8837 45.7852C44.9993 46.3237 44.0021 46.6496 42.9704 46.7374C41.9387 46.8252 40.9008 46.6724 39.9381 46.2912C39.5143 46.0814 39.1367 45.7889 38.8277 45.4309C38.7588 45.36 38.6899 45.2891 38.619 45.2222C38.5226 45.2222 38.4222 45.234 38.3336 45.2438C38.118 45.2778 37.8981 45.2738 37.6839 45.232C37.0506 45.0568 36.5027 44.6572 36.1423 44.1078C36.0037 43.8844 35.8907 43.646 35.8057 43.3971C35.7595 43.2723 35.7096 43.1489 35.6561 43.027L35.6285 42.966V42.899C35.6285 42.2159 35.6167 41.7296 35.6029 41.261C35.5931 40.8673 35.5813 40.4735 35.5793 39.9636C32.9659 40.3935 30.2952 40.3321 27.7043 39.7825C27.8176 41.7046 27.7702 43.6328 27.5625 45.547C27.5477 45.8754 27.4496 46.1946 27.2774 46.4746C27.1052 46.7547 26.8646 46.9862 26.5782 47.1476C25.3817 47.8312 24.0177 48.166 22.6407 48.1143ZM18.7642 45.5194H18.8351L18.8941 45.7439C19.0132 46.0918 19.2185 46.404 19.4908 46.6511C19.7631 46.8983 20.0936 47.0725 20.4514 47.1574C22.3625 47.7403 24.4253 47.5574 26.2041 46.6475C26.4227 46.5361 26.607 46.3673 26.737 46.1593C26.8671 45.9512 26.9381 45.7116 26.9424 45.4663C27.1481 43.5201 27.1843 41.5597 27.0507 39.6073L26.8833 39.56L27.5625 38.2036L27.6433 39.1151C30.3412 39.7116 33.1303 39.7705 35.851 39.2883L36.2073 39.2411V39.5994C36.2073 40.2826 36.2191 40.7689 36.2329 41.2374C36.2467 41.706 36.2565 42.1686 36.2585 42.8262C36.3077 42.9424 36.351 43.0546 36.3943 43.1648C36.4637 43.3711 36.5555 43.5692 36.668 43.7554C36.9438 44.1778 37.3635 44.4857 37.8493 44.6217C37.9902 44.643 38.1336 44.643 38.2745 44.6217C38.4339 44.6028 38.5944 44.5943 38.7549 44.5961H38.873L38.9596 44.6768C39.0659 44.7753 39.1723 44.8737 39.2786 44.9918C39.5313 45.288 39.8388 45.5326 40.1842 45.7124C41.0491 46.0498 41.9796 46.1855 42.9048 46.1091C43.83 46.0326 44.7256 45.7461 45.5234 45.2714C46.2873 44.7319 46.2775 43.9917 46.2657 43.0526V42.8813C46.2657 41.8969 46.2302 40.9126 46.2007 39.942C46.1436 37.9988 46.0845 35.9907 46.2007 34.02V33.89L46.2991 33.8034C47.4596 32.1711 48.1995 30.2777 48.4532 28.2911C48.707 26.3044 48.4669 24.2858 47.754 22.4142C47.6607 22.2307 47.5779 22.0421 47.506 21.8492C47.4268 21.5958 47.2923 21.3631 47.1122 21.168L46.6378 20.6581L47.3327 20.6384C48.6203 20.6029 49.6716 20.6207 50.6914 20.6384C51.7112 20.6561 52.7488 20.6738 54.0206 20.6384H54.1131L54.1918 20.6876C54.7051 20.9657 55.2604 21.1579 55.8358 21.2566C55.9972 21.294 56.1567 21.3294 56.3122 21.3688C56.5711 21.2883 56.799 21.13 56.9649 20.9155C57.1308 20.701 57.2267 20.4407 57.2395 20.1698C57.277 19.6114 57.2386 19.0504 57.1253 18.5023C57.0977 18.3822 57.0446 18.1578 56.3063 18.2719C56.0363 18.325 55.7794 18.4307 55.5503 18.583L55.4381 18.646C55.0443 18.8724 54.5895 19.1461 54.1958 19.3922L54.1407 19.4315H54.056C51.248 19.5464 48.4357 19.4958 45.6337 19.2799H45.551L45.4782 19.2288C42.7585 17.4455 39.7087 16.226 36.5092 15.6427C33.3098 15.0594 30.0258 15.1239 26.8518 15.8327L26.6549 15.8681L26.5388 15.7106C25.0681 13.7025 21.9437 15.2637 19.6619 16.4036C19.0579 16.7267 18.4331 17.0095 17.7916 17.2502L17.7286 17.2699H17.6637C15.0306 17.01 12.3729 17.1668 9.78866 17.7345C7.58169 18.2542 7.42616 18.522 6.74301 20.8333C4.76355 27.9306 4.09636 35.3298 4.77426 42.6667C4.77848 43.2828 4.95437 43.8855 5.28219 44.4071C5.51396 44.7527 5.81391 45.0473 6.16363 45.2727C6.51335 45.4982 6.90547 45.6498 7.31591 45.7183C7.46969 45.7283 7.62363 45.7016 7.76503 45.6403C7.90642 45.579 8.03118 45.4849 8.12901 45.3659C8.27709 45.2394 8.38848 45.0755 8.45151 44.8912C8.51455 44.707 8.52691 44.5092 8.48732 44.3185C8.48732 44.222 8.47551 44.1216 8.47354 43.9956C8.44343 43.2592 8.37773 42.5247 8.27666 41.7946C8.16144 40.984 8.1042 40.1662 8.10538 39.3474C8.07659 38.2117 8.24375 37.0795 8.59954 36.0005C9.00889 34.7375 9.88104 33.6761 11.0408 33.0297C11.4517 32.741 11.9338 32.57 12.4348 32.5353C12.9358 32.5007 13.4368 32.6035 13.8837 32.8328C16.2914 34.2759 16.2462 40.4913 16.2265 43.1451V43.4739C16.4547 43.8164 16.7566 44.1035 17.1103 44.314C17.4639 44.5246 17.8602 44.6532 18.27 44.6906C18.3227 44.6847 18.376 44.6896 18.4267 44.7048C18.4775 44.72 18.5246 44.7453 18.5654 44.7792C18.6366 44.8591 18.6908 44.9527 18.7246 45.0542C18.7585 45.1558 18.7713 45.2632 18.7622 45.3698C18.7589 45.4197 18.7595 45.4697 18.7642 45.5194Z" fill="#373435"/>
<path d="M36.5636 39.2687C37.1954 39.2078 37.8194 39.0831 38.426 38.8966C38.7307 40.6835 38.8213 42.5004 38.6958 44.3087C38.236 44.3377 37.7781 44.229 37.3804 43.9965C36.9828 43.764 36.6634 43.4183 36.4632 43.0034C36.3615 41.7585 36.3952 40.5063 36.5636 39.2687Z" fill="#6978AB"/>
<path d="M38.6308 44.6237C38.1243 44.6409 37.6236 44.5108 37.1896 44.249C36.7555 43.9873 36.4068 43.6052 36.1857 43.1491L36.1561 43.094V43.031C36.0533 41.7631 36.0876 40.4878 36.2585 39.2273L36.29 38.9832L36.5341 38.9556C37.145 38.8962 37.7484 38.7762 38.3355 38.5973L38.6584 38.493L38.7372 38.8237C39.0333 40.4359 39.1305 42.0783 39.0266 43.7141L39.0108 44.6178H38.7076L38.6308 44.6237ZM36.7723 42.9109C36.9262 43.214 37.1559 43.4722 37.4392 43.6603C37.7224 43.8483 38.0496 43.9598 38.3887 43.9838V43.7003C38.4734 42.2288 38.4074 40.7524 38.1918 39.2943C37.75 39.4104 37.3007 39.496 36.8472 39.5502C36.7097 40.6677 36.684 41.7961 36.7704 42.9187L36.7723 42.9109Z" fill="#373435"/>
<path d="M7.97739 44.6572C7.53442 41.7552 7.08358 36.6345 9.15864 34.1933C9.32285 33.972 9.50037 33.761 9.6902 33.5613C12.9642 30.4782 15.817 33.1301 16.5907 36.5439C16.7547 38.7023 16.7882 40.8686 16.6911 43.031C16.8845 43.4071 17.183 43.719 17.5503 43.9287C17.9177 44.1384 18.338 44.2369 18.7602 44.2122C19.0615 44.8344 18.9807 45.297 19.3233 45.7085C19.9735 46.4383 20.8263 46.958 21.773 47.2013C22.7197 47.4447 23.7174 47.4006 24.6389 47.0748C25.2555 46.8133 25.8558 46.5149 26.4364 46.181C26.9064 43.5402 26.8395 40.8317 26.2395 38.2174C26.2395 37.8551 26.1194 37.6149 26.1194 37.2527C26.3447 37.285 26.5566 37.379 26.7317 37.5244C26.3379 38.9694 31.7638 39.9637 38.0934 38.2174C38.1642 37.9654 38.0422 37.6543 38.1938 37.5638C38.2917 37.5025 38.4018 37.4635 38.5165 37.4495C38.6312 37.4356 38.7475 37.447 38.8572 37.483C38.8868 37.9457 38.8966 38.3965 38.9281 38.8612C39.419 38.9074 39.9128 38.914 40.4047 38.8809C40.0817 39.1713 39.6573 39.3227 39.2234 39.3022C39.3337 39.3022 39.1624 39.5128 39.2628 39.5325C39.5542 39.6034 40.1074 39.4931 40.3377 39.5935C39.9066 39.8455 39.4242 39.7038 39.1329 39.9873C39.2037 41.5229 39.2431 43.1708 39.3041 44.7123C40.2535 45.433 41.4253 45.7984 42.6161 45.7452C43.8068 45.6919 44.9413 45.2234 45.8227 44.4209C46.0108 41.3364 45.9449 38.2416 45.6258 35.1678C45.3954 35.1383 45.1631 35.0969 44.9328 35.0674C48.5297 30.2282 49.2227 25.2768 46.2085 20.8077C46.179 20.6109 46.0471 20.414 46.0117 20.2171C48.634 20.1167 51.3273 20.3884 53.9575 20.288C54.6676 20.5568 55.4003 20.7617 56.1468 20.9003C56.9205 20.6286 57.0603 18.4807 56.2984 18.7209C55.5365 18.961 55.1171 19.4434 54.3001 19.7446C51.2859 19.7446 47.941 19.6245 44.9289 19.6245C42.4698 17.668 39.5573 16.3626 36.4605 15.8289C33.3636 15.2952 30.1823 15.5504 27.2101 16.571C28.1255 18.5421 28.642 20.6749 28.7299 22.8464C28.8177 25.018 28.4752 27.1855 27.722 29.2241C27.5507 29.7872 24.95 31.4331 27.0782 29.6356C29.2281 27.8086 27.8815 15.1161 25.2394 15.0944C22.1304 15.1267 19.1458 16.3205 16.8722 18.4413C16.4607 18.0003 16.4903 18.1795 16.6753 17.5573C14.4267 17.3637 12.1615 17.5636 9.98158 18.148C9.41659 18.166 8.87015 18.3539 8.41359 18.6872C7.95702 19.0205 7.61153 19.4837 7.4222 20.0163C5.4354 27.1166 4.63712 34.4967 5.0597 41.8576C5.16315 42.7402 5.39668 43.6027 5.7527 44.417C6.93395 45.7124 7.57183 45.3403 7.96361 44.6572H7.97739Z" fill="url(#paint0_linear_20_1041)"/>
<path d="M12.6906 20.5183C12.0282 20.2482 11.3089 20.1474 10.5978 20.225C10.5326 20.2179 10.4669 20.2336 10.4119 20.2695C10.357 20.3054 10.3162 20.3593 10.2966 20.4219C10.2701 20.4672 10.253 20.5174 10.2463 20.5695C10.2395 20.6215 10.2432 20.6744 10.2572 20.725C10.3182 20.8963 10.3281 20.8865 10.4777 20.9219C10.6759 20.9515 10.8782 20.9339 11.0683 20.8707C11.2931 20.7523 11.5411 20.6846 11.7948 20.6724C12.0486 20.6601 12.3019 20.7036 12.537 20.7999C12.7575 20.79 12.7792 20.6995 12.7083 20.5262L12.6906 20.5183Z" fill="#373435"/>
<path d="M10.6431 21.2448C10.5651 21.2451 10.4872 21.2372 10.4108 21.2212H10.3852C10.281 21.2106 10.183 21.1665 10.106 21.0955C10.029 21.0245 9.97705 20.9304 9.958 20.8274C9.93028 20.7349 9.9214 20.6377 9.93188 20.5417C9.94236 20.4456 9.972 20.3527 10.019 20.2683C10.0647 20.1595 10.1425 20.0672 10.2421 20.0039C10.3417 19.9405 10.4583 19.9091 10.5762 19.9139C11.3111 19.8362 12.054 19.9368 12.7418 20.2073H12.9033L12.984 20.4041C13.0292 20.4784 13.0528 20.5638 13.052 20.6508C13.0513 20.7377 13.0263 20.8227 12.9798 20.8962C12.9334 20.9697 12.8673 21.0287 12.7891 21.0667C12.7108 21.1046 12.6235 21.1199 12.5371 21.1109H12.4898L12.4367 21.0952C12.2428 21.0112 12.0326 20.9715 11.8215 20.979C11.6103 20.9865 11.4035 21.041 11.216 21.1385L11.1806 21.1601L11.1412 21.17C10.9791 21.2164 10.8117 21.2415 10.6431 21.2448ZM10.5565 20.6089C10.6891 20.6226 10.823 20.6092 10.9503 20.5695L11.0566 20.5164C10.9188 20.5164 10.779 20.5164 10.6372 20.538H10.586L10.5742 20.5616C10.5656 20.5763 10.5597 20.5922 10.5565 20.6089Z" fill="#373435"/>
<path d="M11.0684 23.0088C11.1584 22.8216 11.3003 22.6643 11.4774 22.5558C11.6544 22.4472 11.8589 22.3919 12.0665 22.3965C12.1059 22.1445 12.0665 22.0027 11.7437 22.0027C11.2851 22.2352 10.8935 22.5808 10.6057 23.0068C10.4405 23.3772 10.3878 23.788 10.4541 24.1881C10.4901 24.4615 10.6314 24.7101 10.8479 24.8811C11.072 25.0214 11.3334 25.0906 11.5976 25.0797C11.8618 25.0688 12.1165 24.9783 12.3284 24.82C13.0332 24.4086 13.738 23.2332 12.4997 22.7902C12.2515 22.7418 11.9962 22.7435 11.7487 22.7953C11.5012 22.847 11.2665 22.9477 11.0585 23.0915C11.0388 23.1013 11.029 23.0619 11.0585 23.0107L11.0684 23.0088Z" fill="#373435"/>
<path d="M11.4502 25.4087C11.1577 25.4145 10.8727 25.3153 10.647 25.1291C10.3684 24.9053 10.1877 24.582 10.143 24.2274C10.0628 23.7588 10.1316 23.2768 10.3398 22.8493C10.6549 22.3765 11.0851 21.9917 11.59 21.7311L11.6589 21.6897H11.7337C11.8303 21.6804 11.9277 21.6923 12.0192 21.7246C12.1107 21.7569 12.194 21.8089 12.2633 21.8768C12.3228 21.9575 12.3639 22.0502 12.3836 22.1485C12.4034 22.2469 12.4013 22.3483 12.3775 22.4457C12.6448 22.4861 12.8938 22.6062 13.0919 22.7902C13.29 22.9742 13.428 23.2137 13.4879 23.4773C13.4765 23.8111 13.3783 24.1361 13.2029 24.4202C13.0275 24.7044 12.781 24.9379 12.4877 25.0976C12.175 25.2902 11.8173 25.3975 11.4502 25.4087ZM10.8143 23.31C10.7415 23.5874 10.7254 23.8767 10.7671 24.1605C10.7947 24.3543 10.8971 24.5296 11.0525 24.6487C11.4325 24.9657 12.0487 24.6271 12.1688 24.5562C12.3582 24.455 12.5202 24.3093 12.641 24.1317C12.7617 23.9541 12.8374 23.7498 12.8618 23.5364C12.8441 23.3395 12.6866 23.1978 12.3952 23.0934C11.9856 23.0316 11.5679 23.1288 11.2277 23.3651L11.2022 23.3789L10.9915 23.4852L10.8182 23.31H10.8143Z" fill="#373435"/>
<path d="M11.6157 24.3751C11.6198 24.4469 11.6337 24.5177 11.657 24.5857C11.6671 24.6175 11.681 24.6479 11.6984 24.6763C11.6409 24.7145 11.575 24.738 11.5064 24.7448C11.4378 24.7517 11.3685 24.7417 11.3046 24.7157C10.8695 24.5188 10.901 23.9085 11.1235 23.5777C11.2401 23.4072 11.395 23.2663 11.5759 23.1664C11.7567 23.0666 11.9585 23.0106 12.165 23.0029C12.3973 23.123 12.4682 23.2352 12.3461 23.2647C12.2771 23.2778 12.2107 23.3017 12.1492 23.3356C12.1025 23.3565 12.0607 23.3872 12.0268 23.4256C11.9928 23.4639 11.9675 23.5091 11.9523 23.5581C12.0528 23.5876 12.1039 23.5581 12.1945 23.5974V23.9105C12.0977 23.8619 11.9872 23.848 11.8815 23.8711C11.6846 23.9321 11.6078 24.2136 11.6078 24.3849L11.6157 24.3751Z" fill="#FEFEFE"/>
<path d="M12.4485 32.4036C13.0062 32.2841 13.5347 32.0551 14.0033 31.7299C14.4719 31.4047 14.8713 30.9897 15.1784 30.509C15.4854 30.0284 15.6941 29.4915 15.7922 28.9296C15.8904 28.3678 15.876 27.792 15.7501 27.2357C15.3976 27.2283 15.0523 27.1351 14.744 26.964C14.7244 26.834 14.7145 26.7021 14.6929 26.5702C15.5079 26.964 16.6616 27.0821 16.512 25.8359C16.6222 25.8064 16.7935 25.7965 16.9057 25.765C16.8664 26.6391 16.7089 26.7199 16.1714 27.092C16.326 28.045 16.2453 29.0213 15.9365 29.9361C15.6277 30.8508 15.1001 31.6763 14.3995 32.3406C14.3578 32.6141 14.3821 32.8936 14.4704 33.1557C14.2127 32.8864 13.8964 32.6801 13.5461 32.5528C13.1958 32.4254 12.8209 32.3805 12.4505 32.4214L12.4485 32.4036Z" fill="#373435"/>
<path d="M15.0256 34.2385L14.2381 33.3683C14.0094 33.1329 13.7295 32.9535 13.4201 32.8443C13.1106 32.735 12.7801 32.6987 12.4544 32.7383H12.1354V32.1871L12.3579 32.0985C13.3716 31.8906 14.2643 31.2959 14.8466 30.4405C15.4288 29.5851 15.6548 28.5365 15.4764 27.5172C15.1572 27.4934 14.8482 27.3942 14.5747 27.2278L14.4527 27.151L14.431 27.0112L14.4034 26.8045L14.3798 26.6195L14.2892 26.0288L14.8267 26.2887C15.0073 26.4047 15.2114 26.479 15.4242 26.5062C15.637 26.5334 15.8533 26.513 16.0572 26.4462C16.1832 26.3576 16.2304 26.1647 16.197 25.8733L16.1674 25.6055L16.4273 25.5347C16.5045 25.5155 16.5827 25.501 16.6616 25.4914C16.7146 25.4851 16.7672 25.4759 16.8191 25.4638L17.2365 25.3496L17.2168 25.7808C17.1754 26.6785 16.9786 26.9049 16.5061 27.2416C16.6291 28.1986 16.5287 29.1711 16.2127 30.0828C15.8967 30.9945 15.3738 31.8205 14.685 32.4962C14.6854 32.6639 14.7086 32.8308 14.7539 32.9923L15.0256 34.2385ZM13.6474 32.254C13.7906 32.2998 13.929 32.3591 14.0609 32.4312C14.0668 32.3642 14.0807 32.2981 14.1022 32.2343L14.1239 32.1713L14.1692 32.1221C14.3372 31.9423 14.4927 31.7618 14.6357 31.5807C14.3333 31.8424 14.0017 32.0683 13.6474 32.254Z" fill="#373435"/>
<path d="M43.6216 45.7006C43.5724 44.9583 43.4819 44.3067 43.4602 43.5625C43.411 41.8576 42.1155 41.4855 42.0447 43.1904C42.0053 44.0842 42.0447 44.9268 42.0447 45.7695C42.5702 45.8413 43.1044 45.818 43.6216 45.7006Z" fill="#8093D0"/>
<path d="M42.7987 45.9113C42.6018 45.9113 42.4167 45.8994 42.2297 45.8876L41.9344 45.8719V45.7734V44.9367C41.9344 44.3737 41.9167 43.7909 41.9344 43.1904C41.9718 42.2986 42.3281 41.9816 42.6451 41.9816C43.0645 41.9816 43.5251 42.5388 43.5566 43.5566C43.5685 44.0114 43.6078 44.4268 43.6472 44.8658C43.6728 45.1336 43.6964 45.4053 43.7161 45.6888V45.7734L43.6354 45.7971C43.3633 45.8744 43.0816 45.9129 42.7987 45.9113ZM42.151 45.675H42.2455C42.6677 45.7247 43.0953 45.7054 43.5114 45.6179C43.4936 45.3659 43.47 45.1238 43.4484 44.8855C43.407 44.4426 43.3696 44.0252 43.3558 43.5625C43.3302 42.714 42.9621 42.1844 42.653 42.1844C42.4404 42.1844 42.1825 42.4482 42.151 43.1924C42.1234 43.783 42.1332 44.3737 42.151 44.9269C42.147 45.1789 42.151 45.425 42.151 45.675Z" fill="#373435"/>
<path d="M42.0683 45.7872C41.9253 44.9308 41.8719 44.0618 41.9088 43.1944C42.019 41.6194 40.5307 39.9597 40.4303 42.8833C40.3938 43.7377 40.4274 44.5937 40.5307 45.4427C41.0335 45.5972 41.5476 45.7124 42.0683 45.7872Z" fill="#8093D0"/>
<path d="M42.1883 45.9132L42.0525 45.8915C41.5258 45.8177 41.0057 45.7025 40.4971 45.547L40.4341 45.5254V45.4604C40.33 44.6049 40.2964 43.7423 40.3337 42.8813C40.3652 41.9383 40.5306 41.3792 40.8515 41.2177C40.9248 41.1812 41.0069 41.166 41.0884 41.174C41.1699 41.182 41.2475 41.2129 41.3122 41.263C41.5698 41.5113 41.7676 41.8149 41.8907 42.1508C42.0138 42.4868 42.059 42.8463 42.0229 43.2022C41.9785 43.9626 42.0148 44.7254 42.1312 45.4781L42.1883 45.9132ZM40.6251 45.3679C41.0582 45.4965 41.4995 45.5952 41.9461 45.6632L41.9265 45.4998C41.8048 44.7357 41.7632 43.9611 41.8024 43.1885C41.8358 42.8693 41.7978 42.5467 41.6913 42.244C41.5847 41.9413 41.4122 41.6661 41.1862 41.4382C41.1525 41.4094 41.1112 41.3908 41.0673 41.3846C41.0234 41.3783 40.9786 41.3846 40.9381 41.4028C40.8299 41.4579 40.5739 41.7158 40.5326 42.8872C40.4973 43.7153 40.5282 44.5448 40.6251 45.3679Z" fill="#373435"/>
<path d="M40.5326 45.5766L40.3219 42.2297C40.1703 39.7314 39.1663 40.0227 39.0856 42.0801C39.0462 43.0527 39.1249 43.5842 39.0344 44.5587C39.5069 44.8796 39.999 45.5116 40.5326 45.5628V45.5766Z" fill="#8093D0"/>
<path d="M40.5227 45.675C40.1015 45.5721 39.7209 45.3451 39.4301 45.0234C39.2866 44.8911 39.1354 44.7675 38.9773 44.6532L38.9261 44.6178V44.5568C38.9673 44.0855 38.9811 43.6122 38.9674 43.1393V42.084C39.0088 41.0347 39.2864 40.3535 39.6742 40.3495C40.068 40.3495 40.3397 41.0524 40.4105 42.2317L40.6212 45.5785H40.5149L40.5227 45.675ZM39.1446 44.5154C39.2864 44.6178 39.4281 44.7438 39.5679 44.8659C39.8088 45.1145 40.0983 45.3109 40.4184 45.4427L40.2215 42.2455C40.1467 41.0071 39.8652 40.5602 39.6939 40.5602C39.5167 40.5602 39.2352 41.0504 39.1958 42.0939C39.1781 42.4876 39.184 42.8243 39.1958 43.1393C39.2035 43.5973 39.1864 44.0553 39.1446 44.5115V44.5154Z" fill="#373435"/>
<path d="M23.3593 47.3051C23.386 46.5216 23.3458 45.7371 23.2392 44.9604C22.8179 43.1491 22.2863 42.9266 21.6642 44.2654V47.2736C22.2269 47.3506 22.7969 47.3572 23.3612 47.2933L23.3593 47.3051Z" fill="#8093D0"/>
<path d="M22.7233 47.4469C22.3965 47.4469 22.0697 47.4173 21.7488 47.3878L21.5519 47.3701V44.2201C21.8531 43.5724 22.1425 43.2712 22.4339 43.3027C22.7922 43.3401 23.0757 43.8578 23.3257 44.9347L23.3454 45.106C23.4424 45.8354 23.4773 46.5718 23.4498 47.3071H23.3474L23.3612 47.3977C23.1501 47.4307 22.9369 47.4472 22.7233 47.4469ZM21.7665 47.1791C22.2608 47.2425 22.7606 47.2511 23.2568 47.2047C23.2764 46.512 23.2409 45.8187 23.1505 45.1316L23.1328 44.9722C22.8453 43.7377 22.5658 43.5271 22.426 43.5133C22.3177 43.5133 22.0953 43.5901 21.7665 44.291V47.1791Z" fill="#373435"/>
<path d="M20.2781 46.809C20.288 45.6553 20.2978 44.8914 20.2978 43.7377C20.7191 42.0407 21.1503 42.2119 21.5716 44.2496C21.5814 45.3442 21.5913 46.0569 21.5913 47.1496C21.1304 47.1315 20.6787 47.0154 20.2663 46.809H20.2781Z" fill="#8093D0"/>
<path d="M21.6897 47.2677L21.5125 47.248C21.0576 47.226 20.6126 47.1072 20.2073 46.8996L19.8627 46.7027H20.1659V46.1121C20.1659 45.3049 20.1797 44.6375 20.1797 43.7279V43.7023C20.3923 42.8479 20.601 42.4659 20.8589 42.4659C21.0558 42.4659 21.3334 42.6727 21.6464 44.2181V44.8993C21.6464 45.6573 21.6602 46.2774 21.6602 47.1417L21.6897 47.2677ZM20.3766 46.7519C20.7234 46.9151 21.0984 47.01 21.481 47.0315C21.481 46.2322 21.481 45.6317 21.4673 44.9092V44.2496C21.1582 42.7672 20.9219 42.6864 20.8766 42.6864C20.8314 42.6864 20.662 42.7101 20.4022 43.7496C20.4022 44.6532 20.4022 45.3246 20.3884 46.1239L20.3766 46.7519Z" fill="#373435"/>
<path d="M18.7031 44.539C18.7642 43.5743 18.965 42.5998 19.0241 41.6351C18.6303 39.7254 18.2011 39.3848 17.7503 40.6311C17.7306 41.8674 17.7207 43.1137 17.701 44.35C17.9989 44.54 18.3576 44.6103 18.7051 44.5469L18.7031 44.539Z" fill="#8093D0"/>
<path d="M18.4532 44.6906C18.2127 44.6782 17.9784 44.6109 17.768 44.4937L17.6027 44.4189V44.35C17.6132 43.7318 17.6217 43.1123 17.6283 42.4915C17.6348 41.8707 17.6433 41.2506 17.6538 40.6311V40.5976C17.8507 40.0325 18.0594 39.7786 18.2957 39.7943C18.5319 39.8101 18.8056 40.0325 19.1304 41.6174V41.645C19.1009 42.1312 19.0339 42.6293 18.969 43.1038C18.904 43.5783 18.839 44.0685 18.8095 44.5449V44.6355L18.7268 44.6532C18.6371 44.6751 18.5454 44.6876 18.4532 44.6906ZM17.8153 44.2969L17.8547 44.3146C18.0825 44.4507 18.3491 44.5074 18.6126 44.476C18.6441 44.0134 18.7071 43.5428 18.7701 43.0881C18.8331 42.6333 18.8981 42.1312 18.9296 41.6568C18.6205 40.1546 18.3606 40.0207 18.2878 40.0148C18.2484 40.0148 18.0909 40.0483 17.8645 40.6645C17.854 41.2761 17.8455 41.8897 17.8389 42.5053C17.8323 43.1209 17.8245 43.7128 17.8153 44.2811V44.2969Z" fill="#373435"/>
<path d="M37.4476 44.2339C37.5283 43.2081 37.4181 42.3537 37.4476 41.3496C37.4771 40.1329 38.6801 40.4854 38.7312 41.6016C38.7824 42.7179 38.8415 43.2908 38.9025 44.4051C38.415 44.4877 37.9141 44.4282 37.4594 44.2339H37.4476Z" fill="#8093D0"/>
<path d="M38.3177 44.5292C38.0098 44.54 37.7043 44.4722 37.4298 44.3323H37.3432V44.2201C37.3784 43.6721 37.3823 43.1226 37.355 42.5742C37.3432 42.1804 37.3294 41.7729 37.3432 41.3418C37.3589 40.7078 37.6719 40.4794 37.9594 40.4775C38.3531 40.4775 38.8 40.9008 38.8296 41.5918C38.8591 42.1608 38.8886 42.5762 38.9162 43.0113C38.9438 43.4464 38.9713 43.844 39.0009 44.3894V44.4957L38.6957 44.5075C38.5703 44.5226 38.444 44.5299 38.3177 44.5292ZM37.5558 44.1669C37.9161 44.3159 38.3099 44.3649 38.6957 44.3087H38.7902C38.7664 43.8833 38.7401 43.458 38.7114 43.0329C38.6839 42.6057 38.6563 42.1804 38.6248 41.6095C38.5933 41.0386 38.2645 40.694 37.9633 40.694C37.7172 40.694 37.5696 40.9441 37.5538 41.3555C37.5381 41.767 37.5538 42.1844 37.5656 42.5762C37.5899 43.1062 37.5866 43.6372 37.5558 44.1669Z" fill="#373435"/>
<path d="M37.3846 44.2713C37.3551 43.5192 37.3649 42.6155 37.3354 41.8635C37.4063 40.8299 36.6936 39.3041 36.414 41.0012C36.3253 41.6296 36.272 42.2626 36.2546 42.8971C36.579 43.3957 36.9581 43.8566 37.3846 44.2713Z" fill="#B9C5EA"/>
<path d="M37.4969 44.4839L37.3217 44.3579C36.9752 44.0524 36.6724 43.7006 36.4219 43.3125C36.3402 43.1967 36.2562 43.0825 36.1699 42.9699L36.1443 42.9384V42.899C36.1581 42.7022 36.168 42.5053 36.1758 42.3478C36.1906 41.894 36.234 41.4416 36.3058 40.9933C36.3412 40.7728 36.4515 40.1034 36.8039 40.1467C37.1976 40.194 37.4792 41.2453 37.4358 41.8792C37.4516 42.2454 37.4555 42.6667 37.4614 43.0743C37.4673 43.4818 37.4713 43.9011 37.487 44.2752L37.4969 44.4839ZM36.3589 42.8656C36.4278 42.9542 36.5066 43.0624 36.5932 43.1845C36.7972 43.4858 37.0243 43.7708 37.2724 44.037C37.2724 43.7259 37.2587 43.3932 37.2547 43.0703C37.2547 42.6648 37.2449 42.2434 37.2291 41.8694C37.2783 41.137 36.9535 40.3672 36.7822 40.3475C36.7448 40.3357 36.609 40.4538 36.5145 41.0189C36.4439 41.4594 36.4012 41.9039 36.3865 42.3498L36.3589 42.8636V42.8656Z" fill="#373435"/>
<path d="M28.4346 30.4349C28.9465 27.9936 29.4486 25.5524 29.9604 23.1013C30.0411 22.5284 30.1908 22.0165 30.7932 21.9653H31.5256C31.9666 21.9653 32.2186 22.2272 32.258 22.7528L32.1083 23.8376C32.128 24.2806 32.3997 24.5306 32.9411 24.572C33.6735 24.6015 34.4177 24.6428 35.1501 24.6724C36.2545 24.7432 36.9967 25.2157 36.9219 26.5919L36.2289 30.2282C36.2163 30.5091 36.1211 30.7801 35.955 31.007C35.789 31.234 35.5597 31.4069 35.2957 31.5039C34.965 31.4842 34.5929 31.5236 34.2621 31.5039C33.6892 31.5335 33.3585 31.3228 33.5691 30.5688C33.7798 29.6139 34.0416 28.4189 34.2621 27.4641C34.3429 26.3281 33.9216 26.269 33.4746 26.1883C33.0927 26.1371 32.7226 26.1883 32.3406 26.1371C31.7776 26.2178 31.5669 26.7592 31.4075 27.3636C31.1673 28.3776 30.9153 29.3934 30.6751 30.4172C30.5648 30.9704 30.4447 31.3307 30.0333 31.502H28.8087C28.3467 31.4009 28.2155 31.0393 28.415 30.4172L28.4346 30.4349Z" fill="#373435"/>
<path d="M34.4708 31.7165H34.2562C34.1084 31.7415 33.9567 31.7299 33.8143 31.6829C33.6719 31.6359 33.5431 31.5549 33.4392 31.4468C33.352 31.3094 33.2995 31.1529 33.2861 30.9907C33.2728 30.8285 33.2989 30.6655 33.3624 30.5156L33.4825 29.9683C33.6656 29.1375 33.8762 28.2102 34.0495 27.4365C34.1105 26.521 33.8644 26.4757 33.4589 26.4009C33.0927 26.3517 32.7403 26.4009 32.3465 26.3537C31.9528 26.4245 31.7736 26.8163 31.6122 27.4207L31.2854 28.7772L30.8798 30.4703C30.7459 31.0373 30.6377 31.4823 30.114 31.7008L30.0746 31.7165H28.7634C28.652 31.6983 28.5459 31.6564 28.4521 31.5935C28.3584 31.5307 28.2792 31.4484 28.22 31.3523C28.1512 31.1974 28.1157 31.0297 28.1157 30.8601C28.1157 30.6906 28.1512 30.5229 28.22 30.3679L28.285 30.1711L29.0725 26.3537L29.7517 23.0836C29.8068 22.6898 29.923 21.8531 30.7735 21.7822H31.5236C31.8465 21.7822 32.3997 21.9082 32.4647 22.7666V22.7883L32.3131 23.875C32.3268 24.0975 32.4194 24.3514 32.9509 24.3908L34.0554 24.44L35.152 24.4893C35.4323 24.463 35.7148 24.5019 35.9775 24.6029C36.2403 24.7039 36.4762 24.8642 36.6667 25.0714C36.8573 25.2785 36.9974 25.5269 37.0762 25.7972C37.155 26.0674 37.1702 26.3522 37.1207 26.6293V26.6569L36.4277 30.2951C36.4083 30.6121 36.2969 30.9166 36.107 31.1711C35.9171 31.4257 35.657 31.6194 35.3587 31.7283L35.3193 31.7421H34.7779C34.6775 31.7126 34.5732 31.7165 34.4708 31.7165ZM34.2582 31.2913H35.2603C35.4786 31.2006 35.6662 31.049 35.8006 30.8545C35.935 30.6601 36.0106 30.431 36.0182 30.1947L36.7093 26.5643C36.7703 25.4579 36.2998 24.9539 35.1343 24.881L34.0397 24.8318L32.9312 24.7806C32.065 24.7157 31.9114 24.1684 31.8977 23.8474V23.8219L32.0473 22.741C32.002 22.237 31.7441 22.172 31.5256 22.172H30.7932C30.4309 22.2035 30.2616 22.4536 30.1671 23.1269L29.484 26.4108C29.2031 27.7666 28.9209 29.1211 28.6374 30.4743L28.5587 30.8542L28.535 30.8306C28.5201 30.932 28.5359 31.0355 28.5803 31.1279C28.6084 31.1701 28.645 31.2061 28.6877 31.2335C28.7304 31.261 28.7783 31.2793 28.8284 31.2874H29.984C30.2656 31.1535 30.362 30.8936 30.4644 30.3699L30.8719 28.6669L31.1987 27.3065C31.3188 26.8577 31.5374 26.0308 32.3072 25.9284H32.3642C32.7226 25.9757 33.0966 25.9284 33.4982 25.9796H33.5258C34.0889 26.082 34.5476 26.2651 34.4629 27.4739V27.5074C34.2838 28.283 34.0692 29.2162 33.894 30.051L33.7699 30.6101C33.6912 30.8916 33.6912 31.0846 33.7699 31.1791C33.8487 31.2736 34.079 31.2992 34.2483 31.2913H34.2582Z" fill="#FEFEFE"/>
<path d="M18.9473 33.2601C19.4493 30.6574 19.9612 28.0547 20.4652 25.4619C20.4586 25.3441 20.477 25.2262 20.5191 25.116C20.5612 25.0058 20.6261 24.9057 20.7095 24.8222C20.793 24.7388 20.893 24.6739 21.0033 24.6318C21.1135 24.5897 21.2313 24.5713 21.3491 24.5779H25.9718C26.4122 24.5649 26.8479 24.6722 27.2319 24.8883C27.6159 25.1044 27.9337 25.4212 28.1512 25.8044C28.4606 26.3648 28.5905 27.0067 28.5233 27.6432C28.4243 28.7363 27.9401 29.7585 27.157 30.5275C26.5157 31.0689 25.7301 31.4111 24.8968 31.5118C24.1093 31.5315 23.3218 31.5414 22.5343 31.563C22.0815 31.5236 21.6307 31.6437 21.5204 32.006C21.3806 32.4982 21.2802 32.9904 21.1385 33.4727C21.0893 33.5813 21.0172 33.6781 20.9272 33.7562C20.8371 33.8344 20.7312 33.8921 20.6168 33.9255C20.164 33.9354 19.7033 33.9354 19.2505 33.9452C18.7661 33.9531 18.8666 33.6656 18.9473 33.2601ZM22.1721 28.7989C22.302 28.1157 22.4635 27.342 22.5836 26.7396C22.6477 26.5591 22.7684 26.4042 22.9276 26.2978C23.0869 26.1913 23.2762 26.1392 23.4675 26.149C23.9441 26.1151 24.4227 26.1767 24.8752 26.3301C25.0733 26.4101 25.2522 26.5312 25.3999 26.6856C25.5477 26.8399 25.6609 27.0238 25.7322 27.2253C25.8035 27.4267 25.8312 27.6409 25.8134 27.8538C25.7957 28.0667 25.7329 28.2735 25.6292 28.4603C25.4541 28.7891 25.2158 29.0801 24.928 29.3166C24.6401 29.5531 24.3084 29.7304 23.9518 29.8384C23.6244 29.9239 23.2856 29.9578 22.9478 29.9388C22.0835 29.8482 22.0126 29.6179 22.1603 28.793L22.1721 28.7989Z" fill="#373435"/>
<path d="M19.2268 34.1539C19.143 34.1623 19.0583 34.1517 18.9792 34.1227C18.9001 34.0937 18.8286 34.0472 18.7701 33.9865C18.6205 33.8074 18.6716 33.5652 18.7248 33.3093L18.7425 33.2207C19.0195 31.7874 19.2984 30.3542 19.5792 28.9209L20.2545 25.452C20.2461 25.3162 20.2658 25.1802 20.3126 25.0524C20.3594 24.9247 20.4321 24.808 20.5262 24.7098C20.6332 24.5976 20.7627 24.5092 20.9062 24.4505C21.0497 24.3918 21.204 24.3641 21.359 24.3692H25.9718C26.4506 24.3546 26.9243 24.4719 27.341 24.7084C27.7576 24.9448 28.1013 25.2913 28.3343 25.7099C28.6608 26.3044 28.7981 26.9844 28.728 27.659C28.6254 28.8015 28.1202 29.8705 27.3027 30.6751L27.279 30.6968C26.6081 31.2613 25.7871 31.6178 24.9165 31.7225C24.511 31.7343 24.1152 31.7402 23.7215 31.7481L22.5402 31.7737H22.5166C22.1997 31.7461 21.8 31.8052 21.7291 32.069C21.6582 32.3328 21.6012 32.5494 21.5322 32.7915C21.4633 33.0337 21.4102 33.2837 21.3354 33.5337C21.2798 33.6742 21.1932 33.8003 21.0821 33.9025C20.971 34.0048 20.8381 34.0806 20.6936 34.1244L20.6561 34.1401H20.6168L19.9376 34.1499L19.2505 34.1598L19.2268 34.1539ZM19.0949 33.7208C19.1437 33.7338 19.1943 33.7385 19.2446 33.7345L19.9376 33.7247H20.5715C20.7841 33.6302 20.9062 33.5278 20.9396 33.4215C21.0086 33.1794 21.0676 32.9392 21.1365 32.697C21.2054 32.4549 21.2586 32.2048 21.3334 31.9568C21.4614 31.5354 21.924 31.309 22.556 31.3661L23.7254 31.3405L24.9067 31.3149C25.6905 31.2152 26.4289 30.8912 27.0329 30.3818C27.7749 29.6497 28.2344 28.6791 28.3303 27.6413C28.3944 27.0421 28.272 26.4378 27.9799 25.9107C27.7757 25.5633 27.4821 25.2769 27.1296 25.0816C26.777 24.8863 26.3786 24.7892 25.9757 24.8004H21.3491C21.2528 24.7965 21.1568 24.8133 21.0674 24.8496C20.9781 24.8859 20.8976 24.941 20.8314 25.011C20.7744 25.0693 20.7308 25.1393 20.7036 25.2161C20.6764 25.293 20.6662 25.3748 20.6739 25.4559V25.515L19.9927 29.0135L19.156 33.3132L19.1363 33.4058C19.1063 33.512 19.093 33.6223 19.0969 33.7326L19.0949 33.7208ZM23.1348 30.1534H22.9261C22.76 30.1574 22.5946 30.1284 22.4398 30.0679C22.285 30.0073 22.1438 29.9166 22.0244 29.801C21.8492 29.5667 21.865 29.2556 21.9555 28.7615L22.0264 28.3677L22.0402 28.3815C22.1091 28.0291 22.1839 27.6669 22.2528 27.3263L22.3965 26.651C22.4782 26.4322 22.6277 26.2454 22.8233 26.1178C23.0189 25.9903 23.2502 25.9288 23.4833 25.9422C23.9804 25.9089 24.4792 25.9759 24.95 26.1391C25.1579 26.2137 25.3479 26.3308 25.5079 26.483C25.6679 26.6352 25.7944 26.8192 25.8792 27.0231C25.9729 27.2686 26.0159 27.5304 26.0058 27.793C25.9956 28.0555 25.9325 28.3133 25.8202 28.5508L25.8064 28.5764C25.6185 28.9268 25.3634 29.2367 25.0557 29.4884C24.7479 29.74 24.3936 29.9286 24.0129 30.0431C23.7244 30.1118 23.4293 30.1488 23.1328 30.1534H23.1348ZM22.3217 29.1454C22.2909 29.2776 22.3055 29.4162 22.3631 29.5391C22.432 29.6297 22.6249 29.6888 22.9694 29.7262C23.2849 29.7418 23.6009 29.7093 23.9066 29.6297C24.2337 29.5295 24.538 29.3658 24.8018 29.1479C25.0656 28.93 25.2839 28.6622 25.4442 28.3599C25.5305 28.1761 25.5794 27.977 25.5878 27.7742C25.5963 27.5714 25.5642 27.3689 25.4934 27.1786C25.4296 27.0281 25.3352 26.8924 25.2162 26.7803C25.0973 26.6681 24.9563 26.5818 24.8023 26.5269C24.3756 26.3831 23.9245 26.3262 23.4754 26.3596C23.3265 26.3473 23.1777 26.3853 23.0529 26.4673C22.928 26.5494 22.8342 26.6709 22.7863 26.8124L22.6662 27.403C22.5717 27.8677 22.4694 28.3736 22.3808 28.8383L22.3217 29.1454Z" fill="#FEFEFE"/>
<path d="M36.5105 33.2601C37.0125 30.6574 37.5244 28.0547 38.0284 25.4619C38.0218 25.3441 38.0402 25.2262 38.0823 25.116C38.1244 25.0058 38.1893 24.9057 38.2727 24.8222C38.3562 24.7388 38.4563 24.6739 38.5665 24.6318C38.6767 24.5897 38.7946 24.5713 38.9124 24.5779H43.535C43.9754 24.5649 44.4111 24.6722 44.7951 24.8883C45.1791 25.1044 45.497 25.4212 45.7144 25.8044C46.0239 26.3648 46.1538 27.0067 46.0865 27.6432C45.9876 28.7363 45.5033 29.7585 44.7202 30.5275C44.0789 31.0689 43.2933 31.4111 42.4601 31.5118C41.6726 31.5315 40.8851 31.5414 40.0976 31.563C39.6447 31.5236 39.1939 31.6437 39.0836 32.006C38.9439 32.4982 38.8435 32.9904 38.7017 33.4727C38.6525 33.5813 38.5805 33.6781 38.4904 33.7562C38.4004 33.8344 38.2945 33.8921 38.18 33.9255C37.7272 33.9354 37.2665 33.9354 36.8137 33.9452C36.3294 33.9531 36.4219 33.6656 36.5105 33.2601ZM39.7353 28.7989C39.8652 28.1157 40.0267 27.342 40.1468 26.7396C40.2109 26.5591 40.3316 26.4042 40.4909 26.2978C40.6501 26.1913 40.8395 26.1392 41.0307 26.149C41.5073 26.1151 41.9859 26.1767 42.4384 26.3301C42.6365 26.4101 42.8154 26.5312 42.9631 26.6856C43.1109 26.8399 43.2242 27.0238 43.2954 27.2253C43.3667 27.4267 43.3944 27.6409 43.3767 27.8538C43.3589 28.0667 43.2961 28.2735 43.1924 28.4603C43.0173 28.7891 42.779 29.0801 42.4912 29.3166C42.2033 29.5531 41.8716 29.7304 41.5151 29.8384C41.1876 29.9239 40.8489 29.9578 40.511 29.9388C39.6467 29.8482 39.5758 29.6179 39.7235 28.793L39.7353 28.7989Z" fill="#373435"/>
<path d="M36.7901 34.1539C36.7063 34.1622 36.6217 34.1515 36.5426 34.1225C36.4635 34.0935 36.392 34.047 36.3334 33.9865C36.1838 33.8074 36.2349 33.5652 36.2881 33.3093L36.3058 33.2207C36.5814 31.7914 36.859 30.3634 37.1386 28.9367L37.8178 25.452C37.8094 25.3162 37.8291 25.1802 37.8759 25.0524C37.9227 24.9247 37.9954 24.808 38.0895 24.7098C38.1965 24.5976 38.326 24.5092 38.4695 24.4505C38.613 24.3918 38.7673 24.3641 38.9223 24.3692H43.5351C44.0139 24.3546 44.4876 24.4719 44.9043 24.7084C45.3209 24.9448 45.6646 25.2913 45.8976 25.7099C46.224 26.3045 46.3613 26.9844 46.2913 27.659C46.1885 28.8015 45.6834 29.8704 44.8659 30.6751L44.8423 30.6968C44.1714 31.2613 43.3504 31.6178 42.4798 31.7225C42.0743 31.7343 41.6785 31.7402 41.2848 31.7481L40.1035 31.7737H40.0799C39.761 31.7461 39.3633 31.8052 39.2924 32.069C39.2215 32.3328 39.1644 32.5494 39.0955 32.7895C39.0266 33.0297 38.9735 33.2837 38.8987 33.5318C38.8431 33.6722 38.7565 33.7983 38.6454 33.9006C38.5342 34.0028 38.4014 34.0787 38.2568 34.1224L38.2194 34.1381H38.1801L37.5009 34.148L36.8138 34.1578L36.7901 34.1539ZM36.6582 33.7208C36.707 33.7334 36.7576 33.738 36.8078 33.7345L37.5009 33.7247H38.1348C38.3474 33.6302 38.4695 33.5278 38.5029 33.4215C38.5718 33.1794 38.6329 32.9372 38.6998 32.697C38.7668 32.4568 38.8219 32.2068 38.8967 31.9587C39.0247 31.5374 39.4873 31.311 40.1193 31.3681L41.2887 31.3425L42.47 31.3169C43.2538 31.2172 43.9922 30.8931 44.5962 30.3837C45.3382 29.6517 45.7977 28.6811 45.8936 27.6432C45.9578 27.0441 45.8354 26.4397 45.5432 25.9127C45.339 25.5652 45.0454 25.2789 44.6928 25.0836C44.3403 24.8883 43.9419 24.7912 43.539 24.8023H38.9124C38.8161 24.7982 38.7199 24.8148 38.6306 24.8512C38.5412 24.8875 38.4608 24.9427 38.3947 25.013C38.3377 25.0713 38.2941 25.1412 38.2669 25.2181C38.2397 25.2949 38.2295 25.3768 38.2372 25.4579V25.517L37.554 29.0312L36.7212 33.3152L36.7015 33.4077C36.6716 33.514 36.6583 33.6242 36.6622 33.7345L36.6582 33.7208ZM40.6981 30.1534H40.4894C40.3232 30.1574 40.1579 30.1284 40.0031 30.0679C39.8483 30.0073 39.7071 29.9166 39.5877 29.801C39.4125 29.5667 39.4283 29.2556 39.5188 28.7615L39.5897 28.3677L39.6035 28.3815C39.6724 28.0271 39.7472 27.6629 39.8161 27.3204L39.9598 26.649C40.0407 26.4297 40.1901 26.2423 40.3858 26.1147C40.5816 25.987 40.8133 25.9258 41.0466 25.9403C41.5437 25.9076 42.0424 25.9745 42.5133 26.1371C42.7212 26.2117 42.9112 26.3288 43.0712 26.4811C43.2312 26.6333 43.3577 26.8172 43.4425 27.0211C43.5362 27.2666 43.5792 27.5285 43.5691 27.791C43.5589 28.0536 43.4958 28.3113 43.3835 28.5489L43.3697 28.5744C43.1818 28.9248 42.9267 29.2347 42.619 29.4864C42.3112 29.7381 41.9569 29.9266 41.5762 30.0412C41.2884 30.1104 40.994 30.148 40.6981 30.1534ZM39.883 29.1474C39.8522 29.2795 39.8668 29.4182 39.9244 29.5411C39.9933 29.6317 40.1862 29.6907 40.5308 29.7281C40.8462 29.7437 41.1622 29.7112 41.4679 29.6317C41.7951 29.5315 42.0993 29.3677 42.3631 29.1498C42.627 28.932 42.8452 28.6642 43.0055 28.3618C43.0919 28.1781 43.1407 27.979 43.1491 27.7762C43.1576 27.5733 43.1255 27.3708 43.0547 27.1806C42.9909 27.03 42.8965 26.8944 42.7776 26.7822C42.6586 26.6701 42.5177 26.5838 42.3637 26.5289C41.937 26.3849 41.4858 26.328 41.0367 26.3616C40.8879 26.3497 40.7393 26.3877 40.6145 26.4697C40.4897 26.5517 40.3958 26.673 40.3477 26.8144L40.2276 27.405C40.1331 27.8716 40.0307 28.3795 39.9421 28.8442L39.883 29.1474Z" fill="#FEFEFE"/>
<path d="M6.74293 45.0962C6.50751 44.8702 6.3083 44.6092 6.1523 44.3225C5.90933 43.8801 5.79157 43.3798 5.81171 42.8755C5.29983 34.148 5.75068 26.5152 8.53252 20.2782C8.87312 19.5143 8.92627 19.2839 9.63699 18.9315C11.8082 18.1354 14.1373 17.8655 16.4331 18.144C16.504 17.9472 16.6438 17.7503 16.5827 17.5534C14.5051 17.3871 12.4143 17.5532 10.3891 18.0456C9.01093 18.2661 7.66824 18.5082 7.33749 20.6975C4.55762 28.0587 4.75843 35.03 5.04783 41.8793C5.04575 42.3734 5.12013 42.8648 5.26833 43.3362C5.80974 45.0627 6.33343 45.0037 6.7449 45.0942L6.74293 45.0962Z" fill="#EBEFFF"/>
<path d="M17.4195 44.0035C17.4195 42.1864 17.2699 40.3692 17.2699 38.5442C17.1963 37.5029 16.9701 36.478 16.5985 35.5025C16.1958 34.7928 15.7349 34.1178 15.2204 33.4845C16.7846 36.4572 17.2716 39.8797 16.5985 43.1708C16.8781 43.4503 17.1281 43.7318 17.4195 44.0035Z" fill="#EBEFFF"/>
<path d="M17.5691 44.3638L17.4294 44.3107C16.9041 44.085 16.4535 43.715 16.13 43.2436L15.9941 43.0723H16.1221C16.1516 42.4207 16.1398 41.8241 16.1221 41.2453C16.1103 40.635 16.0965 40.005 16.132 39.312V39.1959L16.2481 39.2136C16.5693 39.2448 16.8727 39.3753 17.1162 39.587C17.3597 39.7987 17.5311 40.0811 17.6065 40.3948V40.4263L17.581 42.3065L17.5554 44.2162L17.5691 44.3638ZM16.3269 43.155C16.5974 43.5318 16.952 43.8405 17.3624 44.0567C17.3624 43.4346 17.3782 42.8755 17.386 42.3025C17.386 41.7119 17.4018 41.1075 17.4116 40.4381C17.3505 40.1856 17.2163 39.9566 17.0259 39.7797C16.8354 39.6029 16.5971 39.4861 16.3406 39.4439C16.3131 40.0818 16.3249 40.6705 16.3406 41.2414C16.3406 41.8458 16.3603 42.4699 16.3269 43.155Z" fill="#373435"/>
<path d="M20.1836 46.5747C19.773 46.4126 19.4271 46.12 19.1993 45.7419C19.1284 42.4974 19.0673 39.2451 19.0024 35.9986L19.4965 36.4908C19.6072 37.1748 19.6579 37.8671 19.6481 38.5599L19.7997 38.9537C19.7969 41.4989 19.9251 44.0426 20.1836 46.5747Z" fill="#EBEFFF"/>
<path d="M20.347 47.2953L20.2092 47.25C19.6366 47.0485 19.1626 46.6358 18.8842 46.0963L18.8704 46.0687V46.0294C18.8704 44.9485 18.8901 43.8303 18.8901 42.7356V42.7081L18.9039 42.6845C19.2012 42.1431 19.4571 41.7946 19.7367 41.8497C19.9552 41.893 20.2013 42.147 20.3667 43.6905C20.3667 44.8383 20.347 46.0077 20.347 47.1516V47.2953ZM19.0811 46.0156C19.3135 46.4527 19.6857 46.7993 20.1383 47C20.1383 45.9034 20.1481 44.7871 20.158 43.7043C20.0044 42.2691 19.7839 42.0722 19.6973 42.0545C19.6107 42.0367 19.4414 42.147 19.1067 42.7612C19.0968 43.8441 19.0968 44.9485 19.0811 46.0176V46.0156Z" fill="#373435"/>
<path d="M16.7344 35.5497C16.7405 35.3828 16.7164 35.216 16.6635 35.0576C16.7442 35.0772 16.825 35.0871 16.9037 35.1087L18.1775 36.1443C18.3549 36.0691 18.4961 35.9279 18.5712 35.7506C18.6518 35.7493 18.7316 35.7664 18.8046 35.8005C18.8775 35.8346 18.9418 35.8848 18.9925 35.9474C19.0122 36.7723 18.9532 37.5854 18.9729 38.4084C19.1051 38.5211 19.1907 38.679 19.213 38.8513C19.7405 38.8724 20.2663 38.923 20.788 39.0029C20.8176 39.1329 20.8589 39.2136 20.8884 39.3455C20.2997 39.2795 19.7054 39.2795 19.1166 39.3455V39.7176C19.5783 39.6939 20.0412 39.7276 20.4947 39.818L20.5439 40.0897C20.0537 40.0309 19.5578 40.0375 19.0693 40.1094C19.1402 42.1352 19.1402 44.163 19.0693 46.1889C18.9079 45.8069 18.5988 45.4348 18.4275 45.0529C18.7332 42.4545 18.7735 39.8317 18.5476 37.2252C18.0805 36.5343 17.4599 35.9609 16.7344 35.5497Z" fill="#373435"/>
<path d="M18.7898 46.3129C18.7025 46.1253 18.6005 45.9449 18.4846 45.7735C18.3591 45.5848 18.2473 45.3874 18.1499 45.1828L18.1125 45.1021L18.1243 45.0135C18.4228 42.4647 18.4637 39.8924 18.2464 37.3354C17.8018 36.7178 17.2298 36.2028 16.569 35.8254L16.3918 35.7112L16.4312 35.5025C16.4319 35.4269 16.42 35.3517 16.3958 35.28C16.3823 35.2286 16.3705 35.1767 16.3603 35.1245L16.2698 34.6422L16.7462 34.7603L16.8486 34.7819C16.8939 34.7819 16.9411 34.7996 16.9864 34.8115L17.0533 34.8292L18.2031 35.7624C18.2367 35.7312 18.263 35.6928 18.2799 35.6501L18.3567 35.4533H18.5752C18.7069 35.4523 18.8369 35.4822 18.9549 35.5407C19.0729 35.5992 19.1755 35.6845 19.2544 35.7899L19.3076 35.8667V35.9612C19.3174 36.3806 19.3076 36.8019 19.2977 37.2074C19.2977 37.5677 19.28 37.9398 19.2859 38.306C19.3539 38.3838 19.4109 38.4706 19.4552 38.5639C19.782 38.5777 20.1049 38.621 20.4199 38.6604L20.8255 38.7096L21.046 38.7352L21.0952 38.9517C21.1065 38.9997 21.1203 39.047 21.1365 39.0935C21.1562 39.1545 21.1779 39.2175 21.1956 39.2904L21.2921 39.7077L20.8648 39.6743H20.7881L20.9318 40.4618L20.5164 40.4185C20.1445 40.3758 19.7692 40.3698 19.3962 40.4007C19.4575 42.3388 19.4575 44.2784 19.3962 46.2164L18.7898 46.3129ZM18.7622 45.0056L18.7996 45.0765V44.6454C18.7904 44.7661 18.778 44.8862 18.7622 45.0056ZM18.3389 36.4219C18.4635 36.5548 18.5786 36.6962 18.6835 36.8452V36.164C18.5848 36.2697 18.4681 36.357 18.3389 36.4219Z" fill="#373435"/>
<path d="M17.9569 17.6479C18.8652 17.5286 19.7402 17.228 20.5301 16.7639C22.0961 15.887 23.8427 15.3818 25.635 15.2874C24.8935 14.9525 24.0593 14.8829 23.2725 15.0905C21.3404 15.5594 19.5291 16.4309 17.9569 17.6479Z" fill="#EBEFFF"/>
<path d="M27.7869 16.5572C32.098 15.3161 36.6972 15.5236 40.8791 17.1478C36.768 15.3412 32.1545 15.0299 27.8381 16.2678C27.8361 16.4686 27.7869 16.3682 27.7869 16.5572Z" fill="#EBEFFF"/>
<defs>
<linearGradient id="paint0_linear_20_1041" x1="16.6145" y1="12.3272" x2="29.1667" y2="54.128" gradientUnits="userSpaceOnUse">
<stop stop-color="#8A9FE0"/>
<stop offset="0.588" stop-color="#7182B8"/>
<stop offset="1" stop-color="#576490"/>
</linearGradient>
</defs>
</svg>
