<svg width="30" height="30" viewBox="0 0 30 30" fill="none" xmlns="http://www.w3.org/2000/svg">
<path d="M16 21H18M25 17V15C25 14.4696 24.7893 13.9609 24.4142 13.5858C24.0391 13.2107 23.5304 13 23 13H3C2.46957 13 1.96086 13.2107 1.58579 13.5858C1.21071 13.9609 1 14.4696 1 15V27C1 27.5304 1.21071 28.0391 1.58579 28.4142C1.96086 28.7893 2.46957 29 3 29H23C23.5304 29 24.0391 28.7893 24.4142 28.4142C24.7893 28.0391 25 27.5304 25 27V25V17ZM25 17H17C15.9391 17 14.9217 17.4214 14.1716 18.1716C13.4214 18.9217 13 19.9391 13 21C13 22.0609 13.4214 23.0783 14.1716 23.8284C14.9217 24.5786 15.9391 25 17 25H25V17ZM25 17C26.0609 17 27.0783 17.4214 27.8284 18.1716C28.5786 18.9217 29 19.9391 29 21C29 22.0609 28.5786 23.0783 27.8284 23.8284C27.0783 24.5786 26.0609 25 25 25V17ZM7 13V7C7 5.4087 7.63214 3.88258 8.75736 2.75736C9.88258 1.63214 11.4087 1 13 1C14.5913 1 16.1174 1.63214 17.2426 2.75736C18.3679 3.88258 19 5.4087 19 7V13H7ZM24 21H26H24ZM20 21H22H20Z" stroke="#7000FF" stroke-width="1.6"/>
</svg>
