<svg width="417" height="417" viewBox="0 0 417 417" fill="none" xmlns="http://www.w3.org/2000/svg">
<path d="M209.034 408.276C319.722 408.276 409.452 361.841 409.452 304.56C409.452 247.279 319.722 200.844 209.034 200.844C98.3457 200.844 8.61524 247.279 8.61524 304.56C8.61524 361.841 98.3457 408.276 209.034 408.276Z" fill="#F5F5F5"/>
<path d="M73.7172 47.1877L66.0611 51.6079C66.0611 51.266 66.1278 50.924 66.1278 50.5904V48.372C66.1278 44.4188 63.3506 42.8259 59.9396 44.7941C58.4657 45.708 57.2057 46.9283 56.2449 48.372C55.6862 43.4097 51.7914 41.5666 47.0709 44.2937C41.9585 47.2461 37.8135 54.4268 37.8135 60.3315V63.6675C37.7756 64.9924 38.0439 66.3081 38.5975 67.5123L32.2341 71.1819C31.2367 71.835 30.4068 72.7135 29.8113 73.7465C29.2159 74.7794 28.8717 75.9378 28.8063 77.1283C28.8063 79.3217 30.3409 80.2058 32.2341 79.1132L73.7172 55.119C74.7103 54.4692 75.5375 53.596 76.1327 52.5692C76.7279 51.5425 77.0746 50.3907 77.145 49.206C77.145 46.9792 75.6104 46.0952 73.7172 47.1877Z" fill="#EBEBEB"/>
<path d="M110.547 63.7676L104.767 67.1036C104.8 66.852 104.817 66.5985 104.817 66.3447V64.6767C104.817 61.6993 102.724 60.5067 100.147 61.9829C99.0374 62.6658 98.0875 63.5787 97.3611 64.66C96.9441 60.9154 94.0251 59.5142 90.4389 61.5742C86.5775 63.801 83.45 69.222 83.45 73.6755V76.1775C83.4218 77.1776 83.6245 78.1707 84.0421 79.0799L79.2299 81.8404C78.477 82.3328 77.8506 82.9956 77.4014 83.7751C76.9522 84.5546 76.693 85.429 76.6445 86.3273C76.6445 87.9953 77.8038 88.6542 79.2299 87.8285L110.538 69.7558C111.292 69.2633 111.919 68.6007 112.37 67.8213C112.82 67.0419 113.081 66.1676 113.132 65.2688C113.14 63.6175 111.973 62.942 110.547 63.7676Z" fill="#EBEBEB"/>
<path d="M331.582 296.22C355.685 296.22 375.225 284.936 375.225 271.017C375.225 257.097 355.685 245.813 331.582 245.813C307.478 245.813 287.939 257.097 287.939 271.017C287.939 284.936 307.478 296.22 331.582 296.22Z" fill="#E0E0E0"/>
<path d="M301.283 383.798C299.57 383.788 297.867 383.544 296.22 383.073C291.216 381.68 289.707 379.078 289.281 377.143C288.606 374.007 290.491 370.763 292.617 368.937C293.393 368.286 294.285 367.602 295.203 366.893C297.605 365.042 300.59 362.723 301.283 360.964L304.619 352.307L302.075 350.839L302.625 349.563L299.973 350.13L298.781 348.537C296.145 349.805 289.665 352.949 280.975 357.294C278.973 358.295 277.288 359.162 275.812 359.921C270.933 362.423 268.24 363.824 264.136 364.8C262.63 365.172 261.084 365.365 259.533 365.375C256.338 365.375 253.836 364.466 252.302 362.748C251.621 361.943 251.125 360.999 250.847 359.982C250.569 358.965 250.516 357.9 250.692 356.86C251.601 348.704 267.506 341.59 275.762 340.847C278.473 340.597 281.033 340.48 283.802 340.48C285.145 340.48 286.354 340.48 287.438 340.539C288.272 340.539 289.106 340.539 289.815 340.539C290.524 340.539 291.208 340.539 291.808 340.464C294.936 340.18 304.66 338.379 304.76 338.362L305.82 338.17L306.47 339.004L308.897 338.537C312.108 336.26 336.678 318.847 342.474 314.86C346.093 312.358 352.574 308.438 354.542 308.438H355.601L356.252 309.422L356.752 310.356L356.085 311.457C355.943 311.691 351.806 318.129 346.811 322.091C344.742 323.759 338.771 328.804 332.833 333.892L377.802 325.26L375.834 328.596C375.292 329.538 372.373 332.199 357.236 336.677C348.12 339.363 331.473 343.224 318.938 346.018L316.92 347.778C316.778 350.013 316.328 356.81 316.028 360.371C316.019 361.815 316.239 363.25 316.678 364.625C317.446 367.619 318.388 371.355 315.928 375.175C313.826 378.402 309.156 383.798 301.283 383.798ZM304.452 370.863C303.366 370.836 302.286 371.027 301.274 371.424C300.263 371.82 299.342 372.415 298.564 373.173C298.335 373.394 298.161 373.665 298.055 373.964C297.95 374.264 297.915 374.584 297.955 374.9C298.145 375.281 298.423 375.613 298.765 375.868C299.106 376.123 299.503 376.294 299.923 376.368C300.569 376.546 301.238 376.633 301.908 376.626C302.995 376.652 304.076 376.461 305.089 376.065C306.101 375.668 307.024 375.073 307.804 374.316C308.034 374.096 308.209 373.825 308.313 373.525C308.418 373.225 308.449 372.904 308.405 372.589C308.216 372.208 307.939 371.876 307.597 371.622C307.255 371.368 306.857 371.2 306.437 371.13C305.791 370.948 305.123 370.858 304.452 370.863ZM281.45 347.011C278.155 347.06 274.889 347.623 271.767 348.679C263.144 351.514 260.433 355.042 259.591 356.894C259.483 357.127 259.249 357.728 259.449 358.02C259.635 358.207 259.86 358.35 260.108 358.438C260.357 358.526 260.622 358.557 260.884 358.528C261.165 358.527 261.445 358.491 261.718 358.42C263.325 357.981 264.839 357.255 266.188 356.276C267.935 355.146 269.745 354.115 271.609 353.191C276.106 350.978 280.758 349.097 285.528 347.561L285.678 347.503C284.297 347.151 282.875 346.985 281.45 347.011Z" fill="#E0E0E0"/>
<path d="M147.41 379.687C143.098 381.889 153.998 389.561 159.386 386.601L254.537 330.906L265.871 318.947C265.982 318.825 266.051 318.67 266.067 318.505C266.082 318.341 266.044 318.176 265.957 318.035C265.87 317.895 265.74 317.786 265.586 317.726C265.432 317.667 265.263 317.659 265.104 317.704L243.236 324.376L147.41 379.687Z" fill="#E0E0E0"/>
<path d="M66.2947 362.281L29.8155 341.214C27.7555 340.03 27.7555 338.104 29.8155 336.919L233.945 219.2C235.1 218.616 236.375 218.312 237.669 218.312C238.963 218.312 240.239 218.616 241.393 219.2L277.88 240.267C279.932 241.451 279.932 243.378 277.88 244.562L73.7423 362.281C72.5879 362.865 71.3123 363.17 70.0185 363.17C68.7247 363.17 67.4491 362.865 66.2947 362.281Z" fill="#E0E0E0"/>
<path d="M301.116 249.516C301.134 249.31 301.206 249.112 301.327 248.943C301.447 248.775 301.61 248.641 301.8 248.557C302.31 248.298 302.874 248.163 303.447 248.163C304.019 248.163 304.584 248.298 305.094 248.557C305.282 248.643 305.444 248.776 305.565 248.945C305.685 249.113 305.758 249.31 305.778 249.516L301.524 271.325C301.507 271.467 301.453 271.603 301.369 271.718C301.284 271.833 301.171 271.925 301.041 271.984C300.681 272.169 300.282 272.266 299.877 272.266C299.472 272.266 299.074 272.169 298.714 271.984C298.583 271.925 298.47 271.833 298.386 271.718C298.301 271.603 298.247 271.467 298.23 271.325L301.116 249.516Z" fill="#455A64"/>
<path d="M361.472 249.516C361.454 249.311 361.382 249.114 361.264 248.946C361.145 248.777 360.984 248.643 360.797 248.557C360.281 248.292 359.709 248.154 359.129 248.154C358.549 248.154 357.977 248.292 357.461 248.557C357.273 248.643 357.112 248.777 356.994 248.946C356.875 249.114 356.803 249.311 356.785 249.516L361.03 271.325C361.047 271.466 361.099 271.601 361.182 271.716C361.265 271.832 361.377 271.924 361.506 271.984C361.867 272.169 362.267 272.266 362.673 272.266C363.079 272.266 363.48 272.169 363.841 271.984C363.97 271.924 364.081 271.832 364.164 271.716C364.247 271.601 364.3 271.466 364.316 271.325L361.472 249.516Z" fill="#455A64"/>
<path d="M333.909 252.744C333.89 252.539 333.817 252.342 333.697 252.175C333.576 252.008 333.413 251.876 333.225 251.793C332.714 251.534 332.15 251.398 331.578 251.398C331.005 251.398 330.441 251.534 329.93 251.793C329.743 251.877 329.581 252.009 329.461 252.176C329.341 252.343 329.267 252.539 329.246 252.744L329.93 283.852C329.948 283.994 330.001 284.129 330.086 284.245C330.171 284.36 330.284 284.452 330.414 284.511C330.775 284.692 331.174 284.786 331.578 284.786C331.982 284.786 332.38 284.692 332.741 284.511C332.871 284.452 332.984 284.36 333.069 284.245C333.154 284.129 333.207 283.994 333.225 283.852L333.909 252.744Z" fill="#455A64"/>
<path d="M373.351 232.895H373.309C373.309 226.723 369.272 220.551 361.116 215.848C344.803 206.432 318.357 206.432 302.052 215.848C293.895 220.551 289.85 226.69 289.85 232.895V236.231C289.942 242.319 294.02 248.39 302.085 253.036C318.39 262.451 344.836 262.451 361.149 253.036C369.197 248.39 373.284 242.319 373.384 236.231L373.351 232.895Z" fill="#7000FF"/>
<path d="M302.041 215.848C285.737 225.263 285.737 240.534 302.041 249.95C318.346 259.366 344.792 259.366 361.105 249.95C377.418 240.534 377.418 225.263 361.105 215.848C344.792 206.432 318.354 206.432 302.041 215.848Z" fill="#7000FF"/>
<path opacity="0.45" d="M302.041 215.848C285.737 225.263 285.737 240.534 302.041 249.95C318.346 259.366 344.792 259.366 361.105 249.95C377.418 240.534 377.418 225.263 361.105 215.848C344.792 206.432 318.354 206.432 302.041 215.848Z" fill="white"/>
<g opacity="0.05">
<path opacity="0.05" d="M340.731 228.866C345.935 231.869 345.935 236.739 340.731 239.708C335.527 242.677 327.086 242.711 321.891 239.708C316.695 236.706 316.686 231.835 321.891 228.866C327.095 225.897 335.527 225.856 340.731 228.866Z" fill="black"/>
</g>
<path d="M323.025 234.971C318.488 230.351 315.827 218.808 320.248 215.139H342.766C347.186 218.808 344.525 230.342 339.997 234.971L339.88 235.096L339.722 235.246C339.588 235.371 339.455 235.497 339.313 235.613L339.204 235.697L338.863 235.955C338.674 236.094 338.476 236.219 338.27 236.331C334.551 238.482 328.504 238.482 324.776 236.331C324.576 236.222 324.384 236.089 324.184 235.955L323.867 235.713L323.734 235.605C323.594 235.499 323.463 235.382 323.342 235.255L323.158 235.08C323.109 235.05 323.064 235.013 323.025 234.971Z" fill="#EBEBEB"/>
<path d="M340.781 213.662C345.91 216.623 345.91 221.427 340.781 224.388C335.652 227.348 327.337 227.348 322.199 224.388C317.062 221.427 317.07 216.623 322.199 213.662C327.328 210.702 335.652 210.702 340.781 213.662Z" fill="#FAFAFA"/>
<path d="M337.145 215.764C340.264 217.566 340.264 220.485 337.145 222.286C335.393 223.173 333.457 223.635 331.494 223.635C329.531 223.635 327.595 223.173 325.844 222.286C322.716 220.485 322.716 217.566 325.844 215.764C327.595 214.877 329.531 214.415 331.494 214.415C333.457 214.415 335.393 214.877 337.145 215.764Z" fill="#EBEBEB"/>
<path d="M325.844 218.858C327.595 217.972 329.531 217.51 331.494 217.51C333.457 217.51 335.393 217.972 337.144 218.858C337.9 219.267 338.543 219.857 339.013 220.576C338.536 221.277 337.895 221.85 337.144 222.244C335.393 223.131 333.457 223.593 331.494 223.593C329.531 223.593 327.595 223.131 325.844 222.244C325.093 221.848 324.449 221.276 323.967 220.576C324.443 219.859 325.087 219.269 325.844 218.858Z" fill="#E0E0E0"/>
<path d="M336.452 220.576C338.051 218.952 339.428 217.124 340.547 215.139C342.432 211.803 342.782 207.324 341.807 206.799C340.831 206.273 336.853 210.71 336.853 210.71C337.221 208.832 337.364 206.917 337.278 205.006C337.111 202.036 336.386 199.334 335.535 198.792C334.684 198.25 332.774 201.995 331.957 204.714C331.14 207.432 330.648 209.668 330.648 209.668C330.324 207.548 329.836 205.457 329.188 203.413C328.196 200.585 327.295 199.952 326.603 200.227C325.91 200.502 325.443 201.828 325.235 205.581C325.162 207.379 325.221 209.179 325.41 210.969C325.41 210.969 324.009 209.426 322.449 207.933C320.74 206.265 320.014 206.065 319.522 206.373C319.03 206.682 318.897 209.242 321.549 214.029C322.864 216.467 324.553 218.685 326.553 220.601C326.553 220.601 330.197 222.937 336.452 220.576Z" fill="#7000FF"/>
<path opacity="0.3" d="M336.452 220.576C338.051 218.952 339.428 217.124 340.547 215.139C342.432 211.803 342.782 207.324 341.807 206.799C340.831 206.273 336.853 210.71 336.853 210.71C337.221 208.832 337.364 206.917 337.278 205.006C337.111 202.036 336.386 199.334 335.535 198.792C334.684 198.25 332.774 201.995 331.957 204.714C331.14 207.432 330.648 209.668 330.648 209.668C330.324 207.548 329.836 205.457 329.188 203.413C328.196 200.585 327.295 199.952 326.603 200.227C325.91 200.502 325.443 201.828 325.235 205.581C325.162 207.379 325.221 209.179 325.41 210.969C325.41 210.969 324.009 209.426 322.449 207.933C320.74 206.265 320.014 206.065 319.522 206.373C319.03 206.682 318.897 209.242 321.549 214.029C322.864 216.467 324.553 218.685 326.553 220.601C326.553 220.601 330.197 222.937 336.452 220.576Z" fill="black"/>
<path d="M189.36 329.547L220.718 311.407C223.954 309.547 225.572 307.095 225.572 304.652C225.572 302.208 225.572 300.29 225.572 300.29L193.046 281.942C192.136 281.349 191.379 280.55 190.836 279.609C190.292 278.669 189.978 277.614 189.919 276.529V237.865L135.141 269.557V308.23C135.199 309.313 135.511 310.367 136.053 311.306C136.595 312.245 137.352 313.043 138.261 313.634L165.966 329.547C172.413 333.275 182.896 333.275 189.36 329.547Z" fill="#7000FF"/>
<g opacity="0.6">
<path opacity="0.6" d="M189.36 329.547L220.718 311.407C223.954 309.547 225.572 307.095 225.572 304.652C225.572 302.208 225.572 300.29 225.572 300.29L193.046 281.942C192.136 281.349 191.379 280.55 190.836 279.609C190.292 278.669 189.978 277.614 189.919 276.529V237.865L135.141 269.557V308.23C135.199 309.313 135.511 310.367 136.053 311.306C136.595 312.245 137.352 313.043 138.261 313.634L165.966 329.547C172.413 333.275 182.896 333.275 189.36 329.547Z" fill="black"/>
</g>
<path opacity="0.3" d="M148.294 315.035V319.422L138.286 313.634C137.379 313.04 136.624 312.242 136.083 311.303C135.541 310.365 135.227 309.312 135.166 308.23V269.524L145.575 263.544C145.783 266.188 146.025 268.932 146.242 271.6L138.919 275.837V306.045C138.973 307.128 139.283 308.184 139.826 309.124C140.368 310.064 141.127 310.861 142.039 311.449L148.294 315.035Z" fill="black"/>
<path d="M138.919 306.011C138.977 307.094 139.289 308.148 139.831 309.087C140.373 310.027 141.13 310.824 142.039 311.416L165.966 325.185C172.43 328.913 182.913 328.921 189.385 325.185L220.76 307.054C227.223 303.326 227.223 297.271 220.76 293.535L196.824 279.765C195.915 279.172 195.159 278.372 194.617 277.432C194.075 276.491 193.763 275.436 193.705 274.353V244.137L138.928 275.829L138.919 306.011Z" fill="#7000FF"/>
<path opacity="0.3" d="M138.919 306.011C138.977 307.094 139.289 308.148 139.831 309.087C140.373 310.027 141.13 310.824 142.039 311.416L165.966 325.185C172.43 328.913 182.913 328.921 189.385 325.185L220.76 307.054C227.223 303.326 227.223 297.271 220.76 293.535L196.824 279.765C195.915 279.172 195.159 278.372 194.617 277.432C194.075 276.491 193.763 275.436 193.705 274.353V244.137L138.928 275.829L138.919 306.011Z" fill="black"/>
<path opacity="0.5" d="M203.179 283.435L196.824 279.765C195.915 279.172 195.159 278.372 194.617 277.432C194.075 276.491 193.763 275.436 193.705 274.353V244.137L138.928 275.829V306.045C138.985 307.127 139.297 308.182 139.839 309.121C140.382 310.06 141.138 310.858 142.047 311.449L148.302 315.06L203.179 283.435Z" fill="black"/>
<path d="M225.58 300.29V304.652C225.58 307.104 223.912 309.539 220.727 311.416L189.36 329.538C185.923 331.377 182.082 332.331 178.184 332.316V327.97C182.082 327.986 185.923 327.032 189.36 325.193L220.727 307.054C223.954 305.194 225.58 302.742 225.58 300.29Z" fill="#7000FF"/>
<path opacity="0.5" d="M225.58 300.29V304.652C225.58 307.104 223.912 309.539 220.727 311.416L189.36 329.538C185.923 331.377 182.082 332.331 178.184 332.316V327.97C182.082 327.986 185.923 327.032 189.36 325.193L220.727 307.054C223.954 305.194 225.58 302.742 225.58 300.29Z" fill="black"/>
<path d="M50.9603 343.608C52.1431 344.182 53.4449 344.469 54.7595 344.444C56.0741 344.42 57.3642 344.084 58.5247 343.466L270.361 221.152C271.495 220.411 272.439 219.413 273.115 218.239C273.792 217.066 274.182 215.749 274.255 214.396V21.4505C274.21 20.1362 273.855 18.8512 273.219 17.7004C272.583 16.5495 271.683 15.5655 270.594 14.8285C269.412 14.2556 268.112 13.9698 266.799 13.9944C265.486 14.0191 264.197 14.3534 263.038 14.9703L51.2105 137.285C50.0738 138.024 49.1278 139.021 48.4495 140.195C47.7713 141.369 47.3799 142.686 47.3074 144.04V336.936C47.3436 338.258 47.6937 339.553 48.3289 340.713C48.964 341.873 49.866 342.865 50.9603 343.608Z" fill="#7000FF"/>
<path d="M58.5218 343.424L270.358 221.11C271.494 220.369 272.44 219.37 273.118 218.195C273.796 217.02 274.188 215.701 274.261 214.346V21.4421C274.261 18.9401 272.51 17.9477 270.358 19.1903L58.5218 141.505C57.3852 142.244 56.4392 143.241 55.7609 144.415C55.0826 145.589 54.6913 146.906 54.6187 148.26V341.164C54.6187 343.658 56.3701 344.667 58.5218 343.424Z" fill="#7000FF"/>
<path opacity="0.5" d="M58.5218 343.424L270.358 221.11C271.494 220.369 272.44 219.37 273.118 218.195C273.796 217.02 274.188 215.701 274.261 214.346V21.4421C274.261 18.9401 272.51 17.9477 270.358 19.1903L58.5218 141.505C57.3852 142.244 56.4392 143.241 55.7609 144.415C55.0826 145.589 54.6913 146.906 54.6187 148.26V341.164C54.6187 343.658 56.3701 344.667 58.5218 343.424Z" fill="black"/>
<path d="M57.9463 347.878C56.8387 348.355 55.6414 348.589 54.4356 348.563C53.2297 348.537 52.0436 348.252 50.9574 347.728C49.8683 346.991 48.9689 346.007 48.3326 344.856C47.6963 343.705 47.3411 342.42 47.2962 341.106V325.494L54.6187 329.73V345.334C54.6187 347.603 56.0615 348.612 57.9463 347.878Z" fill="#7000FF"/>
<path opacity="0.5" d="M57.9463 347.878C56.8387 348.355 55.6414 348.589 54.4356 348.563C53.2297 348.537 52.0436 348.252 50.9574 347.728C49.8683 346.991 48.9689 346.007 48.3326 344.856C47.6963 343.705 47.3411 342.42 47.2962 341.106V325.494L54.6187 329.73V345.334C54.6187 347.603 56.0615 348.612 57.9463 347.878Z" fill="black"/>
<path d="M54.6187 329.73V345.326C54.6187 347.828 56.3701 348.829 58.5218 347.578L270.358 225.272C271.494 224.53 272.44 223.532 273.118 222.356C273.796 221.181 274.188 219.863 274.261 218.508V202.879L54.6187 329.73Z" fill="#7000FF"/>
<path opacity="0.3" d="M54.6187 329.697V345.326C54.6187 347.828 56.3701 348.829 58.5218 347.578L270.358 225.272C271.494 224.53 272.44 223.532 273.118 222.356C273.796 221.181 274.188 219.863 274.261 218.508V202.879L54.6187 329.697Z" fill="black"/>
<path d="M61.9412 310.148V150.695C61.9861 149.882 62.2216 149.091 62.6287 148.385C63.0358 147.68 63.6031 147.08 64.2847 146.634L264.612 30.9747C265.904 30.2325 266.955 30.833 266.955 32.3258V191.82C266.91 192.632 266.675 193.422 266.268 194.127C265.86 194.831 265.293 195.429 264.612 195.873L64.2847 311.507C62.992 312.25 61.9412 311.641 61.9412 310.148Z" fill="#7000FF"/>
<path d="M61.9412 310.148V150.695C61.9861 149.882 62.2216 149.091 62.6287 148.385C63.0358 147.68 63.6031 147.08 64.2847 146.634L264.612 30.9747C265.904 30.2325 266.955 30.833 266.955 32.3258V191.82C266.91 192.632 266.675 193.422 266.268 194.127C265.86 194.831 265.293 195.429 264.612 195.873L64.2847 311.507C62.992 312.25 61.9412 311.641 61.9412 310.148Z" fill="#263238"/>
<path opacity="0.7" d="M55.7696 144.399C55.0761 145.572 54.681 146.898 54.6187 148.26V329.73L47.2962 325.494V144.04C47.3465 142.68 47.7395 141.355 48.4387 140.187L55.7696 144.399Z" fill="black"/>
<path opacity="0.3" d="M274.244 20.7999C273.969 18.79 272.343 18.0644 270.374 19.1903L58.5385 141.505C57.3849 142.22 56.4343 143.219 55.7779 144.407L48.4554 140.179C49.1166 138.994 50.0661 137.996 51.2159 137.276L263.06 15.012C264.221 14.3937 265.511 14.0586 266.825 14.034C268.14 14.0094 269.442 14.2959 270.625 14.8702C271.615 15.5444 272.45 16.422 273.074 17.4446C273.698 18.4671 274.097 19.611 274.244 20.7999Z" fill="black"/>
<path d="M82.0656 325.327C81.6014 325.601 81.0777 325.758 80.5394 325.785C79.7718 325.886 78.9919 325.749 78.3043 325.393C77.7587 325.021 77.3093 324.525 76.9932 323.945C76.6771 323.365 76.5033 322.718 76.4862 322.057V173.105L80.1474 175.215V324.201C80.1474 325.085 80.5894 325.594 81.2233 325.594C81.5206 325.569 81.8086 325.478 82.0656 325.327Z" fill="#F0F0F0"/>
<path d="M283.418 206.832C283.378 207.501 283.181 208.152 282.843 208.731C282.506 209.311 282.037 209.803 281.475 210.168L82.0656 325.327C80.9981 325.944 80.1307 325.444 80.1307 324.201V162.63L85.4766 159.544C86.5442 158.927 88.2872 149.536 89.3631 148.877L135.733 122.106C136.809 121.489 139.336 128.453 140.404 127.827L283.418 45.2612V206.832Z" fill="#FAFAFA"/>
<path d="M282.517 46.7874V206.832C282.48 207.348 282.327 207.848 282.068 208.296C281.809 208.744 281.453 209.127 281.025 209.417L81.6152 324.551C81.4918 324.629 81.3519 324.678 81.2066 324.693C81.0231 324.693 81.0231 324.226 81.0231 324.201V163.139L85.927 160.303C86.7026 159.853 87.1863 158.343 88.2789 154.465C88.6688 152.803 89.2047 151.179 89.8802 149.611L135.834 123.082C136.379 123.819 136.866 124.597 137.293 125.409C138.544 127.61 139.245 128.745 140.262 128.745C140.471 128.745 140.676 128.687 140.854 128.578L282.517 46.7874ZM283.418 45.2361L140.404 127.802C140.361 127.828 140.312 127.843 140.262 127.844C139.178 127.844 136.926 122.006 135.875 122.006C135.829 121.993 135.78 121.993 135.733 122.006L89.3631 148.777C88.2872 149.403 86.5442 158.785 85.4766 159.444L80.1307 162.63V324.201C80.1307 325.085 80.5644 325.594 81.2066 325.594C81.5034 325.581 81.7913 325.488 82.0406 325.327L281.475 210.168C282.037 209.803 282.506 209.311 282.843 208.731C283.181 208.152 283.378 207.501 283.418 206.832V45.2361Z" fill="#E0E0E0"/>
<path d="M78.3057 168.593C77.7585 168.222 77.3076 167.726 76.99 167.146C76.6724 166.566 76.4973 165.918 76.4792 165.257V150.12C76.5175 149.453 76.7108 148.805 77.0438 148.225C77.3768 147.646 77.8403 147.153 78.3974 146.784L277.807 31.6923C278.368 31.3367 279.016 31.1416 279.68 31.1282C280.344 31.1147 280.999 31.2835 281.574 31.6161C282.149 31.9487 282.622 32.4325 282.942 33.015C283.261 33.5974 283.415 34.2562 283.386 34.9199V50.0403C283.347 50.7099 283.151 51.3609 282.813 51.9405C282.476 52.5201 282.006 53.012 281.443 53.3763L82.067 168.527C81.4891 168.832 80.8477 168.997 80.1943 169.008C79.5409 169.02 78.894 168.878 78.3057 168.593Z" fill="#7000FF"/>
<path opacity="0.4" d="M283.393 34.5359C283.26 33.5268 282.442 33.1598 281.475 33.7019L82.0656 148.861C81.4965 149.23 81.0245 149.73 80.6895 150.32L77.0449 148.21C77.3715 147.631 77.8355 147.141 78.396 146.784L277.805 31.692C278.342 31.3496 278.96 31.1549 279.597 31.1277C280.233 31.1005 280.865 31.2416 281.429 31.5369C281.994 31.8321 282.47 32.2711 282.811 32.8094C283.151 33.3477 283.343 33.9663 283.368 34.6027L283.393 34.5359Z" fill="white"/>
<path opacity="0.1" d="M80.6895 150.32C80.3427 150.898 80.1503 151.556 80.1307 152.23V175.257L76.4695 173.147V150.12C76.4653 150.042 76.4653 149.964 76.4695 149.886C76.4844 149.724 76.5095 149.562 76.5445 149.403C76.6489 148.982 76.8117 148.578 77.0282 148.202L80.6895 150.32Z" fill="black"/>
<path d="M283.41 34.8445V45.2361L140.396 127.802C139.328 128.428 138.461 127.919 138.461 126.685V122.748C138.461 121.514 137.627 121.005 136.509 121.631L89.3548 148.852C88.793 149.218 88.3246 149.71 87.9872 150.29C87.6498 150.869 87.4526 151.519 87.4115 152.188V156.116C87.3692 156.785 87.1715 157.435 86.8342 158.014C86.4968 158.593 86.0292 159.086 85.4683 159.452L80.1307 162.63V152.23C80.1722 151.562 80.3686 150.913 80.7044 150.334C81.0402 149.755 81.5063 149.262 82.0656 148.894L281.475 33.802C282.543 33.1014 283.41 33.6102 283.41 34.8445Z" fill="#7000FF"/>
<path d="M274.303 41.3581C275.654 40.5825 276.746 41.2163 276.746 42.7759C276.7 43.6243 276.455 44.45 276.03 45.186C275.606 45.922 275.014 46.5478 274.303 47.0126C272.952 47.7882 271.851 47.1544 271.851 45.5948C271.898 44.7458 272.145 43.9199 272.571 43.1839C272.997 42.4479 273.59 41.8225 274.303 41.3581Z" fill="white"/>
<path d="M265.496 46.4371C266.847 45.6615 267.939 46.287 267.939 47.8466C267.894 48.6953 267.65 49.5215 267.225 50.2577C266.8 50.9939 266.208 51.6195 265.496 52.0833C264.145 52.8673 263.052 52.2334 263.052 50.6738C263.098 49.8254 263.343 48.9998 263.768 48.2637C264.192 47.5277 264.784 46.9019 265.496 46.4371Z" fill="white"/>
<path d="M256.689 51.5162C258.04 50.7322 259.132 51.3661 259.132 52.9256C259.086 53.7741 258.841 54.5997 258.416 55.3357C257.992 56.0718 257.4 56.6975 256.689 57.1624C255.337 57.938 254.245 57.3125 254.245 55.7529C254.29 54.9042 254.535 54.078 254.959 53.3418C255.384 52.6055 255.976 51.98 256.689 51.5162Z" fill="white"/>
<path d="M283.418 45.2361V57.8712L80.1307 175.257V162.63L84.1256 160.32C85.1931 159.703 85.5517 158.76 86.0605 156.984L87.4199 152.28C87.8452 150.612 88.2539 149.536 89.3631 148.944L135.733 122.173C136.809 121.555 137.652 121.489 138.469 122.84L140.137 125.859C140.746 126.91 141.054 127.527 142.122 126.91L283.418 45.2361Z" fill="#E6E6E6"/>
<path d="M80.1307 162.613V175.257L76.4695 173.147V160.52L80.1307 162.613Z" fill="#E0E0E0"/>
<path d="M89.0462 163.531L85.9938 165.29L87.153 163.055C87.1998 162.971 87.2243 162.876 87.2243 162.78C87.2243 162.684 87.1998 162.589 87.153 162.505C87.0613 162.396 86.9112 162.505 86.8028 162.672L85.1347 165.849C85.1347 165.849 85.1347 165.924 85.093 165.966C85.0513 166.008 85.093 165.966 85.093 165.966C85.089 166.019 85.089 166.072 85.093 166.124C85.0874 166.172 85.0874 166.219 85.093 166.266C85.105 166.29 85.119 166.312 85.1347 166.333L86.8028 167.601C86.8264 167.62 86.8558 167.63 86.8861 167.63C86.9165 167.63 86.9459 167.62 86.9695 167.601C87.0549 167.545 87.1195 167.463 87.153 167.367C87.2448 167.159 87.2281 166.925 87.153 166.85L85.9938 165.949L89.0462 164.19C89.1237 164.128 89.1858 164.049 89.2278 163.959C89.2697 163.87 89.2904 163.771 89.2881 163.672C89.2881 163.556 89.1797 163.464 89.0462 163.531Z" fill="#455A64"/>
<path d="M91.5899 162.055L94.6424 160.295L93.4747 159.402C93.4251 159.324 93.3987 159.233 93.3987 159.14C93.3987 159.047 93.4251 158.956 93.4747 158.877C93.5581 158.668 93.7166 158.568 93.8167 158.643L95.4847 159.919C95.5073 159.937 95.5247 159.96 95.5347 159.986C95.5434 160.033 95.5434 160.081 95.5347 160.128C95.5428 160.183 95.5428 160.239 95.5347 160.295L95.4847 160.42L93.8167 163.606C93.7846 163.682 93.7291 163.746 93.6582 163.789C93.6334 163.813 93.6006 163.826 93.5665 163.826C93.5324 163.826 93.4995 163.813 93.4747 163.789C93.4272 163.707 93.4021 163.613 93.4021 163.518C93.4021 163.423 93.4272 163.33 93.4747 163.247L94.6424 161.012L91.5899 162.772C91.4565 162.847 91.348 162.772 91.348 162.538C91.3518 162.445 91.3754 162.354 91.4171 162.27C91.4587 162.187 91.5177 162.113 91.5899 162.055Z" fill="#455A64"/>
<path d="M101.598 153.273C101.598 153.089 101.423 153.106 101.339 153.273L100.922 154.298C100.205 154.223 99.3461 154.916 98.7623 156.15C98.0033 157.751 98.0033 159.644 98.7623 160.37C98.9451 160.541 99.1816 160.642 99.4312 160.658C99.6808 160.673 99.9279 160.601 100.13 160.453C100.74 160.042 101.219 159.463 101.506 158.785C101.552 158.704 101.576 158.612 101.576 158.518C101.576 158.425 101.552 158.333 101.506 158.252C101.406 158.16 101.256 158.252 101.156 158.452C100.589 159.644 99.6714 160.178 99.1126 159.636C98.5538 159.094 98.5454 157.676 99.1126 156.483C99.5129 155.649 100.088 155.132 100.589 155.099L100.28 155.875C100.197 156.075 100.28 156.258 100.397 156.175L101.64 155.341C101.691 155.303 101.731 155.252 101.756 155.193C101.781 155.135 101.79 155.07 101.781 155.007L101.598 153.273Z" fill="#455A64"/>
<path d="M134.391 127.861L135.508 125.509C135.571 125.397 135.604 125.27 135.604 125.142C135.604 125.013 135.571 124.887 135.508 124.775C135.375 124.65 135.158 124.775 135.033 125.05L133.915 127.402L132.806 126.334C132.673 126.209 132.464 126.334 132.331 126.61C132.264 126.72 132.228 126.847 132.228 126.977C132.228 127.106 132.264 127.233 132.331 127.343L133.44 128.436L132.331 130.788C132.264 130.899 132.228 131.025 132.228 131.155C132.228 131.284 132.264 131.411 132.331 131.522C132.363 131.551 132.404 131.566 132.448 131.566C132.491 131.566 132.532 131.551 132.564 131.522C132.673 131.452 132.758 131.35 132.806 131.23L133.915 128.878L135.033 129.946C135.065 129.974 135.107 129.99 135.15 129.99C135.193 129.99 135.234 129.974 135.266 129.946C135.375 129.876 135.46 129.774 135.508 129.654C135.571 129.542 135.604 129.415 135.604 129.287C135.604 129.158 135.571 129.032 135.508 128.92L134.391 127.861Z" fill="#455A64"/>
<path d="M105.651 156.166V152.23C105.692 151.561 105.888 150.91 106.226 150.331C106.563 149.751 107.032 149.259 107.594 148.894L270.533 54.8272C271.609 54.2017 272.476 54.7104 272.476 55.9447V59.8812C272.436 60.5505 272.239 61.201 271.901 61.7803C271.564 62.3597 271.095 62.8519 270.533 63.2172L107.586 157.284C106.518 157.91 105.651 157.401 105.651 156.166Z" fill="#FAFAFA"/>
<path d="M267.889 63.5508C267.831 63.5603 267.772 63.5603 267.714 63.5508C267.605 63.5003 267.517 63.414 267.463 63.3063C267.41 63.1986 267.396 63.0759 267.422 62.9587L267.614 61.3657L266.863 60.8236C266.798 60.7723 266.746 60.7062 266.711 60.6308C266.676 60.5555 266.66 60.4729 266.663 60.3899C266.66 60.2605 266.687 60.132 266.742 60.0147C266.797 59.8975 266.878 59.7947 266.98 59.7144L268.123 58.8304C268.145 58.8034 268.162 58.7722 268.173 58.7386L268.681 57.0706C268.713 56.9333 268.784 56.8084 268.887 56.7119C268.989 56.6154 269.118 56.5515 269.257 56.5285C269.351 56.5179 269.446 56.5382 269.527 56.5863C269.608 56.6345 269.672 56.7079 269.707 56.7954L270.133 57.7045L271.1 57.3375C271.186 57.2991 271.282 57.2897 271.374 57.3108C271.466 57.3318 271.548 57.3822 271.609 57.4543C271.688 57.5696 271.73 57.7063 271.73 57.8462C271.73 57.9862 271.688 58.1229 271.609 58.2382L270.775 59.7895C270.771 59.8199 270.771 59.8507 270.775 59.8812L270.975 61.2823C270.99 61.4105 270.976 61.5405 270.932 61.662C270.889 61.7836 270.818 61.8934 270.725 61.9829C270.67 62.0471 270.6 62.0968 270.522 62.1273C270.443 62.1579 270.358 62.1684 270.274 62.158L269.382 62.0162L268.373 63.3006C268.319 63.379 268.247 63.4429 268.162 63.4865C268.078 63.5302 267.984 63.5523 267.889 63.5508ZM267.339 60.2982L268.089 60.8403C268.167 60.9037 268.226 60.9865 268.261 61.0802C268.296 61.174 268.306 61.2753 268.289 61.3741L268.156 62.4416L268.832 61.6076C268.889 61.5254 268.967 61.4594 269.058 61.4156C269.148 61.3718 269.248 61.3518 269.349 61.3574L270.283 61.4741C270.289 61.4383 270.289 61.4016 270.283 61.3657L270.083 59.9646C270.067 59.7916 270.102 59.6179 270.183 59.4642L270.908 58.1048L270.216 58.38C270.106 58.4253 269.983 58.4262 269.873 58.3827C269.762 58.3391 269.673 58.2545 269.624 58.1465L269.29 57.4292L268.832 58.9221C268.784 59.0901 268.685 59.2388 268.548 59.3474L267.405 60.1814C267.373 60.2133 267.349 60.2538 267.339 60.2982Z" fill="#E0E0E0"/>
<path d="M274.77 54.3435C274.62 54.3478 274.473 54.3018 274.353 54.2127C274.233 54.1237 274.146 53.9968 274.107 53.8525C274.067 53.7081 274.077 53.5547 274.136 53.4169C274.194 53.279 274.297 53.1648 274.428 53.0925L279.899 49.9316C279.976 49.8812 280.062 49.8469 280.152 49.831C280.243 49.8151 280.336 49.8178 280.425 49.839C280.515 49.8602 280.599 49.8995 280.673 49.9543C280.746 50.0092 280.808 50.0785 280.854 50.1581C280.9 50.2376 280.929 50.3257 280.94 50.417C280.951 50.5083 280.943 50.6008 280.917 50.6889C280.891 50.777 280.847 50.8588 280.788 50.9294C280.729 50.9999 280.656 51.0577 280.574 51.0992L275.103 54.2517C275.003 54.3139 274.887 54.3458 274.77 54.3435Z" fill="#455A64"/>
<path d="M274.77 57.546C274.651 57.5471 274.535 57.5168 274.433 57.4582C274.33 57.3995 274.245 57.3147 274.186 57.2124C274.097 57.0572 274.073 56.8733 274.118 56.7002C274.163 56.5272 274.274 56.3787 274.428 56.2867L279.899 53.1342C279.975 53.0891 280.06 53.0597 280.148 53.0474C280.236 53.0352 280.326 53.0405 280.412 53.063C280.498 53.0854 280.579 53.1246 280.649 53.1784C280.72 53.2321 280.78 53.2993 280.825 53.376C280.869 53.4525 280.898 53.5371 280.909 53.6248C280.921 53.7126 280.915 53.8017 280.892 53.8871C280.868 53.9725 280.828 54.0524 280.774 54.1221C280.719 54.1919 280.652 54.2501 280.574 54.2934L275.103 57.4543C275.003 57.5165 274.887 57.5484 274.77 57.546Z" fill="#455A64"/>
<path d="M274.77 60.6652C274.621 60.6656 274.476 60.617 274.358 60.5269C274.24 60.4367 274.155 60.3101 274.116 60.1666C274.077 60.0232 274.086 59.8708 274.143 59.7333C274.199 59.5957 274.299 59.4806 274.428 59.4058L279.899 56.245C280.055 56.1569 280.24 56.1338 280.413 56.1806C280.586 56.2274 280.734 56.3404 280.825 56.4951C280.869 56.5716 280.898 56.6562 280.909 56.744C280.921 56.8317 280.915 56.9209 280.892 57.0062C280.868 57.0916 280.828 57.1715 280.774 57.2413C280.719 57.311 280.652 57.3692 280.574 57.4125L275.103 60.5734C275.002 60.6317 274.887 60.6633 274.77 60.6652Z" fill="#455A64"/>
<path d="M86.1271 178.793C85.9776 178.797 85.8309 178.751 85.7106 178.662C85.5904 178.573 85.5036 178.446 85.4641 178.302C85.4246 178.158 85.4349 178.004 85.4931 177.866C85.5513 177.729 85.6542 177.614 85.7852 177.542L91.2562 174.381C91.4102 174.303 91.5882 174.287 91.7537 174.336C91.9191 174.386 92.0594 174.496 92.1458 174.646C92.2323 174.795 92.2583 174.972 92.2184 175.14C92.1786 175.308 92.0761 175.454 91.9318 175.549L86.4607 178.701C86.3602 178.762 86.2447 178.794 86.1271 178.793Z" fill="#455A64"/>
<path d="M86.1271 181.954C86.009 181.955 85.8927 181.925 85.7901 181.866C85.6876 181.807 85.6024 181.723 85.5433 181.62C85.4983 181.544 85.4688 181.459 85.4566 181.371C85.4444 181.283 85.4497 181.193 85.4721 181.107C85.4946 181.021 85.5338 180.94 85.5875 180.87C85.6413 180.799 85.7084 180.739 85.7852 180.694L91.2562 177.542C91.3322 177.497 91.4164 177.468 91.5038 177.456C91.5912 177.444 91.6801 177.449 91.7654 177.471C91.8507 177.494 91.9308 177.533 92.0008 177.587C92.0709 177.64 92.1296 177.707 92.1736 177.784C92.2187 177.86 92.2482 177.945 92.2604 178.033C92.2726 178.121 92.2673 178.211 92.2448 178.297C92.2224 178.383 92.1832 178.464 92.1294 178.534C92.0757 178.605 92.0085 178.665 91.9318 178.71L86.4607 181.862C86.3602 181.923 86.2447 181.955 86.1271 181.954Z" fill="#455A64"/>
<path d="M86.1271 185.148C85.9785 185.148 85.8338 185.1 85.7156 185.01C85.5973 184.92 85.5121 184.793 85.4732 184.649C85.4342 184.506 85.4437 184.354 85.5001 184.216C85.5565 184.079 85.6567 183.963 85.7852 183.889L91.2562 180.736C91.3319 180.69 91.4161 180.66 91.5038 180.647C91.5914 180.634 91.6807 180.64 91.7663 180.662C91.852 180.685 91.9322 180.724 92.0022 180.779C92.0721 180.833 92.1305 180.901 92.1736 180.978C92.2185 181.054 92.2478 181.138 92.2599 181.226C92.272 181.313 92.2667 181.402 92.2442 181.487C92.2217 181.573 92.1825 181.653 92.1289 181.723C92.0753 181.793 92.0083 181.851 91.9318 181.895L86.4607 185.056C86.3587 185.114 86.2442 185.145 86.1271 185.148Z" fill="#455A64"/>
<path d="M134.649 150.954V155.8C134.649 156.792 135.35 157.192 136.209 156.7L201.202 119.12V110.663L136.217 148.243C135.761 148.54 135.381 148.94 135.108 149.411C134.836 149.882 134.679 150.411 134.649 150.954Z" fill="#E6E6E6"/>
<path d="M209.392 105.918C210.226 105.418 210.952 105.826 210.952 106.819V111.664C210.922 112.205 210.765 112.732 210.494 113.201C210.223 113.67 209.846 114.07 209.392 114.366L201.202 119.095V110.663L209.392 105.918Z" fill="#7000FF"/>
<path d="M208.784 112.59L207.874 112.298C207.967 111.913 208.015 111.518 208.016 111.122C208.059 110.752 208.004 110.378 207.858 110.036C207.712 109.694 207.479 109.396 207.182 109.171C206.976 109.061 206.744 109.009 206.51 109.021C206.276 109.032 206.051 109.107 205.856 109.237C205.275 109.683 204.806 110.26 204.489 110.921C204.172 111.582 204.014 112.308 204.03 113.04C203.987 113.41 204.042 113.784 204.188 114.127C204.334 114.469 204.567 114.767 204.864 114.992C205.039 115.091 205.238 115.143 205.439 115.142C205.704 115.139 205.964 115.064 206.19 114.925C206.887 114.448 207.406 113.753 207.666 112.949L208.583 113.232C208.616 113.24 208.651 113.24 208.683 113.232C208.769 113.241 208.854 113.217 208.922 113.164C208.99 113.112 209.034 113.035 209.047 112.95C209.06 112.866 209.04 112.779 208.991 112.709C208.942 112.639 208.868 112.59 208.784 112.573V112.59ZM205.856 114.341C205.762 114.41 205.651 114.452 205.535 114.462C205.419 114.472 205.302 114.451 205.197 114.4C205.013 114.228 204.873 114.016 204.787 113.779C204.702 113.543 204.674 113.29 204.705 113.04C204.696 112.427 204.825 111.819 205.082 111.262C205.339 110.705 205.717 110.213 206.19 109.821C206.316 109.745 206.459 109.702 206.607 109.696C206.692 109.693 206.777 109.717 206.849 109.763C207.033 109.934 207.173 110.147 207.259 110.383C207.344 110.619 207.372 110.873 207.341 111.122C207.348 111.734 207.219 112.34 206.962 112.896C206.705 113.451 206.327 113.942 205.856 114.333V114.341Z" fill="#FAFAFA"/>
<path d="M107.636 164.74L98.2535 170.136C97.8 170.429 97.4223 170.825 97.1512 171.291C96.8802 171.758 96.7234 172.283 96.6939 172.821V177.65C96.6939 178.643 97.3944 179.043 98.2535 178.551L107.636 173.122C108.088 172.827 108.465 172.429 108.734 171.961C109.004 171.493 109.159 170.967 109.187 170.428V165.632C109.187 164.648 108.495 164.24 107.636 164.74Z" fill="#7000FF"/>
<path d="M270.808 70.523C269.745 71.2175 268.861 72.1524 268.226 73.2521C267.592 74.3517 267.225 75.5854 267.155 76.8531C267.155 79.1883 268.823 80.1307 270.808 78.9715C271.873 78.2766 272.76 77.3407 273.396 76.2395C274.032 75.1384 274.4 73.9028 274.469 72.6331C274.469 70.2979 272.826 69.3554 270.808 70.523Z" fill="#7000FF"/>
<path d="M270.383 74.226C270.269 74.228 270.156 74.1992 270.058 74.1426C269.941 74.0604 269.848 73.9497 269.787 73.8213C269.726 73.6928 269.698 73.5508 269.707 73.4087C269.723 73.0744 269.818 72.7486 269.985 72.4585C270.152 72.1684 270.385 71.9223 270.666 71.7407C270.78 71.6506 270.919 71.5968 271.064 71.5863C271.209 71.5759 271.354 71.6092 271.48 71.682C271.605 71.7548 271.706 71.8637 271.77 71.9946C271.833 72.1256 271.855 72.2724 271.834 72.4163C271.816 72.751 271.719 73.0767 271.551 73.3667C271.383 73.6567 271.148 73.9026 270.866 74.0842C270.72 74.171 270.553 74.2197 270.383 74.226Z" fill="white"/>
<path d="M272.251 74.4846C272.048 74.3832 271.821 74.3389 271.595 74.3566C271.369 74.3742 271.151 74.453 270.967 74.5846L270.433 74.8932C269.949 75.2003 269.545 75.6186 269.254 76.1132C268.964 76.6078 268.796 77.1646 268.765 77.7372V78.1208C269.091 78.262 269.449 78.3162 269.803 78.2782C270.156 78.2402 270.494 78.1113 270.783 77.904C271.625 77.3806 272.319 76.6516 272.801 75.7856V75.6939C272.824 75.4617 272.785 75.2276 272.689 75.0153C272.592 74.803 272.441 74.6199 272.251 74.4846Z" fill="white"/>
<path d="M257.873 81.8321V80.5394C257.873 79.0715 256.98 78.396 255.879 79.0298C255.27 79.4656 254.772 80.0381 254.424 80.7016C254.077 81.365 253.889 82.1007 253.878 82.8496V84.0088C253.851 84.8052 253.619 85.5811 253.202 86.2606C253.099 86.4383 253.042 86.639 253.036 86.8444C253.036 87.2197 253.261 87.3865 253.536 87.2281L258.215 84.5342C258.367 84.4225 258.491 84.277 258.578 84.1091C258.665 83.9413 258.712 83.7557 258.715 83.5668C258.72 83.4944 258.71 83.4218 258.684 83.354C258.658 83.2862 258.617 83.2251 258.565 83.1748C258.33 83.0446 258.138 82.8475 258.015 82.6085C257.892 82.3694 257.842 82.0993 257.873 81.8321Z" fill="#7000FF"/>
<path d="M256.872 85.7352C256.866 86.0946 256.776 86.4476 256.609 86.7661C256.443 87.0846 256.204 87.3599 255.913 87.57C255.379 87.8702 254.945 87.57 254.945 86.8444L256.872 85.7352Z" fill="#7000FF"/>
<path d="M240.626 87.9703C240.881 87.8191 241.165 87.7225 241.46 87.6868C241.691 87.6597 241.924 87.7064 242.127 87.8202C242.323 87.9403 242.477 88.1179 242.569 88.3289C242.676 88.6192 242.719 88.9295 242.694 89.238C242.697 89.5187 242.666 89.7987 242.602 90.072C242.542 90.3165 242.464 90.5562 242.369 90.7892C242.278 91.0087 242.175 91.2231 242.06 91.4314L241.727 92.0319C241.626 92.2237 241.526 92.4239 241.443 92.6157C241.363 92.8003 241.304 92.9933 241.268 93.1912C241.259 93.2857 241.237 93.3785 241.201 93.4664C241.173 93.5333 241.127 93.591 241.068 93.6332L240.125 94.1753C240.067 94.1753 240.017 94.1753 239.983 94.1753C239.96 94.1497 239.941 94.1195 239.93 94.0864C239.918 94.0534 239.914 94.0183 239.917 93.9835C239.915 93.7265 239.952 93.4708 240.025 93.2245C240.092 92.9828 240.176 92.746 240.275 92.5156C240.384 92.2904 240.492 92.0653 240.617 91.8568C240.742 91.6483 240.842 91.4398 240.951 91.2563C241.059 91.0728 241.134 90.881 241.209 90.7058C241.272 90.5492 241.306 90.3825 241.31 90.2138C241.31 89.9803 241.251 89.8301 241.143 89.7718C241.034 89.7134 240.851 89.7718 240.617 89.8718C240.417 89.977 240.248 90.1321 240.125 90.3222C240.033 90.472 239.958 90.6314 239.9 90.7976L239.783 91.2146C239.757 91.3276 239.688 91.4262 239.592 91.4898L238.649 92.0319C238.632 92.0441 238.612 92.0507 238.591 92.0507C238.57 92.0507 238.549 92.0441 238.532 92.0319C238.513 92.0088 238.499 91.9822 238.491 91.9535C238.482 91.9249 238.479 91.8948 238.482 91.8651C238.494 91.5406 238.545 91.2186 238.632 90.906C238.739 90.5355 238.878 90.1754 239.049 89.8301C239.231 89.4661 239.455 89.1247 239.717 88.8127C239.966 88.4793 240.274 88.194 240.626 87.9703ZM241.293 95.6765C241.293 95.7659 241.273 95.8542 241.234 95.935C241.203 96.0069 241.15 96.0678 241.084 96.1102L240.117 96.6689C240.108 96.6783 240.097 96.6857 240.084 96.6907C240.072 96.6958 240.059 96.6984 240.046 96.6984C240.033 96.6984 240.02 96.6958 240.008 96.6907C239.995 96.6857 239.984 96.6783 239.975 96.6689C239.951 96.6434 239.933 96.6131 239.921 96.5801C239.91 96.5471 239.906 96.512 239.908 96.4771V95.2845C239.911 95.1944 239.933 95.1059 239.975 95.026C240.001 94.9511 240.051 94.8867 240.117 94.8425L241.084 94.2837C241.105 94.2661 241.132 94.2564 241.159 94.2564C241.187 94.2564 241.213 94.2661 241.234 94.2837C241.257 94.3084 241.273 94.3375 241.283 94.3691C241.293 94.4008 241.297 94.4342 241.293 94.4672V95.6765Z" fill="#7000FF"/>
<path d="M224.579 119.362V135.942C224.579 137.185 225.413 137.685 226.523 137.068L248.157 124.558C248.718 124.192 249.187 123.7 249.524 123.121C249.862 122.541 250.059 121.891 250.1 121.222V104.667C250.1 103.433 249.266 102.924 248.157 103.549L226.473 116.059C225.924 116.427 225.469 116.917 225.14 117.49C224.812 118.062 224.62 118.703 224.579 119.362Z" fill="#7000FF"/>
<path opacity="0.5" d="M224.579 119.362V135.942C224.579 137.185 225.413 137.685 226.523 137.068L248.157 124.558C248.718 124.192 249.187 123.7 249.524 123.121C249.862 122.541 250.059 121.891 250.1 121.222V104.667C250.1 103.433 249.266 102.924 248.157 103.549L226.473 116.059C225.924 116.427 225.469 116.917 225.14 117.49C224.812 118.062 224.62 118.703 224.579 119.362Z" fill="white"/>
<path d="M233.829 126.318V119.07C233.834 118.709 233.977 118.363 234.228 118.103C234.479 117.843 234.819 117.688 235.18 117.669L241.793 117.377C242.536 117.377 242.727 117.769 242.235 118.32L234.729 126.66C234.237 127.21 233.829 127.06 233.829 126.318Z" fill="#FAFAFA"/>
<path d="M256.322 99.9966L273.836 89.8635C274.319 89.5883 274.711 89.7884 274.711 90.3055C274.689 90.598 274.599 90.8812 274.446 91.132C274.294 91.3827 274.085 91.594 273.836 91.7484L256.322 101.881C255.838 102.157 255.488 101.957 255.488 101.439C255.504 101.15 255.588 100.869 255.733 100.619C255.878 100.368 256.079 100.155 256.322 99.9966Z" fill="#455A64"/>
<path d="M256.322 103.758L273.836 93.6332C274.319 93.358 274.711 93.5498 274.711 94.0752C274.689 94.3677 274.599 94.6509 274.446 94.9017C274.294 95.1524 274.085 95.3636 273.836 95.518L256.322 105.643C255.838 105.926 255.488 105.726 255.488 105.209C255.504 104.919 255.588 104.637 255.733 104.385C255.878 104.133 256.079 103.918 256.322 103.758Z" fill="#455A64"/>
<path d="M256.322 107.419L273.836 97.2861C274.319 97.0109 274.711 97.2111 274.711 97.7281C274.689 98.0206 274.599 98.3038 274.446 98.5546C274.294 98.8054 274.085 99.0166 273.836 99.171L256.322 109.296C255.838 109.579 255.488 109.379 255.488 108.862C255.503 108.573 255.587 108.292 255.732 108.041C255.877 107.79 256.079 107.577 256.322 107.419Z" fill="#455A64"/>
<path d="M256.038 112.648L268.081 105.693C268.406 105.501 268.673 105.643 268.673 105.993C268.658 106.193 268.597 106.387 268.494 106.559C268.391 106.731 268.25 106.877 268.081 106.986L256.038 113.941C255.713 114.125 255.446 113.991 255.446 113.633C255.461 113.434 255.522 113.241 255.625 113.07C255.728 112.899 255.869 112.755 256.038 112.648Z" fill="#E0E0E0"/>
<path d="M256.038 115.234L268.081 108.278C268.406 108.086 268.673 108.228 268.673 108.578C268.658 108.778 268.597 108.972 268.494 109.145C268.391 109.317 268.25 109.463 268.081 109.571L256.038 116.526C255.713 116.71 255.446 116.577 255.446 116.218C255.461 116.019 255.522 115.826 255.625 115.655C255.728 115.485 255.869 115.34 256.038 115.234Z" fill="#E0E0E0"/>
<path d="M256.038 117.736L268.081 110.789C268.406 110.597 268.673 110.73 268.673 111.089C268.658 111.289 268.597 111.483 268.494 111.655C268.391 111.827 268.25 111.973 268.081 112.081L256.038 119.028C255.713 119.22 255.446 119.087 255.446 118.728C255.461 118.528 255.522 118.334 255.625 118.162C255.728 117.99 255.869 117.844 256.038 117.736Z" fill="#E0E0E0"/>
<path d="M224.579 148.844V165.407C224.579 166.65 225.413 167.15 226.523 166.533L248.157 154.023C248.718 153.657 249.187 153.165 249.524 152.586C249.862 152.006 250.059 151.356 250.1 150.687V134.132C250.1 132.89 249.266 132.389 248.157 133.006L226.473 145.516C225.921 145.886 225.463 146.38 225.134 146.957C224.805 147.535 224.616 148.181 224.579 148.844Z" fill="#7000FF"/>
<path opacity="0.5" d="M224.579 148.844V165.407C224.579 166.65 225.413 167.15 226.523 166.533L248.157 154.023C248.718 153.657 249.187 153.165 249.524 152.586C249.862 152.006 250.059 151.356 250.1 150.687V134.132C250.1 132.89 249.266 132.389 248.157 133.006L226.473 145.516C225.921 145.886 225.463 146.38 225.134 146.957C224.805 147.535 224.616 148.181 224.579 148.844Z" fill="white"/>
<path d="M233.829 155.791V148.552C233.832 148.19 233.975 147.844 234.226 147.583C234.477 147.323 234.818 147.168 235.18 147.151L241.793 146.859C242.536 146.859 242.727 147.251 242.235 147.801L234.729 156.142C234.237 156.692 233.829 156.542 233.829 155.791Z" fill="#FAFAFA"/>
<path d="M256.322 129.47L273.836 119.345C274.319 119.07 274.711 119.262 274.711 119.787C274.689 120.08 274.599 120.363 274.446 120.614C274.294 120.865 274.085 121.076 273.836 121.23L256.322 131.355C255.838 131.639 255.488 131.438 255.488 130.921C255.504 130.631 255.588 130.349 255.733 130.097C255.878 129.845 256.079 129.631 256.322 129.47Z" fill="#455A64"/>
<path d="M256.322 133.24L273.836 123.115C274.319 122.84 274.711 123.032 274.711 123.557C274.688 123.849 274.597 124.132 274.445 124.383C274.293 124.633 274.084 124.845 273.836 125L256.322 135.125C255.838 135.4 255.488 135.208 255.488 134.683C255.504 134.394 255.588 134.113 255.733 133.862C255.878 133.612 256.079 133.398 256.322 133.24Z" fill="#455A64"/>
<path d="M256.322 136.893L273.836 126.768C274.319 126.493 274.711 126.685 274.711 127.21C274.689 127.503 274.599 127.786 274.446 128.036C274.294 128.287 274.085 128.498 273.836 128.653L256.322 138.778C255.838 139.053 255.488 138.861 255.488 138.336C255.505 138.047 255.59 137.766 255.735 137.516C255.88 137.266 256.08 137.052 256.322 136.893Z" fill="#455A64"/>
<path d="M256.038 142.122L268.081 135.175C268.406 134.983 268.673 135.116 268.673 135.475C268.658 135.675 268.597 135.869 268.494 136.041C268.391 136.213 268.25 136.359 268.081 136.467L256.038 143.448C255.713 143.64 255.446 143.506 255.446 143.148C255.456 142.942 255.515 142.742 255.618 142.563C255.721 142.385 255.865 142.233 256.038 142.122Z" fill="#E0E0E0"/>
<path d="M256.038 144.707L268.081 137.76C268.406 137.568 268.673 137.702 268.673 138.06C268.658 138.26 268.597 138.454 268.494 138.626C268.391 138.799 268.25 138.945 268.081 139.053L256.038 146C255.713 146.192 255.446 146.058 255.446 145.7C255.461 145.5 255.522 145.306 255.625 145.134C255.728 144.961 255.869 144.815 256.038 144.707Z" fill="#E0E0E0"/>
<path d="M256.038 147.218L268.081 140.27C268.406 140.079 268.673 140.212 268.673 140.571C268.658 140.771 268.597 140.965 268.494 141.137C268.391 141.309 268.25 141.455 268.081 141.563L256.038 148.51C255.713 148.702 255.446 148.569 255.446 148.21C255.461 148.01 255.522 147.816 255.625 147.644C255.728 147.472 255.869 147.326 256.038 147.218Z" fill="#E0E0E0"/>
<path d="M224.579 178.301V194.864C224.579 196.107 225.413 196.607 226.523 195.99L248.157 183.48C248.718 183.114 249.187 182.622 249.524 182.043C249.862 181.463 250.059 180.813 250.1 180.144V163.589C250.1 162.355 249.266 161.846 248.157 162.472L226.473 174.982C225.922 175.351 225.465 175.843 225.137 176.419C224.808 176.995 224.617 177.639 224.579 178.301Z" fill="#7000FF"/>
<path opacity="0.5" d="M224.579 178.301V194.864C224.579 196.107 225.413 196.607 226.523 195.99L248.157 183.48C248.718 183.114 249.187 182.622 249.524 182.043C249.862 181.463 250.059 180.813 250.1 180.144V163.589C250.1 162.355 249.266 161.846 248.157 162.472L226.473 174.982C225.922 175.351 225.465 175.843 225.137 176.419C224.808 176.995 224.617 177.639 224.579 178.301Z" fill="white"/>
<path d="M233.829 185.256V178.009C233.834 177.648 233.977 177.302 234.228 177.042C234.479 176.782 234.819 176.627 235.18 176.608L241.793 176.316C242.536 176.316 242.727 176.708 242.235 177.258L234.729 185.598C234.237 186.149 233.829 185.982 233.829 185.256Z" fill="#FAFAFA"/>
<path d="M256.322 158.935L273.836 148.802C274.319 148.527 274.711 148.727 274.711 149.244C274.689 149.537 274.599 149.82 274.446 150.071C274.294 150.322 274.085 150.533 273.836 150.687L256.322 160.82C255.838 161.095 255.488 160.895 255.488 160.378C255.503 160.089 255.587 159.808 255.732 159.557C255.877 159.306 256.079 159.093 256.322 158.935Z" fill="#455A64"/>
<path d="M256.322 162.697L273.836 152.572C274.319 152.297 274.711 152.489 274.711 153.014C274.689 153.306 274.599 153.59 274.446 153.84C274.294 154.091 274.085 154.302 273.836 154.457L256.322 164.582C255.838 164.865 255.488 164.665 255.488 164.148C255.504 163.858 255.588 163.576 255.733 163.324C255.878 163.072 256.079 162.857 256.322 162.697Z" fill="#455A64"/>
<path d="M256.322 166.358L273.836 156.225C274.319 155.95 274.711 156.15 274.711 156.667C274.689 156.959 274.599 157.243 274.446 157.493C274.294 157.744 274.085 157.955 273.836 158.11L256.322 168.234C255.838 168.518 255.488 168.318 255.488 167.801C255.503 167.512 255.587 167.23 255.732 166.98C255.877 166.729 256.079 166.516 256.322 166.358Z" fill="#455A64"/>
<path d="M256.038 171.587L268.081 164.632C268.406 164.44 268.673 164.582 268.673 164.932C268.658 165.132 268.597 165.326 268.494 165.498C268.391 165.67 268.25 165.816 268.081 165.924L256.038 172.88C255.713 173.063 255.446 172.93 255.446 172.571C255.461 172.372 255.522 172.18 255.625 172.009C255.728 171.838 255.869 171.694 256.038 171.587Z" fill="#E0E0E0"/>
<path d="M256.038 174.173L268.081 167.217C268.406 167.025 268.673 167.167 268.673 167.517C268.658 167.717 268.597 167.911 268.494 168.083C268.391 168.256 268.25 168.402 268.081 168.51L256.038 175.465C255.713 175.649 255.446 175.515 255.446 175.157C255.461 174.958 255.522 174.765 255.625 174.594C255.728 174.423 255.869 174.279 256.038 174.173Z" fill="#E0E0E0"/>
<path d="M256.038 176.675L268.081 169.727C268.406 169.535 268.673 169.669 268.673 170.028C268.658 170.228 268.597 170.421 268.494 170.594C268.391 170.766 268.25 170.912 268.081 171.02L256.038 177.967C255.713 178.159 255.446 178.026 255.446 177.667C255.461 177.467 255.522 177.273 255.625 177.101C255.728 176.929 255.869 176.783 256.038 176.675Z" fill="#E0E0E0"/>
<path d="M224.579 207.783V224.346C224.579 225.58 225.413 226.081 226.523 225.464L248.157 212.954C248.719 212.588 249.188 212.096 249.525 211.517C249.863 210.937 250.059 210.287 250.1 209.618V193.063C250.1 191.828 249.266 191.328 248.157 191.945L226.473 204.455C225.921 204.825 225.463 205.318 225.134 205.896C224.805 206.473 224.616 207.119 224.579 207.783Z" fill="#7000FF"/>
<path opacity="0.5" d="M224.579 207.783V224.346C224.579 225.58 225.413 226.081 226.523 225.464L248.157 212.954C248.719 212.588 249.188 212.096 249.525 211.517C249.863 210.937 250.059 210.287 250.1 209.618V193.063C250.1 191.828 249.266 191.328 248.157 191.945L226.473 204.455C225.921 204.825 225.463 205.318 225.134 205.896C224.805 206.473 224.616 207.119 224.579 207.783Z" fill="white"/>
<path d="M233.829 214.738V207.499C233.832 207.137 233.974 206.789 234.225 206.527C234.476 206.265 234.817 206.109 235.18 206.09L241.793 205.806C242.536 205.806 242.727 206.19 242.235 206.749L234.729 215.089C234.237 215.639 233.829 215.481 233.829 214.738Z" fill="#FAFAFA"/>
<path d="M256.322 188.417L273.836 178.293C274.319 178.009 274.711 178.209 274.711 178.726C274.69 179.019 274.6 179.302 274.447 179.553C274.295 179.804 274.085 180.015 273.836 180.169L256.322 190.302C255.838 190.577 255.488 190.385 255.488 189.86C255.504 189.571 255.588 189.29 255.733 189.04C255.878 188.789 256.079 188.576 256.322 188.417Z" fill="#455A64"/>
<path d="M256.322 192.187L273.836 182.054C274.319 181.779 274.711 181.979 274.711 182.496C274.689 182.788 274.599 183.072 274.446 183.322C274.294 183.573 274.085 183.784 273.836 183.939L256.322 194.072C255.838 194.347 255.488 194.147 255.488 193.63C255.504 193.341 255.588 193.06 255.733 192.809C255.878 192.559 256.079 192.346 256.322 192.187Z" fill="#455A64"/>
<path d="M256.322 195.84L273.836 185.707C274.319 185.432 274.711 185.632 274.711 186.149C274.69 186.441 274.6 186.725 274.447 186.976C274.295 187.227 274.085 187.438 273.836 187.592L256.322 197.725C255.838 198 255.488 197.8 255.488 197.283C255.504 196.994 255.588 196.713 255.733 196.462C255.878 196.212 256.079 195.998 256.322 195.84Z" fill="#455A64"/>
<path d="M256.038 201.069L268.081 194.113C268.406 193.93 268.673 194.063 268.673 194.422C268.658 194.621 268.597 194.814 268.494 194.985C268.391 195.155 268.25 195.3 268.081 195.406L256.038 202.362C255.713 202.554 255.446 202.412 255.446 202.062C255.461 201.861 255.522 201.668 255.625 201.495C255.728 201.323 255.869 201.177 256.038 201.069Z" fill="#E0E0E0"/>
<path d="M256.038 203.654L268.081 196.699C268.406 196.515 268.673 196.649 268.673 197.007C268.658 197.206 268.597 197.399 268.494 197.57C268.391 197.741 268.25 197.885 268.081 197.992L256.038 204.947C255.713 205.139 255.446 204.997 255.446 204.647C255.461 204.447 255.522 204.253 255.625 204.081C255.728 203.909 255.869 203.763 256.038 203.654Z" fill="#E0E0E0"/>
<path d="M256.038 206.156L268.081 199.209C268.406 199.017 268.673 199.159 268.673 199.509C268.658 199.709 268.597 199.903 268.494 200.076C268.391 200.248 268.25 200.394 268.081 200.502L256.038 207.449C255.713 207.641 255.446 207.508 255.446 207.149C255.461 206.949 255.522 206.755 255.625 206.583C255.728 206.411 255.869 206.265 256.038 206.156Z" fill="#E0E0E0"/>
<path d="M89.8969 287.513L155.299 249.75C156.367 249.132 157.242 249.575 157.234 250.734C157.186 251.387 156.985 252.019 156.648 252.58C156.31 253.14 155.845 253.614 155.291 253.961L89.8969 291.725C88.8294 292.342 87.9537 291.9 87.9537 290.741C88.0015 290.088 88.2024 289.456 88.54 288.895C88.8776 288.334 89.3424 287.861 89.8969 287.513Z" fill="#455A64"/>
<path d="M89.0461 295.136L125.742 273.977C126.351 273.627 126.835 273.869 126.835 274.528C126.806 274.894 126.693 275.248 126.503 275.562C126.313 275.877 126.053 276.142 125.742 276.338L89.0878 297.496C88.4874 297.846 87.9953 297.596 87.9953 296.946C88.0189 296.583 88.126 296.231 88.3083 295.917C88.4906 295.603 88.7432 295.336 89.0461 295.136Z" fill="#E0E0E0"/>
<path d="M103.324 294.294L150.17 267.255C151.238 266.63 152.113 267.072 152.113 268.239C152.065 268.892 151.864 269.524 151.527 270.085C151.189 270.646 150.724 271.119 150.17 271.467L103.324 298.505C102.248 299.122 101.381 298.689 101.381 297.521C101.429 296.868 101.63 296.236 101.967 295.675C102.305 295.115 102.77 294.641 103.324 294.294Z" fill="#455A64"/>
<path d="M102.465 301.908L120.571 291.458C121.18 291.108 121.664 291.358 121.664 292.008C121.638 292.375 121.525 292.73 121.335 293.045C121.145 293.359 120.883 293.624 120.571 293.818L102.465 304.268C101.865 304.61 101.381 304.368 101.381 303.718C101.406 303.352 101.518 302.997 101.706 302.683C101.895 302.368 102.155 302.103 102.465 301.908Z" fill="#E0E0E0"/>
<path d="M93.016 299.097C91.5303 300.066 90.2939 301.372 89.4071 302.907C88.5203 304.443 88.0081 306.167 87.9119 307.938C87.9119 311.19 90.1971 312.517 93.016 310.882C94.5026 309.914 95.7397 308.609 96.6266 307.073C97.5136 305.537 98.0253 303.813 98.1201 302.041C98.1201 298.789 95.8349 297.471 93.016 299.097Z" fill="#7000FF"/>
<path d="M92.4238 304.285C92.2629 304.291 92.1035 304.251 91.9651 304.168C91.7988 304.059 91.6652 303.907 91.5786 303.727C91.4919 303.548 91.4555 303.349 91.4731 303.151C91.4958 302.683 91.6303 302.228 91.8654 301.823C92.1005 301.418 92.4293 301.075 92.8242 300.824C92.9864 300.709 93.1771 300.64 93.3755 300.625C93.5739 300.611 93.7726 300.65 93.9501 300.74C94.1164 300.85 94.25 301.002 94.3366 301.181C94.4233 301.36 94.4597 301.56 94.4421 301.758C94.4196 302.225 94.2861 302.679 94.0525 303.084C93.819 303.489 93.4922 303.832 93.0994 304.085C92.8952 304.209 92.6625 304.278 92.4238 304.285Z" fill="white"/>
<path d="M95.076 304.627C94.791 304.485 94.4729 304.424 94.1557 304.449C93.8385 304.474 93.534 304.584 93.2746 304.769L92.5407 305.194C91.867 305.625 91.3065 306.211 90.906 306.903C90.5055 307.595 90.2767 308.373 90.2388 309.172V309.698C90.6943 309.897 91.1938 309.974 91.6881 309.921C92.1824 309.869 92.6545 309.688 93.0577 309.397C94.2327 308.668 95.2027 307.652 95.8767 306.445V306.32C95.9049 305.992 95.8456 305.663 95.705 305.365C95.5643 305.068 95.3473 304.813 95.076 304.627Z" fill="white"/>
<path d="M181.061 251.718L202.695 239.208C203.771 238.591 204.647 239.091 204.647 240.334V244.262C204.605 244.932 204.406 245.582 204.067 246.162C203.729 246.741 203.259 247.233 202.695 247.598L181.061 260.108C179.985 260.725 179.118 260.225 179.118 258.982V255.054C179.159 254.385 179.356 253.734 179.694 253.155C180.031 252.576 180.5 252.084 181.061 251.718Z" fill="#7000FF"/>
<path opacity="0.7" d="M181.061 251.718L202.695 239.208C203.771 238.591 204.647 239.091 204.647 240.334V244.262C204.605 244.932 204.406 245.582 204.067 246.162C203.729 246.741 203.259 247.233 202.695 247.598L181.061 260.108C179.985 260.725 179.118 260.225 179.118 258.982V255.054C179.159 254.385 179.356 253.734 179.694 253.155C180.031 252.576 180.5 252.084 181.061 251.718Z" fill="white"/>
<path d="M212.553 237.507V236.214C212.553 234.746 211.661 234.062 210.552 234.704C209.943 235.14 209.445 235.713 209.097 236.376C208.75 237.04 208.562 237.775 208.55 238.524V239.683C208.527 240.479 208.297 241.255 207.883 241.935C207.783 242.117 207.729 242.32 207.724 242.527C207.724 242.902 207.95 243.069 208.225 242.911L212.895 240.209C213.05 240.1 213.177 239.957 213.265 239.79C213.353 239.624 213.401 239.438 213.404 239.25C213.411 239.177 213.4 239.104 213.374 239.036C213.348 238.968 213.307 238.907 213.254 238.858C213.018 238.725 212.826 238.527 212.701 238.287C212.577 238.047 212.525 237.776 212.553 237.507Z" fill="#455A64"/>
<path d="M211.511 241.401C211.507 241.761 211.419 242.115 211.252 242.434C211.085 242.753 210.845 243.028 210.552 243.236C210.026 243.545 209.593 243.236 209.593 242.51L211.511 241.401Z" fill="#455A64"/>
<path d="M173.314 243.837C173.271 244.138 173.116 244.412 172.88 244.604C172.927 244.72 172.949 244.845 172.947 244.971C172.928 245.152 172.867 245.327 172.768 245.48C172.67 245.634 172.536 245.762 172.379 245.855L169.836 247.331V243.995C169.836 243.937 170.536 242.402 170.595 242.169C170.628 241.775 170.628 241.378 170.595 240.984C170.658 240.866 170.758 240.772 170.881 240.718C171.003 240.663 171.14 240.652 171.27 240.684C171.34 240.718 171.394 240.778 171.42 240.851C171.494 241.019 171.548 241.195 171.579 241.376C171.611 241.694 171.592 242.015 171.52 242.327L173.063 241.435C173.106 241.403 173.156 241.383 173.208 241.376C173.261 241.368 173.314 241.374 173.364 241.393C173.416 241.431 173.458 241.481 173.486 241.539C173.513 241.598 173.526 241.662 173.522 241.727C173.511 241.97 173.423 242.203 173.272 242.394C173.272 242.394 173.58 242.302 173.58 242.711C173.572 242.856 173.534 242.998 173.47 243.128C173.405 243.259 173.315 243.375 173.205 243.47C173.205 243.47 173.314 243.528 173.314 243.837Z" fill="#7000FF"/>
<path d="M169.469 247.114V247.823C169.466 247.873 169.452 247.921 169.427 247.965C169.402 248.008 169.368 248.045 169.327 248.073L168.493 248.549C168.447 248.561 168.398 248.561 168.351 248.549V244.729L169.018 244.345L169.419 244.112C169.43 244.161 169.43 244.213 169.419 244.262L169.469 247.114Z" fill="#7000FF"/>
<path d="M191.361 230.818C191.363 230.767 191.351 230.717 191.327 230.672C191.303 230.628 191.268 230.59 191.225 230.563C191.182 230.536 191.133 230.521 191.082 230.519C191.031 230.517 190.981 230.528 190.936 230.551C190.977 230.407 191 230.259 191.003 230.109C191.003 229.825 190.769 229.684 190.436 229.875L187.892 231.343V234.679C188.17 234.974 188.426 235.289 188.659 235.622C188.692 236.019 188.692 236.417 188.659 236.814C188.659 236.939 189.068 236.756 189.335 236.331C189.395 236.224 189.445 236.112 189.485 235.997C189.553 235.765 189.603 235.528 189.635 235.288C189.674 234.99 189.657 234.687 189.585 234.396L191.119 233.512C191.247 233.44 191.351 233.333 191.42 233.203C191.515 233.05 191.569 232.875 191.578 232.694C191.578 232.386 191.411 232.319 191.328 232.311C191.421 232.226 191.497 232.123 191.55 232.008C191.603 231.894 191.632 231.77 191.637 231.643C191.637 231.41 191.495 231.235 191.261 231.318C191.332 231.161 191.366 230.99 191.361 230.818Z" fill="#7000FF"/>
<path d="M187.525 231.977V231.277C187.525 231.185 187.458 231.143 187.375 231.193L186.541 231.66C186.486 231.699 186.436 231.744 186.391 231.794V235.613L187.066 235.23L187.458 234.996C187.481 234.935 187.495 234.87 187.5 234.804L187.525 231.977Z" fill="#7000FF"/>
<path d="M211.002 220.093L208.2 219.259V220.743C207.091 221.215 206.135 221.986 205.439 222.97C203.896 225.272 205.014 226.589 205.531 226.681C205.531 226.681 204.697 226.122 205.614 224.471C206.239 223.558 207.148 222.878 208.2 222.536V224.204L211.002 220.093Z" fill="#7000FF"/>
<path d="M177.417 238.599L180.819 236.639C181.895 236.014 182.763 236.456 182.763 237.623C182.715 238.276 182.514 238.908 182.176 239.469C181.839 240.03 181.374 240.503 180.819 240.851L177.417 242.811C176.341 243.436 175.474 242.994 175.474 241.827C175.521 241.174 175.722 240.542 176.06 239.981C176.397 239.42 176.862 238.947 177.417 238.599Z" fill="#E0E0E0"/>
<path d="M195.648 228.074L199.051 226.106C200.127 225.489 200.994 225.931 200.994 227.09C200.946 227.743 200.745 228.375 200.408 228.936C200.07 229.496 199.605 229.97 199.051 230.317L195.648 232.286C194.572 232.903 193.705 232.469 193.705 231.302C193.753 230.649 193.954 230.016 194.291 229.456C194.629 228.895 195.094 228.422 195.648 228.074Z" fill="#E0E0E0"/>
<path d="M93.2829 185.982L215.322 115.526C216.398 114.9 217.265 115.409 217.265 116.643V203.604C217.225 204.274 217.028 204.924 216.69 205.504C216.353 206.083 215.884 206.575 215.322 206.94L93.2829 277.43C92.2153 278.056 91.3396 277.547 91.3396 276.313V189.318C91.382 188.649 91.5797 187.999 91.917 187.42C92.2543 186.841 92.722 186.349 93.2829 185.982Z" fill="#455A64"/>
<path opacity="0.3" d="M107.386 263.619L196.957 212.12C197.533 211.786 198.008 212.028 198.008 212.653C197.981 213.006 197.872 213.347 197.689 213.649C197.507 213.952 197.256 214.208 196.957 214.396L107.386 265.896C106.802 266.229 106.335 265.988 106.335 265.362C106.36 265.009 106.469 264.667 106.651 264.365C106.834 264.062 107.086 263.806 107.386 263.619Z" fill="white"/>
<path d="M107.386 263.619L188.142 217.207C188.726 216.873 189.193 217.115 189.193 217.741C189.167 218.094 189.059 218.435 188.876 218.738C188.694 219.041 188.442 219.297 188.142 219.484L107.386 265.896C106.802 266.229 106.335 265.988 106.335 265.362C106.36 265.009 106.469 264.667 106.651 264.365C106.834 264.062 107.086 263.806 107.386 263.619Z" fill="white"/>
<path d="M96.427 270.074V272.309C96.4248 272.365 96.4092 272.418 96.3816 272.466C96.354 272.514 96.3152 272.555 96.2685 272.585L95.8349 272.835C95.8192 272.846 95.8005 272.853 95.7811 272.854C95.7618 272.855 95.7425 272.85 95.7257 272.84C95.709 272.831 95.6954 272.816 95.6866 272.799C95.6778 272.782 95.6743 272.762 95.6764 272.743V270.508C95.6805 270.453 95.6969 270.4 95.7243 270.352C95.7517 270.305 95.7895 270.264 95.8349 270.233L96.2685 269.982C96.3603 269.932 96.427 269.974 96.427 270.074Z" fill="white"/>
<path d="M97.9282 269.207V271.442C97.926 271.497 97.9105 271.551 97.8829 271.599C97.8553 271.647 97.8165 271.688 97.7698 271.717L97.3444 271.967C97.2527 272.017 97.1776 271.967 97.1776 271.876V269.641C97.1814 269.585 97.1985 269.531 97.2275 269.483C97.2566 269.435 97.2966 269.395 97.3444 269.365L97.7698 269.115C97.8615 269.065 97.9282 269.107 97.9282 269.207Z" fill="white"/>
<path d="M103.9 265.829V268.064C103.896 268.119 103.879 268.172 103.852 268.22C103.824 268.268 103.787 268.308 103.741 268.339L103.549 268.456C103.458 268.506 103.391 268.456 103.391 268.365V266.129C103.393 266.074 103.409 266.02 103.436 265.972C103.464 265.924 103.503 265.884 103.549 265.854L103.741 265.737C103.757 265.726 103.776 265.719 103.795 265.718C103.814 265.717 103.834 265.722 103.85 265.732C103.867 265.741 103.881 265.756 103.889 265.773C103.898 265.79 103.902 265.81 103.9 265.829Z" fill="white"/>
<path d="M100.747 267.564V269.757C100.747 269.916 100.83 269.949 100.939 269.824L102.957 267.497C103.066 267.372 103.016 267.272 102.857 267.272H101.039C100.962 267.272 100.887 267.303 100.833 267.357C100.778 267.412 100.747 267.486 100.747 267.564Z" fill="white"/>
<path d="M208.5 205.856C208.431 205.856 208.366 205.829 208.317 205.78C208.269 205.732 208.241 205.666 208.241 205.598V204.864C208.241 204.82 208.253 204.777 208.275 204.739C208.297 204.7 208.328 204.669 208.367 204.647L209.559 203.963C209.587 203.945 209.619 203.934 209.652 203.929C209.684 203.924 209.718 203.926 209.75 203.934C209.782 203.943 209.812 203.958 209.838 203.979C209.864 204 209.885 204.025 209.901 204.055C209.932 204.113 209.94 204.18 209.923 204.244C209.906 204.307 209.865 204.362 209.809 204.397L208.75 205.006V205.598C208.75 205.665 208.724 205.729 208.677 205.778C208.631 205.826 208.567 205.854 208.5 205.856Z" fill="#FAFAFA"/>
<path d="M213.904 202.737C213.838 202.737 213.774 202.711 213.727 202.664C213.68 202.617 213.654 202.553 213.654 202.487V202.178L212.82 202.645C212.792 202.662 212.76 202.672 212.727 202.677C212.695 202.681 212.662 202.679 212.63 202.67C212.598 202.662 212.568 202.647 212.542 202.627C212.516 202.607 212.494 202.582 212.478 202.554C212.46 202.525 212.449 202.494 212.444 202.461C212.439 202.428 212.441 202.395 212.45 202.363C212.458 202.331 212.473 202.301 212.494 202.275C212.515 202.249 212.54 202.227 212.57 202.212L213.754 201.528C213.791 201.503 213.835 201.49 213.879 201.49C213.924 201.49 213.967 201.503 214.004 201.528C214.044 201.548 214.076 201.58 214.098 201.618C214.121 201.656 214.131 201.7 214.129 201.745V202.487C214.13 202.549 214.107 202.609 214.065 202.655C214.024 202.702 213.966 202.731 213.904 202.737Z" fill="#FAFAFA"/>
<path d="M208.5 209.217C208.459 209.227 208.416 209.227 208.375 209.217C208.336 209.196 208.303 209.164 208.28 209.126C208.256 209.088 208.243 209.045 208.241 209V208.258C208.252 208.199 208.284 208.145 208.33 208.106C208.377 208.067 208.435 208.046 208.496 208.046C208.556 208.046 208.615 208.067 208.661 208.106C208.708 208.145 208.739 208.199 208.75 208.258V208.5L209.584 208.033C209.642 208.002 209.71 207.994 209.773 208.011C209.837 208.028 209.891 208.069 209.926 208.125C209.958 208.184 209.966 208.253 209.949 208.318C209.932 208.383 209.891 208.439 209.834 208.475L208.65 209.159C208.605 209.19 208.554 209.21 208.5 209.217Z" fill="#FAFAFA"/>
<path d="M212.72 206.782C212.665 206.782 212.611 206.764 212.568 206.73C212.524 206.697 212.492 206.65 212.478 206.596C212.464 206.543 212.468 206.487 212.489 206.436C212.51 206.385 212.547 206.342 212.595 206.315L213.654 205.698V205.106C213.654 205.039 213.68 204.976 213.727 204.929C213.774 204.882 213.838 204.855 213.904 204.855C213.971 204.855 214.034 204.882 214.081 204.929C214.128 204.976 214.154 205.039 214.154 205.106V205.848C214.156 205.892 214.146 205.936 214.123 205.974C214.101 206.013 214.069 206.044 214.029 206.065L212.845 206.749C212.807 206.771 212.764 206.783 212.72 206.782Z" fill="#FAFAFA"/>
<path d="M205.781 208.567H205.739H205.256C205.245 208.568 205.234 208.567 205.224 208.564C205.214 208.56 205.205 208.555 205.197 208.548C205.189 208.541 205.183 208.532 205.179 208.522C205.174 208.513 205.172 208.502 205.172 208.492C205.176 208.417 205.176 208.341 205.172 208.266C205.172 208.183 205.172 208.1 205.172 208.025C205.171 207.973 205.189 207.922 205.222 207.883L205.756 207.232C205.767 207.212 205.773 207.189 205.773 207.166C205.773 207.142 205.767 207.119 205.756 207.099L205.506 206.532C205.506 206.532 205.456 206.532 205.431 206.532L204.855 207.057C204.836 207.071 204.812 207.078 204.789 207.078C204.765 207.078 204.741 207.071 204.722 207.057C204.651 206.995 204.569 206.947 204.48 206.915C204.46 206.908 204.444 206.894 204.433 206.876C204.422 206.857 204.418 206.836 204.422 206.815L204.597 205.981C204.597 205.981 204.597 205.94 204.597 205.923H204.547L203.98 205.981C203.955 205.985 203.932 205.995 203.911 206.009C203.891 206.023 203.874 206.043 203.863 206.065L203.554 206.899C203.531 206.955 203.486 207 203.429 207.024C203.309 207.08 203.195 207.147 203.087 207.224C203.037 207.224 202.987 207.224 202.962 207.224L202.679 206.79C202.679 206.79 202.612 206.79 202.57 206.79L201.953 207.441C201.918 207.48 201.901 207.531 201.903 207.583L202.078 208.166C202.093 208.21 202.093 208.257 202.078 208.3C201.978 208.467 201.878 208.625 201.795 208.8C201.763 208.848 201.716 208.884 201.661 208.9L201.136 209.025C201.108 209.031 201.083 209.043 201.061 209.06C201.039 209.078 201.022 209.1 201.011 209.125L200.744 210.018C200.741 210.028 200.741 210.038 200.743 210.049C200.745 210.059 200.75 210.068 200.756 210.076C200.763 210.084 200.771 210.091 200.78 210.095C200.79 210.099 200.8 210.102 200.81 210.101H201.294C201.316 210.101 201.337 210.11 201.353 210.126C201.369 210.141 201.378 210.163 201.378 210.185C201.361 210.337 201.361 210.491 201.378 210.643C201.378 210.695 201.36 210.745 201.327 210.785L200.785 211.444C200.774 211.465 200.769 211.487 200.769 211.511C200.769 211.534 200.774 211.557 200.785 211.577L201.044 212.145C201.044 212.145 201.086 212.145 201.111 212.145L201.686 211.619C201.704 211.605 201.726 211.597 201.749 211.597C201.771 211.597 201.793 211.605 201.811 211.619C201.885 211.68 201.966 211.73 202.053 211.769C202.074 211.775 202.092 211.789 202.102 211.808C202.113 211.826 202.117 211.848 202.111 211.869L201.936 212.703C201.936 212.703 201.936 212.745 201.936 212.762H201.986L202.553 212.703C202.58 212.702 202.605 212.693 202.627 212.678C202.649 212.664 202.667 212.644 202.679 212.62L202.979 211.786C203.007 211.735 203.051 211.694 203.104 211.669L203.279 211.569L203.454 211.469C203.454 211.469 203.554 211.427 203.571 211.469L203.863 211.911C203.877 211.919 203.893 211.923 203.909 211.923C203.925 211.923 203.941 211.919 203.955 211.911L204.572 211.261C204.59 211.244 204.604 211.223 204.613 211.2C204.621 211.177 204.624 211.152 204.622 211.127L204.447 210.543C204.432 210.497 204.432 210.448 204.447 210.401C204.552 210.244 204.647 210.08 204.73 209.909C204.761 209.861 204.808 209.825 204.864 209.809L205.397 209.684C205.447 209.684 205.506 209.626 205.514 209.584L205.781 208.683C205.797 208.683 205.811 208.677 205.822 208.666C205.833 208.655 205.839 208.641 205.839 208.625C205.839 208.61 205.833 208.595 205.822 208.584C205.811 208.573 205.797 208.567 205.781 208.567ZM202.954 210.752H202.745C202.631 210.751 202.519 210.716 202.425 210.653C202.33 210.589 202.256 210.499 202.212 210.393C202.17 210.301 202.145 210.202 202.136 210.101C202.132 210.046 202.132 209.99 202.136 209.934C202.168 209.335 202.413 208.767 202.829 208.333C202.953 208.199 203.097 208.084 203.254 207.991L203.396 207.916C203.521 207.859 203.658 207.831 203.796 207.833H203.863C203.961 207.846 204.054 207.885 204.132 207.947C204.21 208.009 204.27 208.09 204.305 208.183C204.394 208.548 204.384 208.931 204.277 209.291C204.17 209.651 203.97 209.977 203.696 210.235C203.504 210.476 203.246 210.656 202.954 210.752Z" fill="white"/>
<path d="M175.782 146.701C178.418 145.174 180.561 146.409 180.561 149.453C180.47 151.11 179.989 152.723 179.159 154.16C178.329 155.597 177.172 156.819 175.782 157.726C173.147 159.252 171.003 158.018 171.003 154.965C171.094 153.309 171.574 151.698 172.404 150.262C173.235 148.826 174.392 147.605 175.782 146.701Z" fill="#7000FF"/>
<path d="M176.259 154.834C176.201 154.868 176.152 154.876 176.112 154.86C176.078 154.834 176.06 154.787 176.06 154.721V149.132L174.63 151.245C174.59 151.309 174.547 151.354 174.501 151.381C174.449 151.411 174.4 151.406 174.354 151.367L174.13 151.168C174.102 151.138 174.087 151.1 174.087 151.054C174.087 150.974 174.116 150.894 174.174 150.814L176.052 148.039C176.115 147.955 176.19 147.888 176.276 147.838L176.715 147.581C176.773 147.548 176.819 147.544 176.853 147.57C176.893 147.587 176.913 147.628 176.913 147.695V154.222C176.913 154.288 176.893 154.357 176.853 154.427C176.819 154.487 176.773 154.534 176.715 154.567L176.259 154.834Z" fill="#455A64"/>
<path d="M186.482 142.906L209.659 129.562C210.301 129.195 210.81 129.453 210.81 130.146C210.784 130.531 210.665 130.905 210.465 131.236C210.265 131.567 209.989 131.845 209.659 132.047L186.482 145.391C185.848 145.758 185.331 145.5 185.331 144.807C185.364 144.423 185.484 144.052 185.684 143.722C185.884 143.392 186.157 143.113 186.482 142.906Z" fill="#7000FF"/>
<path d="M186.124 147.376L202.028 138.202C202.462 137.952 202.82 138.127 202.82 138.602C202.802 138.868 202.721 139.126 202.583 139.353C202.445 139.581 202.255 139.773 202.028 139.912L186.124 149.086C185.69 149.336 185.331 149.161 185.331 148.686C185.349 148.42 185.431 148.162 185.569 147.935C185.706 147.707 185.897 147.515 186.124 147.376Z" fill="#E0E0E0"/>
<path d="M175.782 163.255C178.418 161.738 180.561 162.972 180.561 166.016C180.47 167.673 179.989 169.286 179.159 170.723C178.329 172.16 177.172 173.382 175.782 174.289C173.147 175.807 171.003 174.573 171.003 171.529C171.095 169.871 171.575 168.259 172.405 166.822C173.235 165.384 174.392 164.163 175.782 163.255Z" fill="#7000FF"/>
<path d="M174.501 172.425C174.444 172.459 174.395 172.467 174.354 172.451C174.32 172.424 174.303 172.378 174.303 172.311V171.992C174.303 171.839 174.375 171.651 174.518 171.427L176.345 168.243C176.787 167.559 177.091 167.035 177.258 166.671C177.425 166.301 177.508 165.966 177.508 165.667C177.508 165.281 177.413 165.034 177.224 164.925C177.04 164.813 176.77 164.861 176.414 165.069C176.081 165.264 175.813 165.537 175.612 165.887C175.411 166.231 175.288 166.606 175.242 167.012C175.23 167.098 175.202 167.175 175.156 167.242C175.116 167.299 175.07 167.342 175.018 167.372L174.57 167.634C174.518 167.664 174.475 167.673 174.441 167.66C174.406 167.64 174.389 167.604 174.389 167.55C174.4 167.184 174.484 166.793 174.639 166.376C174.794 165.953 175.021 165.551 175.319 165.17C175.624 164.779 175.989 164.459 176.414 164.211C177.063 163.831 177.551 163.742 177.878 163.943C178.212 164.135 178.378 164.53 178.378 165.128C178.378 165.548 178.286 165.981 178.102 166.427C177.924 166.864 177.646 167.386 177.267 167.994L175.612 170.907L178.301 169.335C178.364 169.299 178.413 169.293 178.447 169.32C178.487 169.336 178.507 169.378 178.507 169.444V169.853C178.507 169.92 178.487 169.988 178.447 170.058C178.407 170.122 178.358 170.17 178.301 170.204L174.501 172.425Z" fill="#455A64"/>
<path d="M186.482 159.461L209.659 146.117C210.301 145.75 210.81 146.008 210.81 146.692C210.784 147.079 210.665 147.454 210.465 147.786C210.265 148.118 209.989 148.398 209.659 148.602L186.482 161.954C185.848 162.321 185.331 162.063 185.331 161.371C185.363 160.985 185.483 160.612 185.682 160.28C185.882 159.949 186.156 159.668 186.482 159.461Z" fill="#7000FF"/>
<path d="M186.124 163.939L202.028 154.765C202.462 154.507 202.82 154.69 202.82 155.157C202.802 155.423 202.721 155.68 202.583 155.908C202.445 156.136 202.255 156.328 202.028 156.467L186.124 165.641C185.69 165.891 185.331 165.707 185.331 165.24C185.351 164.976 185.433 164.72 185.57 164.494C185.708 164.268 185.898 164.078 186.124 163.939Z" fill="#E0E0E0"/>
<path d="M175.782 179.819C178.418 178.292 180.561 179.527 180.561 182.579C180.47 184.236 179.99 185.847 179.16 187.283C178.33 188.719 177.172 189.939 175.782 190.844C173.147 192.37 171.003 191.136 171.003 188.092C171.095 186.435 171.575 184.822 172.405 183.385C173.235 181.948 174.392 180.726 175.782 179.819Z" fill="#7000FF"/>
<path d="M176.448 187.95C175.994 188.215 175.601 188.362 175.268 188.39C174.94 188.409 174.691 188.332 174.518 188.16C174.352 187.984 174.263 187.75 174.251 187.458C174.251 187.398 174.268 187.341 174.303 187.288C174.337 187.228 174.38 187.183 174.432 187.152L174.854 186.906C174.975 186.835 175.055 186.861 175.095 186.984C175.17 187.273 175.331 187.415 175.578 187.411C175.825 187.399 176.115 187.296 176.448 187.101C176.856 186.863 177.181 186.564 177.422 186.203C177.663 185.836 177.784 185.442 177.784 185.023C177.784 184.218 177.361 184.062 176.517 184.556L175.699 185.035C175.641 185.068 175.592 185.077 175.552 185.06C175.518 185.034 175.5 184.987 175.5 184.921V184.651C175.5 184.558 175.532 184.45 175.595 184.327L177.267 181.234L174.725 182.719C174.668 182.753 174.619 182.762 174.579 182.745C174.544 182.719 174.527 182.672 174.527 182.606V182.227C174.527 182.16 174.544 182.093 174.579 182.027C174.619 181.957 174.668 181.905 174.725 181.871L178.163 179.861C178.226 179.824 178.275 179.819 178.309 179.846C178.349 179.862 178.37 179.907 178.37 179.98V180.339C178.37 180.419 178.338 180.514 178.275 180.624L176.612 183.742L176.75 183.672C177.336 183.349 177.798 183.255 178.137 183.39C178.476 183.524 178.645 183.911 178.645 184.55C178.645 184.982 178.55 185.413 178.361 185.843C178.171 186.274 177.91 186.673 177.577 187.04C177.244 187.402 176.867 187.705 176.448 187.95Z" fill="#455A64"/>
<path d="M186.482 176.024L209.659 162.63C210.301 162.263 210.81 162.53 210.81 163.214C210.783 163.6 210.664 163.975 210.464 164.307C210.264 164.639 209.988 164.919 209.659 165.124L186.482 178.518C185.848 178.885 185.331 178.618 185.331 177.934C185.363 177.548 185.483 177.175 185.682 176.844C185.882 176.512 186.156 176.232 186.482 176.024Z" fill="#7000FF"/>
<path d="M186.124 180.503L202.028 171.329C202.462 171.078 202.82 171.262 202.82 171.729C202.802 171.995 202.721 172.252 202.583 172.48C202.445 172.708 202.255 172.899 202.028 173.038L186.124 182.212C185.69 182.471 185.331 182.287 185.331 181.82C185.348 181.553 185.429 181.294 185.567 181.065C185.705 180.835 185.896 180.643 186.124 180.503Z" fill="#E0E0E0"/>
<path d="M155.124 201.928C149.486 202.612 134.316 203.154 134.316 203.154C124.308 198.759 116.485 189.118 115.492 178.251L115.059 173.572C114.225 164.698 120.605 156.417 129.103 153.748C131.595 152.938 134.237 152.7 136.833 153.051C139.429 153.402 141.913 154.333 144.1 155.775C146.287 157.217 148.121 159.133 149.467 161.381C150.812 163.629 151.634 166.151 151.871 168.76C152.08 171.062 152.705 173.097 154.565 174.598C155.605 175.342 156.724 175.968 157.901 176.466C159.594 177.209 161.135 178.258 162.446 179.56C163.096 180.216 163.604 180.999 163.939 181.86C164.273 182.721 164.426 183.641 164.39 184.564C164.257 185.751 163.792 186.876 163.047 187.808C162.905 187.944 162.822 188.129 162.813 188.326C162.843 188.463 162.91 188.59 163.005 188.692C164.732 190.903 165.641 193.955 164.607 196.557C163.887 198.188 162.622 199.518 161.029 200.318C159.438 201.109 157.722 201.62 155.958 201.828L155.124 201.928Z" fill="#263238"/>
<path d="M203.913 186.199C203.619 185.795 203.28 185.426 202.904 185.098C202.245 184.489 201.336 183.93 200.494 184.264C199.999 184.508 199.592 184.898 199.326 185.382C198.792 186.166 198.158 186.891 197.658 187.7C196.973 188.881 196.183 189.997 195.298 191.036C194.922 191.486 194.38 192.104 193.738 191.912C193.623 191.879 193.519 191.816 193.438 191.728C193.368 191.635 193.323 191.526 193.304 191.411C193.226 190.855 193.257 190.288 193.396 189.743C193.531 189.196 193.531 188.623 193.396 188.075C193.32 187.807 193.158 187.57 192.936 187.401C192.713 187.233 192.441 187.142 192.162 187.141C192.006 187.15 191.86 187.219 191.753 187.333C191.68 187.413 191.624 187.507 191.586 187.608C190.495 189.768 189.702 192.066 189.226 194.439C189.118 195.489 188.928 196.529 188.659 197.55C187.95 199.751 185.373 200.886 183.563 202.162C179.623 204.757 175.553 207.15 171.37 209.334C169.319 207.533 156.358 196.224 152.78 193.238C147.626 188.951 142.155 190.869 141.413 190.928C140.671 190.986 139.687 195.932 145.75 203.104C145.75 203.104 164.657 219.1 168.268 221.177C169.16 221.686 170.37 222.745 171.829 222.686H171.879H172.063C172.258 222.67 172.451 222.631 172.638 222.57C174.431 221.994 176.991 219.776 178.067 218.942C183.489 214.579 188.683 209.941 193.63 205.047C195.039 203.679 196.64 202.545 198.167 201.303C200.172 199.782 201.87 197.894 203.171 195.74C204.163 194.225 204.768 192.489 204.93 190.686C205.116 189.118 204.756 187.534 203.913 186.199Z" fill="#FFA8A7"/>
<path d="M121.289 229.592C116.827 239.6 115.743 245.438 115.392 250.884C115.042 256.33 115.559 264.57 115.559 264.57L154.949 241.86C154.073 236.311 152.779 230.835 151.079 225.48L121.289 229.592Z" fill="#7000FF"/>
<path d="M151.138 213.104L150.904 223.429C151.421 225.455 152.247 228.766 153.172 231.769C152.589 233.595 148.277 238.507 139.12 241.551C129.445 244.771 118.411 241.451 117.185 239.049L121.022 229.333C121.022 229.333 117.686 216.448 117.636 216.29C117.586 216.131 121.214 210.894 121.455 204.614C121.697 198.334 119.963 195.64 119.412 195.039C119.662 194.931 125.309 193.371 125.309 193.371L136.568 191.119L141.863 190.778C146.275 193.038 149.849 196.65 152.063 201.086C153.087 202.964 153.544 205.099 153.38 207.232C153.216 209.365 152.437 211.404 151.138 213.104Z" fill="#FAFAFA"/>
<path d="M144.732 161.296C145.908 162.497 148.285 165.374 148.068 175.807C147.843 184.656 144.974 186.833 143.531 187.483C142.089 188.134 139.311 187.717 136.618 187.266V191.578C136.618 191.578 140.437 194.239 141.396 196.649C142.147 198.525 137.377 201.144 130.137 198.025C127.177 196.749 124.791 193.505 124.791 193.505L124.883 180.728C124.883 180.728 123.29 182.262 120.605 179.894C118.386 177.951 117.644 174.665 119.379 172.913C119.829 172.497 120.373 172.193 120.964 172.027C121.554 171.861 122.176 171.838 122.778 171.959C123.38 172.08 123.944 172.343 124.425 172.725C124.905 173.107 125.288 173.597 125.542 174.156C129.252 174.213 132.908 173.268 136.126 171.42C141.822 168.268 144.349 164.732 144.732 161.296Z" fill="#FFA8A7"/>
<path d="M138.027 174.214C138.028 174.431 137.966 174.644 137.847 174.826C137.729 175.008 137.56 175.151 137.36 175.238C137.161 175.325 136.941 175.351 136.727 175.314C136.513 175.276 136.315 175.177 136.157 175.028C135.999 174.879 135.888 174.687 135.838 174.476C135.788 174.264 135.802 174.043 135.876 173.839C135.951 173.635 136.084 173.458 136.259 173.329C136.434 173.2 136.643 173.125 136.859 173.113C137.008 173.109 137.157 173.134 137.296 173.187C137.435 173.24 137.563 173.32 137.671 173.422C137.78 173.524 137.867 173.647 137.928 173.783C137.989 173.919 138.023 174.065 138.027 174.214Z" fill="#263238"/>
<path d="M137.176 180.77L141.346 181.528C141.309 181.806 141.216 182.073 141.073 182.314C140.93 182.555 140.74 182.764 140.514 182.93C140.289 183.096 140.032 183.215 139.759 183.279C139.487 183.343 139.204 183.352 138.928 183.305C138.364 183.192 137.867 182.864 137.54 182.391C137.213 181.918 137.083 181.337 137.176 180.77Z" fill="#B16668"/>
<path d="M138.936 183.305C139.211 183.362 139.495 183.362 139.77 183.305C139.749 182.837 139.548 182.394 139.21 182.07C138.871 181.745 138.421 181.563 137.952 181.562C137.699 181.559 137.449 181.61 137.218 181.712C137.325 182.113 137.542 182.475 137.847 182.757C138.151 183.039 138.528 183.229 138.936 183.305Z" fill="#F28F8F"/>
<path d="M146.867 170.645L144.365 169.619C144.424 169.45 144.515 169.296 144.636 169.164C144.756 169.032 144.901 168.927 145.064 168.853C145.226 168.78 145.402 168.74 145.58 168.737C145.758 168.734 145.935 168.767 146.1 168.835C146.434 168.982 146.7 169.251 146.842 169.588C146.985 169.924 146.994 170.302 146.867 170.645Z" fill="#263238"/>
<path d="M146.284 173.397C146.283 173.614 146.22 173.826 146.1 174.007C145.981 174.188 145.811 174.33 145.611 174.415C145.412 174.5 145.192 174.525 144.979 174.487C144.765 174.449 144.568 174.349 144.41 174.2C144.253 174.05 144.143 173.858 144.094 173.647C144.045 173.436 144.059 173.215 144.134 173.011C144.209 172.808 144.342 172.631 144.517 172.502C144.691 172.374 144.9 172.299 145.116 172.288C145.418 172.281 145.71 172.394 145.929 172.602C146.147 172.809 146.275 173.095 146.284 173.397Z" fill="#263238"/>
<path d="M141.071 172.947L141.838 179.418L145.174 177.834L141.071 172.947Z" fill="#F28F8F"/>
<path d="M136.576 187.241C133.732 186.858 127.886 185.165 126.977 182.846C127.338 184.019 128.051 185.053 129.02 185.807C130.763 187.308 136.568 189.009 136.568 189.009L136.576 187.241Z" fill="#F28F8F"/>
<path d="M125.1 177.375C125.828 177.313 126.501 176.965 126.972 176.406C127.443 175.848 127.672 175.125 127.61 174.398C127.548 173.67 127.2 172.997 126.642 172.526C126.083 172.055 125.361 171.825 124.633 171.887L125.1 177.375Z" fill="#263238"/>
<path d="M96.744 234.971C97.97 242.319 100.655 249.149 108.712 262.835C109.633 264.507 110.753 266.062 112.048 267.464C113.407 268.935 115.057 270.108 116.893 270.908C117.966 271.358 119.157 271.437 120.279 271.133C122.465 270.608 124.324 268.915 124.491 267.872C124.716 266.471 122.206 265.054 121.222 264.036C120.388 263.202 118.72 261.793 118.161 261.025C117.602 260.258 116.969 259.641 117.669 259.666C118.094 259.666 118.503 259.824 118.912 259.874C119.261 259.908 119.613 259.908 119.963 259.874C120.313 259.899 120.665 259.848 120.994 259.722C121.322 259.597 121.619 259.401 121.864 259.149C121.968 259.022 122.032 258.867 122.048 258.704C122.065 258.541 122.032 258.376 121.956 258.231C121.795 258.032 121.581 257.882 121.339 257.798C120.568 257.506 119.818 257.16 119.095 256.764C118.376 256.351 117.682 255.894 117.019 255.396C116.001 254.562 114.617 253.661 113.991 252.502C112.426 249.698 111.237 246.701 110.455 243.586C109.888 241.418 108.787 237.256 108.22 233.312C108.403 232.811 110.947 228.132 112.59 225.414C114.95 221.502 117.202 218.149 119.379 214.663C123.974 209.059 123.549 198.375 119.479 195.048C112.323 196.882 110.263 199.96 107.903 204.522C105.601 208.959 99.4128 221.335 97.3695 227.448C96.5437 229.866 96.3289 232.45 96.744 234.971Z" fill="#FFA8A7"/>
<path d="M305.244 339.305L374.216 324.026L374.358 325.894C374.358 325.894 372.881 328.396 356.769 333.166C340.656 337.937 300.807 346.369 300.807 346.369L299.139 344.158L305.244 339.305Z" fill="#263238"/>
<path d="M354.734 308.722C354.734 308.722 350.647 315.169 345.827 318.955C341.006 322.741 315.194 345.118 315.194 345.118L306.854 349.73L304.352 348.287L308.105 339.555C308.105 339.555 337.253 318.88 343.558 314.535C349.863 310.19 355.543 307.521 354.734 308.722Z" fill="#37474F"/>
<path d="M304.368 346.252L306.87 347.695L306.22 349.354L304.368 348.287V346.252Z" fill="#263238"/>
<path d="M354.8 306.478V308.547L352.724 311.591V308.388L354.8 306.478Z" fill="#37474F"/>
<path d="M314.418 372.414C317.629 367.41 313.884 362.698 314.251 358.412C314.618 354.125 315.185 345.118 315.185 345.118L306.845 349.73C306.845 349.73 304.076 356.802 302.926 359.779C301.775 362.757 296.804 365.901 293.751 368.47C290.699 371.038 288.139 377.176 296.662 379.57C305.186 381.964 311.215 377.393 314.418 372.414ZM299.406 376.234C296.12 375.283 295.136 372.589 297.204 370.213C299.273 367.836 303.609 366.676 306.895 367.627C310.181 368.578 311.157 371.28 309.089 373.657C307.02 376.034 302.742 377.185 299.406 376.234Z" fill="#7000FF"/>
<path opacity="0.2" d="M314.418 372.414C317.629 367.41 313.884 362.698 314.251 358.412C314.618 354.125 315.185 345.118 315.185 345.118L306.845 349.73C306.845 349.73 304.076 356.802 302.926 359.779C301.775 362.757 296.804 365.901 293.751 368.47C290.699 371.038 288.139 377.176 296.662 379.57C305.186 381.964 311.215 377.393 314.418 372.414ZM299.406 376.234C296.12 375.283 295.136 372.589 297.204 370.213C299.273 367.836 303.609 366.676 306.895 367.627C310.181 368.578 311.157 371.28 309.089 373.657C307.02 376.034 302.742 377.185 299.406 376.234Z" fill="black"/>
<path d="M314.76 341.998C314.29 342.388 313.729 342.651 313.13 342.765C312.53 342.879 311.912 342.839 311.332 342.649C310.073 342.29 309.564 341.398 310.198 340.672C310.668 340.283 311.229 340.019 311.828 339.906C312.427 339.792 313.046 339.832 313.626 340.022C314.885 340.38 315.394 341.273 314.76 341.998Z" fill="#263238"/>
<path d="M305.177 338.312C305.177 338.312 295.319 340.13 292.075 340.43C288.831 340.731 284.135 340.038 276.021 340.781C267.906 341.523 253.294 348.487 252.544 355.242C251.793 361.998 258.799 362.498 263.828 361.289C268.857 360.08 271.642 358.22 280.257 353.908C291.758 348.162 299.389 344.517 299.389 344.517L305.836 339.179L305.177 338.312ZM286.062 347.419C281.373 348.942 276.797 350.792 272.368 352.957C266.872 355.676 265.554 357.519 262.118 358.328C259.324 358.987 256.563 357.419 257.948 354.35C259.441 351.081 263.569 347.678 271.167 345.176C278.765 342.674 285.003 343.141 287.78 344.609C288.889 345.209 289.398 346.327 286.062 347.419Z" fill="#7000FF"/>
<path opacity="0.2" d="M305.177 338.312C305.177 338.312 295.319 340.13 292.075 340.43C288.831 340.731 284.135 340.038 276.021 340.781C267.906 341.523 253.294 348.487 252.544 355.242C251.793 361.998 258.799 362.498 263.828 361.289C268.857 360.08 271.642 358.22 280.257 353.908C291.758 348.162 299.389 344.517 299.389 344.517L305.836 339.179L305.177 338.312ZM286.062 347.419C281.373 348.942 276.797 350.792 272.368 352.957C266.872 355.676 265.554 357.519 262.118 358.328C259.324 358.987 256.563 357.419 257.948 354.35C259.441 351.081 263.569 347.678 271.167 345.176C278.765 342.674 285.003 343.141 287.78 344.609C288.889 345.209 289.398 346.327 286.062 347.419Z" fill="black"/>
<path d="M300.774 346.369V344.334L299.389 342.482V344.517L300.774 346.369Z" fill="#263238"/>
<path d="M305.244 337.27L374.358 323.859C374.358 323.859 372.881 326.361 356.769 331.14C340.656 335.918 300.807 344.334 300.807 344.334L299.139 342.123L305.244 337.27Z" fill="#37474F"/>
<path d="M354.734 306.687C354.734 306.687 350.647 313.142 345.827 316.928C341.006 320.715 315.194 343.091 315.194 343.091L306.854 347.695L304.352 346.252L308.105 337.52C308.105 337.52 337.253 316.845 343.558 312.5C349.863 308.155 355.543 305.486 354.734 306.687Z" fill="#455A64"/>
<path d="M314.418 370.379C317.629 365.375 313.884 360.663 314.251 356.377C314.618 352.09 315.185 343.091 315.185 343.091L306.845 347.695C306.845 347.695 304.076 354.767 302.926 357.753C301.775 360.738 296.804 363.866 293.751 366.435C290.699 369.003 288.139 375.142 296.662 377.543C305.186 379.945 311.215 375.358 314.418 370.379ZM299.406 374.207C296.12 373.257 295.136 370.555 297.204 368.178C299.273 365.801 303.609 364.65 306.895 365.601C310.181 366.551 311.157 369.245 309.089 371.622C307.02 373.999 302.742 375.158 299.406 374.207Z" fill="#7000FF"/>
<path d="M314.76 339.963C314.291 340.354 313.73 340.619 313.131 340.734C312.532 340.85 311.913 340.811 311.332 340.622C310.073 340.255 309.564 339.371 310.198 338.637C310.668 338.248 311.229 337.984 311.828 337.871C312.427 337.757 313.046 337.797 313.626 337.987C314.885 338.354 315.394 339.238 314.76 339.963Z" fill="#263238"/>
<path d="M305.177 336.277C305.177 336.277 295.319 338.104 292.075 338.404C288.831 338.704 284.135 338.012 276.021 338.746C267.906 339.48 253.294 346.452 252.544 353.207C251.793 359.963 258.799 360.472 263.828 359.254C268.857 358.036 271.642 356.185 280.257 351.881C291.758 346.11 299.406 342.482 299.406 342.482L305.853 337.153L305.177 336.277ZM286.062 345.384C281.372 346.907 276.795 348.76 272.368 350.931C266.872 353.641 265.554 355.484 262.118 356.293C259.324 356.96 256.563 355.384 257.948 352.315C259.441 349.054 263.569 345.643 271.167 343.183C278.765 340.722 285.003 341.139 287.78 342.607C288.889 343.174 289.398 344.292 286.062 345.384Z" fill="#7000FF"/>
<path d="M244.104 315.969L264.228 312.024C264.355 312.001 264.487 312.018 264.604 312.073C264.722 312.128 264.819 312.218 264.883 312.33C264.947 312.443 264.975 312.573 264.962 312.702C264.949 312.831 264.897 312.952 264.812 313.05L251.159 328.504L244.104 315.969Z" fill="#FFA8A7"/>
<path d="M264.812 313.05C264.897 312.952 264.949 312.831 264.962 312.702C264.975 312.573 264.947 312.443 264.883 312.33C264.819 312.218 264.722 312.128 264.604 312.073C264.487 312.018 264.355 312.001 264.228 312.024L260.3 312.8C260.84 313.133 261.278 313.609 261.563 314.176C261.849 314.743 261.972 315.378 261.918 316.011V316.361L264.812 313.05Z" fill="#263238"/>
<path d="M175.424 371.964L177.092 371.022L179.085 369.887L251.184 328.546C251.845 326.331 251.645 323.948 250.625 321.874C249.199 318.68 246.455 316.161 244.137 316.036L172.071 357.352L168.251 359.454C170.787 358.203 177.951 370.621 175.424 371.964Z" fill="#7000FF"/>
<path d="M181.704 368.353L185.373 366.243C186.457 365.667 185.832 362.998 184.539 360.246C182.871 356.585 179.535 353.032 178.126 353.799L175.415 355.351L174.456 355.926C175.891 355.159 179.202 358.703 180.878 362.373C182.087 365.008 182.704 367.585 181.787 368.278C181.767 368.31 181.738 368.337 181.704 368.353Z" fill="#EBEBEB"/>
<path d="M182.646 367.794C185.148 366.46 177.951 354.025 175.424 355.359L171.746 357.469C174.248 356.126 181.487 368.561 178.96 369.896L182.646 367.794Z" fill="#7000FF"/>
<path d="M175.424 371.964L179.06 369.887C181.562 368.595 174.681 356.543 172.046 357.327L171.896 357.386L168.251 359.454C170.787 358.203 177.951 370.621 175.424 371.964Z" fill="#EBEBEB"/>
<path opacity="0.15" d="M264.903 312.375L264.228 312.024L249.625 320.014L173.422 363.724C173.28 363.499 173.163 363.482 173.072 363.641C175.215 366.977 176.833 371.197 175.424 371.931L177.092 370.988L179.085 369.854L251.184 328.513L264.837 313.059C264.916 312.965 264.966 312.849 264.978 312.727C264.989 312.605 264.964 312.482 264.903 312.375Z" fill="black"/>
<path d="M160.003 380.754L175.424 371.964C176.508 371.405 175.907 368.761 174.656 366.026C172.988 362.356 169.702 358.778 168.251 359.504L152.78 368.361C149.711 370.138 152.53 376.81 155.958 379.787C157.217 380.888 158.644 381.388 160.003 380.754Z" fill="#F28F8F"/>
<path opacity="0.1" d="M160.962 375.967C160.078 372.498 157.259 369.087 154.674 368.361C154.293 368.221 153.883 368.176 153.48 368.23C153.078 368.284 152.695 368.435 152.364 368.67C150.045 370.821 152.747 376.943 155.983 379.762C157.234 380.871 158.635 381.363 159.961 380.779C161.079 380.104 161.521 378.327 160.962 375.967Z" fill="black"/>
</svg>
