<svg width="18" height="18" viewBox="0 0 18 18" fill="none" xmlns="http://www.w3.org/2000/svg">
<path d="M8.16675 0.569691C8.45473 -0.189897 9.54458 -0.189897 9.83347 0.569691L11.6964 5.73021C11.8269 6.07221 12.159 6.29991 12.5298 6.29991H17.1079C17.9538 6.29991 18.3228 7.35289 17.6577 7.86858L14.3999 10.7998C14.2539 10.912 14.1473 11.0676 14.0952 11.2441C14.0432 11.4207 14.0484 11.6092 14.1101 11.7826L15.2998 16.8252C15.5896 17.6352 14.6519 18.3309 13.9427 17.8323L9.51759 15.0244C9.36604 14.9179 9.18533 14.8607 9.00011 14.8607C8.81489 14.8607 8.63417 14.9179 8.48263 15.0244L4.05753 17.8323C3.34926 18.3309 2.4106 17.6343 2.70039 16.8252L3.89014 11.7826C3.95185 11.6092 3.95705 11.4207 3.90499 11.2441C3.85293 11.0676 3.74628 10.912 3.60035 10.7998L0.342493 7.86858C-0.323477 7.35289 0.0473062 6.29991 0.891469 6.29991H5.46957C5.64982 6.30051 5.82601 6.24636 5.97482 6.14463C6.12363 6.0429 6.23805 5.89839 6.30293 5.73021L8.16585 0.569691H8.16675Z" fill="#FFC107"/>
</svg>
